<svg width="563" height="312" viewBox="0 0 563 312" fill="none" xmlns="http://www.w3.org/2000/svg">
<g clip-path="url(#clip0)">
<path d="M505.395 60.8103H390.185V247.746H505.395V60.8103Z" fill="#E6E6E6"/>
<path d="M400.946 238.174H494.634V70.3823H400.946V238.174Z" fill="white"/>
<path d="M464.306 106.37H436.944V108.63H464.306V106.37Z" fill="#E6E6E6"/>
<path d="M484.633 114.188H436.944V116.448H484.633V114.188Z" fill="#E6E6E6"/>
<path d="M484.586 122.007H436.944V124.267H484.586V122.007Z" fill="#E6E6E6"/>
<path d="M431.274 106.404H410.947V124.484H431.274V106.404Z" fill="#E6E6E6"/>
<path d="M464.306 145.221H436.944V147.481H464.306V145.221Z" fill="#E6E6E6"/>
<path d="M484.633 153.04H436.944V155.3H484.633V153.04Z" fill="#E6E6E6"/>
<path d="M484.586 160.858H436.944V163.118H484.586V160.858Z" fill="#E6E6E6"/>
<path d="M431.274 145.255H410.947V163.335H431.274V145.255Z" fill="#E6E6E6"/>
<path d="M464.306 184.072H436.944V186.332H464.306V184.072Z" fill="#E6E6E6"/>
<path d="M484.633 191.891H436.944V194.151H484.633V191.891Z" fill="#E6E6E6"/>
<path d="M484.586 199.709H436.944V201.969H484.586V199.709Z" fill="#E6E6E6"/>
<path d="M431.274 184.106H410.947V202.186H431.274V184.106Z" fill="#E6E6E6"/>
<path d="M183.818 60.8103H68.6078V247.746H183.818V60.8103Z" fill="#E6E6E6"/>
<path d="M79.3693 238.174H173.057V70.3823H79.3693V238.174Z" fill="white"/>
<path d="M142.729 106.37H115.368V108.63H142.729V106.37Z" fill="#E6E6E6"/>
<path d="M163.056 114.188H115.368V116.448H163.056V114.188Z" fill="#E6E6E6"/>
<path d="M163.009 122.007H115.368V124.267H163.009V122.007Z" fill="#E6E6E6"/>
<path d="M109.697 106.404H89.37V124.484H109.697V106.404Z" fill="#E6E6E6"/>
<path d="M142.729 145.221H115.368V147.481H142.729V145.221Z" fill="#E6E6E6"/>
<path d="M163.056 153.04H115.368V155.3H163.056V153.04Z" fill="#E6E6E6"/>
<path d="M163.009 160.858H115.368V163.118H163.009V160.858Z" fill="#E6E6E6"/>
<path d="M109.697 145.255H89.37V163.335H109.697V145.255Z" fill="#E6E6E6"/>
<path d="M142.729 184.072H115.368V186.332H142.729V184.072Z" fill="#E6E6E6"/>
<path d="M163.056 191.891H115.368V194.151H163.056V191.891Z" fill="#E6E6E6"/>
<path d="M163.009 199.709H115.368V201.969H163.009V199.709Z" fill="#E6E6E6"/>
<path d="M109.697 184.106H89.37V202.186H109.697V184.106Z" fill="#E6E6E6"/>
<path d="M281.935 262.949C437.163 262.949 563 258.411 563 252.814C563 247.216 437.163 242.678 281.935 242.678C126.707 242.678 0.869812 247.216 0.869812 252.814C0.869812 258.411 126.707 262.949 281.935 262.949Z" fill="#E6E6E6"/>
<path d="M365.428 0H208.575V254.503H365.428V0Z" fill="#3F3D56"/>
<path d="M215.353 248.027H358.65V6.4751H215.353V248.027Z" fill="white"/>
<path d="M309.487 62.0271H272.236V65.1041H309.487V62.0271Z" fill="#18A0FB"/>
<path d="M337.161 72.6711H272.236V75.7481H337.161V72.6711Z" fill="#E6E6E6"/>
<path d="M337.098 83.3154H272.236V86.3924H337.098V83.3154Z" fill="#E6E6E6"/>
<path d="M264.516 62.0728H236.842V86.6884H264.516V62.0728Z" fill="#18A0FB"/>
<path d="M309.487 114.921H272.236V117.998H309.487V114.921Z" fill="#18A0FB"/>
<path d="M337.161 125.565H272.236V128.642H337.161V125.565Z" fill="#E6E6E6"/>
<path d="M337.098 136.209H272.236V139.286H337.098V136.209Z" fill="#E6E6E6"/>
<path d="M264.516 114.966H236.842V139.582H264.516V114.966Z" fill="#18A0FB"/>
<path d="M309.487 167.814H272.236V170.891H309.487V167.814Z" fill="#18A0FB"/>
<path d="M337.161 178.458H272.236V181.535H337.161V178.458Z" fill="#E6E6E6"/>
<path d="M337.098 189.103H272.236V192.179H337.098V189.103Z" fill="#E6E6E6"/>
<path d="M264.516 167.86H236.842V192.476H264.516V167.86Z" fill="#18A0FB"/>
<path d="M229.713 180.46L227.814 187.78C227.814 187.78 228.447 204.672 223.382 202.983C218.318 201.294 219.584 186.654 219.584 186.654L224.015 179.334L229.713 180.46Z" fill="#FFB8B8"/>
<path d="M201.543 100.225C208.535 100.225 214.204 95.1827 214.204 88.9633C214.204 82.744 208.535 77.7021 201.543 77.7021C194.551 77.7021 188.883 82.744 188.883 88.9633C188.883 95.1827 194.551 100.225 201.543 100.225Z" fill="#FFB8B8"/>
<path d="M191.731 92.0601L190.465 108.389L206.291 110.078C206.291 110.078 206.291 96.5645 207.557 94.8754C208.823 93.1862 191.731 92.0601 191.731 92.0601Z" fill="#FFB8B8"/>
<path d="M226.864 113.175L206.365 105.453C206.365 105.453 196.573 98.7326 190.829 103.701L188.25 106.981C188.25 106.981 165.461 114.864 165.461 121.058L174.323 152.026C174.323 152.026 169.259 169.481 176.855 170.607L218.002 173.985C218.002 173.985 223.699 167.792 218.635 159.909L220.534 141.328L226.864 113.175Z" fill="#5A9CFF"/>
<path d="M212.938 113.738L226.864 113.175C226.864 113.175 231.295 114.301 234.46 124.999C237.625 135.697 238.259 153.152 238.259 153.152L230.662 184.683L221.167 183.557L224.965 153.152L218.635 132.882L212.938 113.738Z" fill="#5A9CFF"/>
<path d="M173.057 117.116L166.191 119.018C166.191 119.018 160.396 126.688 160.396 130.63C160.396 134.571 157.864 164.413 157.864 164.413L174.323 188.625L179.387 176.8L169.259 161.598L177.488 143.017L173.057 117.116Z" fill="#5A9CFF"/>
<path d="M219.901 172.859L174.388 169.297C174.388 169.297 169.892 194.818 170.525 204.954C171.158 215.089 171.791 230.854 171.791 230.854L166.727 299.547L186.35 297.295L188.883 240.426L197.112 209.458L206.607 248.872L212.938 299.547L230.029 297.858L224.332 236.485C224.332 236.485 229.396 181.305 219.901 172.859Z" fill="#2F2E41"/>
<path d="M226.231 295.043L231.928 296.732C231.928 296.732 243.956 293.917 240.791 301.237C237.625 308.556 228.763 307.43 228.763 307.43C228.763 307.43 218.002 314.75 213.571 309.119L216.103 297.295L226.231 295.043Z" fill="#2F2E41"/>
<path d="M180.02 295.043L185.717 296.732C185.717 296.732 197.745 293.917 194.58 301.237C191.415 308.556 182.552 307.43 182.552 307.43C182.552 307.43 171.791 314.75 167.36 309.119L169.892 297.295L180.02 295.043Z" fill="#2F2E41"/>
<path d="M191.731 98.8168C191.731 98.8168 178.438 90.3709 185.401 80.2358C190.232 73.2047 200.242 73.7612 205.92 74.7616C207.45 75.0128 208.888 75.5911 210.11 76.4466C211.333 77.3022 212.303 78.4094 212.938 79.6728C213.887 81.6435 213.887 83.6142 210.089 83.6142C202.493 83.6142 206.291 88.6817 206.291 88.6817C206.291 88.6817 201.227 89.8078 202.493 93.7492C203.759 97.6906 191.731 98.8168 191.731 98.8168Z" fill="#2F2E41"/>
</g>
<defs>
<clipPath id="clip0">
<rect width="562.13" height="311.248" fill="white" transform="translate(0.869812)"/>
</clipPath>
</defs>
</svg>
