<svg width="66" height="66" viewBox="0 0 66 66" fill="none" xmlns="http://www.w3.org/2000/svg">
<path d="M37.5324 45.8102C37.3661 46.8394 37.1018 47.8335 36.7458 48.7843L39.9402 51.71C39.4923 52.6628 38.9822 53.5786 38.3935 54.4387L34.292 53.1022C33.6452 53.9014 32.9208 54.6325 32.1301 55.2863L33.4524 59.432C32.6015 60.027 31.6955 60.5416 30.7528 60.9953L27.8583 57.7665C26.9176 58.1264 25.9351 58.3935 24.9158 58.5616L24.0047 62.8268C23.4895 62.8681 22.9722 62.9062 22.4458 62.9062C21.9193 62.9062 21.402 62.8681 20.8858 62.8268L19.9747 58.5616C18.9565 58.3935 17.9729 58.1264 17.0323 57.7665L14.1378 60.9953C13.1951 60.5426 12.2891 60.027 11.4382 59.432L12.7604 55.2863C11.9697 54.6325 11.2464 53.9003 10.5995 53.1022L6.49805 54.4387C5.90936 53.5786 5.40025 52.6628 4.95134 51.71L8.14578 48.7843C7.78971 47.8335 7.52546 46.8404 7.35916 45.8102L3.13935 44.8893C3.09854 44.3675 3.06079 43.8446 3.06079 43.3125C3.06079 42.7804 3.09854 42.2575 3.13935 41.7357L7.35916 40.8148C7.52546 39.7856 7.78971 38.7915 8.14578 37.8407L4.95134 34.915C5.39923 33.9622 5.90936 33.0464 6.49805 32.1863L10.5995 33.5228C11.2464 32.7236 11.9707 31.9925 12.7614 31.3387L11.4392 27.193C12.2901 26.598 13.1961 26.0834 14.1388 25.6297L17.0333 28.8585C17.974 28.4986 18.9565 28.2315 19.9757 28.0634L20.8868 23.7982C21.402 23.7569 21.9193 23.7188 22.4458 23.7188C22.9722 23.7188 23.4895 23.7569 24.0058 23.7982L24.9169 28.0634C25.9351 28.2315 26.9186 28.4986 27.8593 28.8585L30.7538 25.6297C31.6965 26.0824 32.6025 26.598 33.4534 27.193L32.1311 31.3387C32.9218 31.9925 33.6452 32.7247 34.292 33.5239L38.3935 32.1874C38.9822 33.0474 39.4913 33.9632 39.9402 34.9161L36.7458 37.8417C37.1018 38.7925 37.3661 39.7856 37.5324 40.8158L41.7522 41.7367C41.793 42.2575 41.8308 42.7804 41.8308 43.3125C41.8308 43.8446 41.793 44.3675 41.7522 44.8893L37.5324 45.8102ZM22.4458 33C16.8109 33 12.2432 37.6169 12.2432 43.3125C12.2432 49.0081 16.8109 53.625 22.4458 53.625C28.0807 53.625 32.6484 49.0081 32.6484 43.3125C32.6484 37.6169 28.0807 33 22.4458 33Z" fill="#454A6D"/>
<path d="M51.6855 16.8145C51.5263 17.3477 51.3182 17.8592 51.0621 18.3408L52.6731 21.4613C52.1293 22.1564 51.5089 22.7834 50.8213 23.3331L47.734 21.7047C47.2575 21.9646 46.7515 22.175 46.224 22.3348L45.1792 25.6967C44.7487 25.7482 44.3141 25.7812 43.8713 25.7812C43.4285 25.7812 42.9938 25.7483 42.5643 25.6977L41.5196 22.3358C40.9921 22.176 40.486 21.9646 40.0096 21.7057L36.9223 23.3341C36.2346 22.7844 35.6143 22.1574 35.0705 21.4624L36.6815 18.3418C36.4244 17.8602 36.2162 17.3487 36.0581 16.8156L32.732 15.7596C32.681 15.3244 32.6484 14.8851 32.6484 14.4375C32.6484 13.9899 32.681 13.5506 32.731 13.1165L36.0571 12.0605C36.2152 11.5273 36.4244 11.0158 36.6805 10.5342L35.0695 7.41366C35.6133 6.71859 36.2336 6.09159 36.9212 5.54194L40.0086 7.17028C40.485 6.91041 40.9911 6.70003 41.5185 6.54019L42.5633 3.17831C42.9938 3.12675 43.4285 3.09375 43.8713 3.09375C44.3141 3.09375 44.7487 3.12675 45.1782 3.17728L46.223 6.53916C46.7504 6.699 47.2565 6.91041 47.733 7.16925L50.8203 5.54091C51.5079 6.09056 52.1282 6.71756 52.672 7.41263L51.0611 10.5332C51.3182 11.0148 51.5263 11.5263 51.6844 12.0594L55.0105 13.1154C55.0615 13.5506 55.0942 13.9899 55.0942 14.4375C55.0942 14.8851 55.0615 15.3244 55.0115 15.7585L51.6855 16.8145ZM43.8713 10.3125C41.6175 10.3125 39.7902 12.1595 39.7902 14.4375C39.7902 16.7155 41.6175 18.5625 43.8713 18.5625C46.125 18.5625 47.9523 16.7155 47.9523 14.4375C47.9523 12.1595 46.125 10.3125 43.8713 10.3125Z" fill="#E89D43"/>
<path d="M59.9292 40.0857C59.7721 40.6581 59.5507 41.2005 59.267 41.7068L60.2822 43.8663C59.821 44.4613 59.2915 44.9965 58.7028 45.4627L56.5664 44.4366C56.0665 44.7233 55.5288 44.947 54.9625 45.1058L54.1688 47.3622C53.8025 47.4076 53.4322 47.4375 53.0536 47.4375C52.6751 47.4375 52.3048 47.4076 51.9385 47.3622L51.1447 45.1058C50.5785 44.947 50.0418 44.7233 49.5409 44.4366L47.4044 45.4627C46.8158 44.9965 46.2862 44.4613 45.8251 43.8663L46.8402 41.7068C46.5566 41.2015 46.3352 40.6581 46.1781 40.0868L43.9458 39.2844C43.9009 38.9132 43.8713 38.5388 43.8713 38.1562C43.8713 37.7737 43.9009 37.3993 43.9458 37.0291L46.1781 36.2268C46.3352 35.6544 46.5566 35.112 46.8402 34.6067L45.8251 32.4473C46.2862 31.8522 46.8158 31.317 47.4044 30.8509L49.5409 31.877C50.0408 31.5903 50.5785 31.3665 51.1447 31.2077L51.9385 28.9513C52.3048 28.9049 52.6751 28.875 53.0536 28.875C53.4322 28.875 53.8025 28.9049 54.1688 28.9503L54.9625 31.2067C55.5288 31.3655 56.0655 31.5892 56.5664 31.8759L58.7028 30.8498C59.2915 31.316 59.821 31.8512 60.2822 32.4462L59.267 34.6057C59.5507 35.111 59.7721 35.6544 59.9292 36.2268L62.1615 37.0291C62.2064 37.3993 62.236 37.7737 62.236 38.1562C62.236 38.5388 62.2064 38.9132 62.1615 39.2834L59.9292 40.0857ZM53.0536 35.0625C51.3631 35.0625 49.9929 36.4475 49.9929 38.1562C49.9929 39.865 51.3631 41.25 53.0536 41.25C54.7442 41.25 56.1144 39.865 56.1144 38.1562C56.1144 36.4475 54.7442 35.0625 53.0536 35.0625Z" fill="#4AC3ED"/>
<path d="M62.4359 5.17689L56.3338 3.94351L55.1135 10.1104L57.1143 10.5157L57.6642 7.73954C58.6528 9.81854 59.1752 12.11 59.1752 14.4375C59.1752 17.9933 58.0141 21.3366 55.8185 24.1055L57.4112 25.3956C59.8649 22.3008 61.2157 18.4099 61.2157 14.4375C61.2157 11.7367 60.5985 9.07398 59.4241 6.67117L62.036 7.19917L62.4359 5.17689Z" fill="#454A6D"/>
<path d="M24.1873 13.7084L22.7447 15.1666L24.1312 16.5681C23.5701 16.532 23.0079 16.5 22.4457 16.5C14.553 16.5 7.12343 20.0176 2.06293 26.1515L3.63005 27.4725C8.30183 21.8099 15.159 18.5625 22.4457 18.5625C22.965 18.5625 23.4833 18.5924 24.0016 18.6254L22.7447 19.8959L24.1873 21.3541L27.9694 17.5312L24.1873 13.7084Z" fill="#454A6D"/>
</svg>
