<svg width="100" height="100" viewBox="0 0 100 100" fill="none" xmlns="http://www.w3.org/2000/svg">
<path d="M98.5352 6.50957V61.4482H1.46484V6.50957C1.46484 3.80644 3.65605 1.61523 6.35918 1.61523H93.641C96.3439 1.61523 98.5352 3.80644 98.5352 6.50957Z" fill="white"/>
<path d="M65.1807 51.5168H77.8494V22.8112H81.6943L71.7379 10.7653H71.2922L61.3357 22.8112H65.1807V51.5168Z" fill="#E1FDA0"/>
<path d="M39.79 25.4786H52.459V51.5167H39.79V25.4786Z" fill="#FEE95D"/>
<path d="M18.3057 29.9889H30.9746V51.5168H18.3057V29.9889Z" fill="#FF6A47"/>
<path d="M98.5352 61.4482V72.8713C98.5352 75.5744 96.3439 77.7656 93.6408 77.7656H6.35918C3.65605 77.7656 1.46484 75.5744 1.46484 72.8713V61.4482H98.5352Z" fill="#D5F6EA"/>
<path d="M63.06 89.9269H36.94L39.3734 77.7654H60.6266L63.06 89.9269Z" fill="#D5F6EA"/>
<path d="M27.1684 89.927H72.8316V98.3848H27.1684V89.927Z" fill="#D5F6EA"/>
<path d="M10.2654 1.61523H6.35918C3.65605 1.61523 1.46484 3.80644 1.46484 6.50957V61.4482H5.37109V6.50957C5.37109 3.80644 7.5623 1.61523 10.2654 1.61523Z" fill="#D5F6EA"/>
<path d="M65.242 22.8112L73.4682 12.8586L71.7379 10.7653H71.2922L61.3357 22.8112H65.1807V51.5168H69.0869V22.8112H65.242Z" fill="#A7EEB1"/>
<path d="M39.79 25.4786H43.6963V51.5167H39.79V25.4786Z" fill="#FFC277"/>
<path d="M18.3057 29.9889H22.2119V51.5168H18.3057V29.9889Z" fill="#D03582"/>
<path d="M5.37109 72.8713V61.4482H1.46484V72.8713C1.46484 75.5744 3.65605 77.7656 6.35918 77.7656H10.2654C7.5623 77.7654 5.37109 75.5742 5.37109 72.8713Z" fill="#A7EED4"/>
<path d="M39.3734 77.7654L36.94 89.9269H40.8463L43.2797 77.7654H39.3734Z" fill="#A7EED4"/>
<path d="M27.1684 89.927H31.0746V98.3848H27.1684V89.927Z" fill="#A7EED4"/>
<path d="M79.3143 52.9817V24.276H84.8057L72.4275 9.30042H70.6025L58.2246 24.276H63.7158V52.9817H79.3143ZM71.515 12.7949L78.583 21.3463H76.3846V50.052H66.6453V21.3463H64.4469L71.515 12.7949Z" fill="black"/>
<path d="M38.3252 24.014V52.9816H53.9238V24.014H38.3252ZM50.9939 50.0519H41.2547V26.9437H50.9939V50.0519Z" fill="black"/>
<path d="M16.8408 52.9817H32.4395V28.524H16.8408V52.9817ZM19.7705 31.4537H29.5098V50.052H19.7705V31.4537Z" fill="black"/>
<path d="M93.6406 0.150391H24.6211V3.08008H93.6406C95.5318 3.08008 97.0703 4.61856 97.0703 6.50977V59.9824H79.5898V62.9121H97.0703V72.8711C97.0703 74.7623 95.5318 76.3008 93.6406 76.3008H6.35938C4.46816 76.3008 2.92969 74.7623 2.92969 72.8711V62.9121H76.6602V59.9824H2.92969V6.50977C2.92969 4.61856 4.46816 3.08008 6.35938 3.08008H21.6914V0.150391H6.35938C2.85273 0.150391 0 3.00313 0 6.50977V72.8711C0 76.3777 2.85273 79.2305 6.35938 79.2305H93.6406C97.1473 79.2305 100 76.3777 100 72.8711V6.50977C100 3.00313 97.1473 0.150391 93.6406 0.150391Z" fill="black"/>
<path d="M63.2352 83.3375L60.3625 83.9125L61.2732 88.4619H38.7268L39.6375 83.9125L36.7648 83.3375L35.7389 88.4621H25.7035V99.8496H74.2965V88.4621H64.2611L63.2352 83.3375ZM71.3668 91.3918V96.92H28.6332V91.3918H71.3668Z" fill="black"/>
<path d="M60.1562 71.0718H57.2266V68.1421H60.1562V71.0718ZM51.3672 71.0718H48.4375V68.1421H51.3672V71.0718ZM42.5781 71.0718H39.6484V68.1421H42.5781V71.0718Z" fill="white"/>
<path d="M70.0303 39.2881H72.96V42.2178H70.0303V39.2881Z" fill="black"/>
<path d="M44.6703 39.2881H47.6V42.2178H44.6703V39.2881Z" fill="black"/>
<path d="M23.1553 39.2881H26.085V42.2178H23.1553V39.2881Z" fill="black"/>
</svg>
