<svg width="100" height="100" viewBox="0 0 100 100" fill="none" xmlns="http://www.w3.org/2000/svg">
<g clip-path="url(#clip0)">
<path d="M10.6559 22.9512L50 1.63977L89.3441 22.9512H97.5408V29.5085H94.2621V36.0659H5.7379V29.5085H2.45923V22.9512H10.6559Z" fill="#EBE5DD"/>
<path d="M97.5408 22.9512H2.45923V26.2298H97.5408V22.9512Z" fill="#D4C8B8"/>
<path d="M73.497 22.9512H77.8687L50 8.19714L22.1313 22.9512H36.3388L54.918 13.1152L73.497 22.9512Z" fill="#5A9CFF"/>
<path d="M54.918 13.1151L36.3388 22.9511H73.497L54.918 13.1151Z" fill="#D5F6EA"/>
<path d="M94.2621 85.246H5.73785V91.8033H94.2621V85.246Z" fill="#EBE5DD"/>
<path d="M94.2621 29.5085H5.73785V32.7872H94.2621V29.5085Z" fill="#D4C8B8"/>
<path d="M94.2621 88.5247H5.73785V91.8033H94.2621V88.5247Z" fill="#D4C8B8"/>
<path d="M97.5408 91.8033H2.45923V98.3607H97.5408V91.8033Z" fill="#EBE5DD"/>
<path d="M97.5408 95.082H2.45923V98.3607H97.5408V95.082Z" fill="#D4C8B8"/>
<path d="M87.7048 42.6232H82.7867V78.6886H87.7048V42.6232Z" fill="#18A0FB"/>
<path d="M90.9835 42.6232H87.7048V78.6886H90.9835V42.6232Z" fill="#5A9CFF"/>
<path d="M64.754 42.6232V47.5412V73.7706V78.6886H69.672V42.6232H64.754Z" fill="#5A9CFF"/>
<path d="M72.9507 42.6232H69.672V78.6886H72.9507V42.6232Z" fill="#18A0FB"/>
<path d="M17.2132 42.6232H12.2952V78.6886H17.2132V42.6232Z" fill="#18A0FB"/>
<path d="M12.2952 42.6232H9.01654V78.6886H12.2952V42.6232Z" fill="#5A9CFF"/>
<path d="M35.246 42.6232V47.5412V73.7706V78.6886H30.3279V42.6232H35.246Z" fill="#5A9CFF"/>
<path d="M30.328 42.6232H27.0493V78.6886H30.328V42.6232Z" fill="#18A0FB"/>
<path d="M50 73.7707C57.2431 73.7707 63.1147 67.899 63.1147 60.656C63.1147 53.4129 57.2431 47.5413 50 47.5413C42.757 47.5413 36.8853 53.4129 36.8853 60.656C36.8853 67.899 42.757 73.7707 50 73.7707Z" fill="#FFE177"/>
<path d="M42.9744 54.694L40.6306 52.4014C43.1207 49.8567 46.4484 48.4551 50 48.4551V51.7338C47.3377 51.734 44.8426 52.785 42.9744 54.694Z" fill="white"/>
<path d="M55.1237 73.6401L53.843 70.6222C56.2932 69.5817 58.1799 67.6389 59.1532 65.152L62.2061 66.3479C60.9085 69.6626 58.3928 72.2521 55.1237 73.6401Z" fill="white"/>
<path d="M50 44.2626C40.9605 44.2626 33.6066 51.6164 33.6066 60.6559C33.6066 69.6955 40.9605 77.0493 50 77.0493C59.0395 77.0493 66.3934 69.6955 66.3934 60.6559C66.3934 51.6164 59.0395 44.2626 50 44.2626ZM50 73.7706C42.7687 73.7706 36.8853 67.8873 36.8853 60.6559C36.8853 53.4246 42.7687 47.5412 50 47.5412C57.2313 47.5412 63.1147 53.4246 63.1147 60.6559C63.1147 67.8873 57.2313 73.7706 50 73.7706Z" fill="#5A9CFF"/>
<path d="M54.918 63.9346C54.918 61.2228 52.7119 59.0166 50 59.0166C49.0963 59.0166 48.3607 58.281 48.3607 57.3773C48.3607 56.4736 49.0963 55.738 50 55.738H53.2787V52.4593H51.6394V50.8199H48.3607V52.7613C46.4566 53.4402 45.082 55.2429 45.082 57.3773C45.082 60.0892 47.2881 62.2953 50 62.2953C50.9037 62.2953 51.6394 63.031 51.6394 63.9346C51.6394 64.8383 50.9037 65.574 50 65.574H46.7213V68.8526H48.3607V70.492H51.6394V68.5506C53.5434 67.8717 54.918 66.0688 54.918 63.9346Z" fill="#5A9CFF"/>
<path d="M97.5408 21.3117H89.7595L50.7805 0.198104C50.2939 -0.0660346 49.7064 -0.0660346 49.2197 0.198104L10.2405 21.3117H2.45922C1.5539 21.3117 0.819885 22.0458 0.819885 22.9511V29.5084C0.819885 30.4138 1.5539 31.1478 2.45922 31.1478H4.09856V36.0658C4.09856 36.9711 4.83257 37.7051 5.7379 37.7051H94.2621C95.1674 37.7051 95.9015 36.9711 95.9015 36.0658V31.1478H97.5408C98.4461 31.1478 99.1801 30.4138 99.1801 29.5084V22.9511C99.1801 22.0458 98.4461 21.3117 97.5408 21.3117ZM50 3.50403L82.8759 21.3117H78.2759L50.767 6.74828C50.2883 6.49377 49.7121 6.49377 49.2334 6.74828L21.7245 21.3117H17.1241L50 3.50403ZM71.2688 21.3117H28.7312L50 10.0518L71.2688 21.3117ZM7.37724 34.4264V31.1478H92.6228V34.4264H7.37724ZM95.9015 27.8691H94.2621H5.7379H4.09856V24.5904H10.6559H89.3441H95.9015V27.8691Z" fill="black"/>
<path d="M50 44.2626C40.9605 44.2626 33.6066 51.6164 33.6066 60.6559C33.6066 69.6955 40.9605 77.0493 50 77.0493C59.0395 77.0493 66.3934 69.6955 66.3934 60.6559C66.3934 51.6164 59.0395 44.2626 50 44.2626ZM50 73.7706C42.7687 73.7706 36.8853 67.8873 36.8853 60.6559C36.8853 53.4246 42.7687 47.5412 50 47.5412C57.2313 47.5412 63.1147 53.4246 63.1147 60.6559C63.1147 67.8873 57.2313 73.7706 50 73.7706Z" fill="black"/>
<path d="M50 59.0166C49.0963 59.0166 48.3607 58.281 48.3607 57.3773C48.3607 56.4736 49.0963 55.738 50 55.738H53.2787V52.4593H51.6394V50.8199H48.3607V52.7613C46.4566 53.4402 45.082 55.2429 45.082 57.3773C45.082 60.0892 47.2881 62.2953 50 62.2953C50.9037 62.2953 51.6394 63.031 51.6394 63.9346C51.6394 64.8383 50.9037 65.574 50 65.574H46.7213V68.8526H48.3607V70.492H51.6394V68.5506C53.5434 67.8717 54.918 66.0691 54.918 63.9346C54.918 61.2228 52.7119 59.0166 50 59.0166Z" fill="black"/>
<path d="M97.5408 90.164H95.9015V85.246C95.9015 84.3407 95.1674 83.6067 94.2621 83.6067H5.7379C4.83257 83.6067 4.09856 84.3407 4.09856 85.246V90.164H2.45922C1.5539 90.164 0.819885 90.8981 0.819885 91.8034V98.3607C0.819885 99.266 1.5539 100 2.45922 100H97.5408C98.4461 100 99.1801 99.266 99.1801 98.3607V91.8034C99.1801 90.8981 98.4461 90.164 97.5408 90.164ZM7.37724 86.8854H92.6228V90.164H7.37724V86.8854ZM95.9015 96.7214H4.09856V93.4427H95.9015V96.7214Z" fill="black"/>
<path d="M17.2132 80.328C18.1185 80.328 18.8526 79.594 18.8526 78.6887V42.6232C18.8526 41.7179 18.1185 40.9839 17.2132 40.9839H9.01653C8.11121 40.9839 7.3772 41.7179 7.3772 42.6232V78.6887C7.3772 79.594 8.11121 80.328 9.01653 80.328H17.2132ZM10.6559 44.2626H15.5739V77.0493H10.6559V44.2626Z" fill="black"/>
<path d="M35.246 40.9839H27.0493C26.144 40.9839 25.4099 41.7179 25.4099 42.6232V78.6887C25.4099 79.594 26.144 80.328 27.0493 80.328H35.246C36.1513 80.328 36.8853 79.594 36.8853 78.6887V73.7707H33.6066V77.0493H28.6886V44.2626H33.6066V47.5412H36.8853V42.6232C36.8853 41.7179 36.1513 40.9839 35.246 40.9839Z" fill="black"/>
<path d="M63.1147 73.7707V78.6887C63.1147 79.594 63.8487 80.328 64.7541 80.328H72.9507C73.8561 80.328 74.5901 79.594 74.5901 78.6887V42.6232C74.5901 41.7179 73.8561 40.9839 72.9507 40.9839H64.7541C63.8487 40.9839 63.1147 41.7179 63.1147 42.6232V47.5412H66.3934V44.2626H71.3114V77.0493H66.3934V73.7707H63.1147Z" fill="black"/>
<path d="M90.9834 80.328C91.8887 80.328 92.6228 79.594 92.6228 78.6887V42.6232C92.6228 41.7179 91.8887 40.9839 90.9834 40.9839H82.7867C81.8814 40.9839 81.1474 41.7179 81.1474 42.6232V78.6887C81.1474 79.594 81.8814 80.328 82.7867 80.328H90.9834ZM84.4261 44.2626H89.3441V77.0493H84.4261V44.2626Z" fill="black"/>
</g>
<defs>
<clipPath id="clip0">
<rect width="100" height="100" fill="white"/>
</clipPath>
</defs>
</svg>
