<svg width="50" height="52" viewBox="0 0 50 52" fill="none" xmlns="http://www.w3.org/2000/svg">
<g clip-path="url(#clip0)">
<path d="M48.4368 0.00171068H29.8869C29.6133 0.00120287 29.3508 0.114951 29.1572 0.318073L0.301726 30.6509C-0.100575 31.0739 -0.100575 31.7596 0.301726 32.1827L18.8517 51.6824C19.2541 52.1053 19.9064 52.1053 20.3089 51.6824L49.1644 21.3495C49.3578 21.1468 49.4668 20.8718 49.4674 20.5847V1.08496C49.4673 0.486664 49.0059 0.00171068 48.4368 0.00171068Z" fill="#2196F3"/>
<path d="M38.1312 17.3341C40.977 17.3341 43.284 14.909 43.284 11.9176C43.284 8.92608 40.977 6.50101 38.1312 6.50101C35.2855 6.50101 32.9785 8.92608 32.9785 11.9176C32.9785 14.909 35.2855 17.3341 38.1312 17.3341Z" fill="#FAFAFA"/>
<path d="M21.5146 35.3671C20.0203 35.3204 18.6031 34.6591 17.5677 33.5255C15.6689 31.8825 15.2683 28.992 16.6422 26.8479C17.0093 26.3902 17.6598 26.332 18.0953 26.7179C18.5307 27.1039 18.5861 27.7877 18.2189 28.2454C17.5223 29.112 17.885 30.7955 19.0248 31.9937C20.212 33.2396 21.8835 33.5906 22.6709 32.7629C23.382 32.0154 23.1491 30.8129 21.9413 28.9648L21.8114 28.7633C19.8822 25.8253 19.7133 23.6154 21.2137 22.0467C23.239 20.3975 26.1443 20.7381 27.7742 22.8159C29.6738 24.4583 30.0746 27.3495 28.6997 29.4934C28.3325 29.9511 27.682 30.0093 27.2466 29.6234C26.8111 29.2375 26.7558 28.5537 27.1229 28.0959C27.8196 27.2293 27.4568 25.548 26.3149 24.3476C25.1298 23.104 23.4582 22.7508 22.6688 23.5785C21.9557 24.3281 22.1907 25.5285 23.4046 27.3853L23.5324 27.5803C25.4596 30.5226 25.6224 32.7304 24.1281 34.2968C23.4286 35.0072 22.4871 35.3928 21.5146 35.3671Z" fill="#FAFAFA"/>
<path d="M17.5202 34.6672C16.9511 34.6683 16.4889 34.1841 16.4878 33.5858C16.4873 33.2974 16.5963 33.0206 16.7906 32.8169L27.0961 21.9837C27.5055 21.5681 28.1579 21.58 28.5534 22.0103C28.9391 22.4301 28.9391 23.0957 28.5534 23.5154L18.2477 34.3487C18.055 34.552 17.7932 34.6666 17.5202 34.6672Z" fill="#FAFAFA"/>
</g>
<defs>
<clipPath id="clip0">
<rect width="49.4673" height="52" fill="white"/>
</clipPath>
</defs>
</svg>
