<svg width="100" height="100" viewBox="0 0 100 100" fill="none" xmlns="http://www.w3.org/2000/svg">
<path d="M57.4797 69.4094C57.225 70.9688 56.8203 72.475 56.275 73.9156L61.1672 78.3484C60.4813 79.7922 59.7 81.1797 58.7984 82.4828L52.5172 80.4578C51.5266 81.6688 50.4172 82.7766 49.2062 83.7672L51.2312 90.0484C49.9281 90.95 48.5406 91.7297 47.0969 92.4172L42.6641 87.525C41.2234 88.0703 39.7188 88.475 38.1578 88.7297L36.7625 95.1922C35.9734 95.2547 35.1812 95.3125 34.375 95.3125C33.5688 95.3125 32.7766 95.2547 31.9859 95.1922L30.5906 88.7297C29.0312 88.475 27.525 88.0703 26.0844 87.525L21.6516 92.4172C20.2078 91.7313 18.8203 90.95 17.5172 90.0484L19.5422 83.7672C18.3313 82.7766 17.2234 81.6672 16.2328 80.4578L9.95156 82.4828C9.05 81.1797 8.27031 79.7922 7.58281 78.3484L12.475 73.9156C11.9297 72.475 11.525 70.9703 11.2703 69.4094L4.80781 68.0141C4.74531 67.2234 4.6875 66.4312 4.6875 65.625C4.6875 64.8188 4.74531 64.0266 4.80781 63.2359L11.2703 61.8406C11.525 60.2812 11.9297 58.775 12.475 57.3344L7.58281 52.9016C8.26875 51.4578 9.05 50.0703 9.95156 48.7672L16.2328 50.7922C17.2234 49.5813 18.3328 48.4734 19.5438 47.4828L17.5188 41.2016C18.8219 40.3 20.2094 39.5203 21.6531 38.8328L26.0859 43.725C27.5266 43.1797 29.0312 42.775 30.5922 42.5203L31.9875 36.0578C32.7766 35.9953 33.5688 35.9375 34.375 35.9375C35.1812 35.9375 35.9734 35.9953 36.7641 36.0578L38.1594 42.5203C39.7188 42.775 41.225 43.1797 42.6656 43.725L47.0984 38.8328C48.5422 39.5188 49.9297 40.3 51.2328 41.2016L49.2078 47.4828C50.4188 48.4734 51.5266 49.5828 52.5172 50.7937L58.7984 48.7688C59.7 50.0719 60.4797 51.4594 61.1672 52.9031L56.275 57.3359C56.8203 58.7766 57.225 60.2812 57.4797 61.8422L63.9422 63.2375C64.0047 64.0266 64.0625 64.8188 64.0625 65.625C64.0625 66.4312 64.0047 67.2234 63.9422 68.0141L57.4797 69.4094ZM34.375 50C25.7453 50 18.75 56.9953 18.75 65.625C18.75 74.2547 25.7453 81.25 34.375 81.25C43.0047 81.25 50 74.2547 50 65.625C50 56.9953 43.0047 50 34.375 50Z" fill="#454A6D"/>
<path d="M79.1547 25.4766C78.9109 26.2844 78.5922 27.0594 78.2 27.7891L80.6672 32.5172C79.8344 33.5703 78.8844 34.5203 77.8313 35.3531L73.1031 32.8859C72.3734 33.2797 71.5984 33.5984 70.7906 33.8406L69.1906 38.9344C68.5313 39.0125 67.8656 39.0625 67.1875 39.0625C66.5094 39.0625 65.8438 39.0125 65.1859 38.9359L63.5859 33.8422C62.7781 33.6 62.0031 33.2797 61.2734 32.8875L56.5453 35.3547C55.4922 34.5219 54.5422 33.5719 53.7094 32.5188L56.1766 27.7906C55.7828 27.0609 55.4641 26.2859 55.2219 25.4781L50.1281 23.8781C50.05 23.2188 50 22.5531 50 21.875C50 21.1969 50.05 20.5312 50.1266 19.8734L55.2203 18.2734C55.4625 17.4656 55.7828 16.6906 56.175 15.9609L53.7078 11.2328C54.5406 10.1797 55.4906 9.22969 56.5437 8.39688L61.2719 10.8641C62.0016 10.4703 62.7766 10.1516 63.5844 9.90938L65.1844 4.81563C65.8437 4.7375 66.5094 4.6875 67.1875 4.6875C67.8656 4.6875 68.5312 4.7375 69.1891 4.81406L70.7891 9.90781C71.5969 10.15 72.3719 10.4703 73.1016 10.8625L77.8297 8.39531C78.8828 9.22813 79.8328 10.1781 80.6656 11.2313L78.1984 15.9594C78.5922 16.6891 78.9109 17.4641 79.1531 18.2719L84.2469 19.8719C84.325 20.5313 84.375 21.1969 84.375 21.875C84.375 22.5531 84.325 23.2188 84.2484 23.8766L79.1547 25.4766ZM67.1875 15.625C63.7359 15.625 60.9375 18.4234 60.9375 21.875C60.9375 25.3266 63.7359 28.125 67.1875 28.125C70.6391 28.125 73.4375 25.3266 73.4375 21.875C73.4375 18.4234 70.6391 15.625 67.1875 15.625Z" fill="#E89D43"/>
<path d="M91.7797 60.7359C91.5391 61.6031 91.2 62.425 90.7656 63.1922L92.3203 66.4641C91.6141 67.3656 90.8031 68.1766 89.9016 68.8828L86.6297 67.3281C85.8641 67.7625 85.0406 68.1016 84.1734 68.3422L82.9578 71.7609C82.3969 71.8297 81.8297 71.875 81.25 71.875C80.6703 71.875 80.1031 71.8297 79.5422 71.7609L78.3266 68.3422C77.4594 68.1016 76.6375 67.7625 75.8703 67.3281L72.5984 68.8828C71.6969 68.1766 70.8859 67.3656 70.1797 66.4641L71.7344 63.1922C71.3 62.4266 70.9609 61.6031 70.7203 60.7375L67.3016 59.5219C67.2328 58.9594 67.1875 58.3922 67.1875 57.8125C67.1875 57.2328 67.2328 56.6656 67.3016 56.1047L70.7203 54.8891C70.9609 54.0219 71.3 53.2 71.7344 52.4344L70.1797 49.1625C70.8859 48.2609 71.6969 47.45 72.5984 46.7438L75.8703 48.2984C76.6359 47.8641 77.4594 47.525 78.3266 47.2844L79.5422 43.8656C80.1031 43.7953 80.6703 43.75 81.25 43.75C81.8297 43.75 82.3969 43.7953 82.9578 43.8641L84.1734 47.2828C85.0406 47.5234 85.8625 47.8625 86.6297 48.2969L89.9016 46.7422C90.8031 47.4484 91.6141 48.2594 92.3203 49.1609L90.7656 52.4328C91.2 53.1984 91.5391 54.0219 91.7797 54.8891L95.1984 56.1047C95.2672 56.6656 95.3125 57.2328 95.3125 57.8125C95.3125 58.3922 95.2672 58.9594 95.1984 59.5203L91.7797 60.7359ZM81.25 53.125C78.6609 53.125 76.5625 55.2234 76.5625 57.8125C76.5625 60.4016 78.6609 62.5 81.25 62.5C83.8391 62.5 85.9375 60.4016 85.9375 57.8125C85.9375 55.2234 83.8391 53.125 81.25 53.125Z" fill="#4AC3ED"/>
<path d="M3.25 68.1374C3.30469 68.8249 3.80312 69.3952 4.47812 69.5405L9.92344 70.7155C10.1156 71.6437 10.3594 72.5593 10.6547 73.453L6.53281 77.1874C6.02188 77.6499 5.875 78.3937 6.17188 79.0171C6.925 80.6015 7.76406 82.0655 8.66563 83.3687C9.05625 83.9343 9.77188 84.178 10.4297 83.9671L15.7219 82.2624C16.3547 82.9718 17.0281 83.6452 17.7375 84.278L16.0328 89.5702C15.8219 90.2249 16.0641 90.9421 16.6313 91.3343C17.9344 92.2359 19.3984 93.0749 20.9828 93.828C21.6078 94.1249 22.35 93.9765 22.8125 93.4671L26.5469 89.3452C27.4422 89.639 28.3578 89.8843 29.2859 90.0765L30.4609 95.5218C30.6063 96.1952 31.1766 96.6937 31.8625 96.7499C32.6938 96.8155 33.5266 96.8749 34.375 96.8749C35.2234 96.8749 36.0563 96.8155 36.8875 96.7499C37.575 96.6952 38.1453 96.1968 38.2906 95.5218L39.4656 90.0765C40.3937 89.8843 41.3109 89.6405 42.2047 89.3452L45.9391 93.4671C46.4031 93.978 47.1469 94.1265 47.7687 93.828C49.3531 93.0749 50.8172 92.2343 52.1203 91.3343C52.6875 90.9421 52.9297 90.2249 52.7188 89.5702L51.0141 84.278C51.7234 83.6452 52.3969 82.9718 53.0297 82.264L58.3219 83.9687C58.9766 84.1812 59.6938 83.9374 60.0859 83.3702C60.9875 82.0671 61.8266 80.603 62.5797 79.0187C62.8766 78.3952 62.7297 77.6515 62.2188 77.189L58.0969 73.4546C58.3906 72.5593 58.6359 71.6437 58.8281 70.7155L64.2734 69.5405C64.9469 69.3952 65.4453 68.8249 65.5016 68.139C65.5656 67.3062 65.625 66.4734 65.625 65.6249C65.625 64.7765 65.5656 63.9437 65.5 63.1124C65.4453 62.4249 64.9469 61.8546 64.2719 61.7093L58.8266 60.5343C58.6344 59.6062 58.3906 58.689 58.0953 57.7952L62.2172 54.0609C62.7281 53.5984 62.875 52.8546 62.5781 52.2312C61.825 50.6468 60.9844 49.1827 60.0844 47.8796C59.6922 47.3124 58.975 47.0687 58.3203 47.2812L53.0281 48.9859C52.3953 48.2765 51.7219 47.603 51.0125 46.9702L52.7172 41.678C52.9281 41.0234 52.6859 40.3062 52.1187 39.914C50.8156 39.0124 49.3516 38.1734 47.7672 37.4202C47.1422 37.1218 46.4 37.2702 45.9375 37.7812L42.2031 41.903C41.3078 41.6093 40.3922 41.364 39.4641 41.1718L38.2891 35.7265C38.1437 35.053 37.5734 34.5546 36.8875 34.4984C35.2234 34.364 33.525 34.3671 31.8609 34.4984C31.1734 34.553 30.6031 35.0515 30.4578 35.7265L29.2828 41.1718C28.3547 41.364 27.4391 41.6077 26.5453 41.903L22.8109 37.7812C22.3484 37.2702 21.6063 37.1234 20.9813 37.4202C19.3969 38.1734 17.9328 39.0124 16.6297 39.914C16.0625 40.3062 15.8203 41.0234 16.0312 41.678L17.7359 46.9702C17.0266 47.603 16.3531 48.2765 15.7203 48.9859L10.4297 47.2812C9.77344 47.0687 9.05625 47.3124 8.66563 47.8796C7.76406 49.1827 6.925 50.6468 6.17188 52.2312C5.875 52.8546 6.02188 53.5984 6.53281 54.0609L10.6547 57.7952C10.3609 58.6905 10.1156 59.6062 9.92344 60.5343L4.47812 61.7093C3.80469 61.8546 3.30625 62.4249 3.25 63.1109C3.18437 63.9437 3.125 64.7765 3.125 65.6249C3.125 66.4734 3.18437 67.3062 3.25 68.1374ZM6.28281 64.5171L11.5984 63.3687C12.2266 63.2327 12.7078 62.7265 12.8109 62.0921C13.0453 60.6515 13.4234 59.2374 13.9344 57.8874C14.1625 57.2874 13.9984 56.6077 13.5219 56.1765L9.50781 52.539C9.85781 51.8687 10.2234 51.2265 10.6016 50.6187L15.7516 52.278C16.3609 52.4734 17.0328 52.278 17.4406 51.7812C18.3625 50.653 19.4031 49.614 20.5312 48.6905C21.0281 48.2843 21.2266 47.614 21.0281 47.0015L19.3687 41.8515C19.9766 41.4718 20.6172 41.1062 21.2891 40.7577L24.9266 44.7734C25.3594 45.2499 26.0406 45.414 26.6391 45.1859C27.9859 44.6749 29.4 44.2968 30.8422 44.0624C31.4766 43.9593 31.9828 43.478 32.1187 42.8499L33.2656 37.5343C34.0016 37.4952 34.75 37.4937 35.4828 37.5343L36.6312 42.8499C36.7672 43.478 37.2734 43.9593 37.9078 44.0624C39.3484 44.2968 40.7625 44.6749 42.1125 45.1859C42.7094 45.414 43.3906 45.2515 43.8234 44.7734L47.4609 40.7593C48.1312 41.1093 48.7734 41.4749 49.3812 41.853L47.7219 47.003C47.525 47.6155 47.7219 48.2843 48.2188 48.6921C49.3469 49.614 50.3859 50.6546 51.3094 51.7827C51.7172 52.2812 52.3875 52.4796 52.9984 52.2796L58.1484 50.6202C58.5281 51.228 58.8938 51.8687 59.2422 52.539L55.2266 56.1765C54.75 56.6077 54.5859 57.2874 54.8141 57.889C55.325 59.2359 55.7031 60.6499 55.9375 62.0921C56.0406 62.7265 56.5219 63.2327 57.15 63.3687L62.4656 64.5155C62.4859 64.8827 62.5 65.253 62.5 65.6249C62.5 65.9968 62.4875 66.3671 62.4672 66.7327L57.1516 67.8812C56.5234 68.0171 56.0422 68.5234 55.9391 69.1577C55.7047 70.5984 55.3266 72.0124 54.8156 73.3624C54.5875 73.9624 54.7516 74.6421 55.2281 75.0734L59.2422 78.7109C58.8922 79.3812 58.5266 80.0234 58.1484 80.6312L52.9984 78.9718C52.3844 78.7718 51.7172 78.9702 51.3094 79.4687C50.3891 80.5937 49.3484 81.6343 48.2188 82.5593C47.7219 82.9655 47.525 83.6359 47.7219 84.2468L49.3812 89.3968C48.7734 89.7765 48.1328 90.1421 47.4625 90.4905L43.825 86.4749C43.3937 85.9984 42.7141 85.8374 42.1125 86.0624C40.7656 86.5734 39.3516 86.9515 37.9094 87.1859C37.275 87.289 36.7687 87.7702 36.6328 88.3984L35.4859 93.714C34.75 93.753 34.0016 93.7546 33.2687 93.714L32.1203 88.3984C31.9844 87.7702 31.4781 87.289 30.8438 87.1859C29.4031 86.9515 27.9891 86.5734 26.6391 86.0624C26.0406 85.8343 25.3594 85.9968 24.9281 86.4749L21.2906 90.489C20.6203 90.139 19.9781 89.7734 19.3703 89.3952L21.0297 84.2452C21.2266 83.6327 21.0297 82.964 20.5328 82.5562C19.4047 81.6343 18.3656 80.5937 17.4422 79.4655C17.0344 78.9671 16.3625 78.7702 15.7531 78.9687L10.6031 80.628C10.2234 80.0202 9.85781 79.3796 9.50938 78.7077L13.525 75.0702C14.0016 74.639 14.1656 73.9593 13.9375 73.3577C13.4266 72.0109 13.0484 70.5968 12.8141 69.1546C12.7109 68.5202 12.2297 68.014 11.6016 67.878L6.28281 66.7343C6.26406 66.3671 6.25 65.9968 6.25 65.6249C6.25 65.253 6.2625 64.8827 6.28281 64.5171Z" fill="#0D1030"/>
<path d="M84.7172 25.3671C85.3047 25.1828 85.7297 24.6687 85.8 24.0562C85.8937 23.2671 85.9375 22.5531 85.9375 21.875C85.9375 21.1968 85.8937 20.4828 85.8016 19.6937C85.7312 19.0812 85.3063 18.5671 84.7188 18.3828L80.3859 17.0218C80.2562 16.6671 80.1125 16.3187 79.9547 15.9781L82.0547 11.9546C82.3391 11.4093 82.2766 10.7468 81.8953 10.2625C80.9906 9.1187 79.95 8.07808 78.8031 7.17026C78.3187 6.78745 77.6563 6.72651 77.1109 7.00933L73.0844 9.10933C72.7437 8.95308 72.3953 8.80933 72.0406 8.67964L70.6797 4.34683C70.4953 3.75933 69.9813 3.33433 69.3687 3.26401C67.7875 3.07964 66.5859 3.07964 65.0047 3.26401C64.3922 3.33433 63.8781 3.75933 63.6938 4.34683L62.3328 8.67964C61.9781 8.80933 61.6297 8.95308 61.2891 9.11089L57.2656 7.01089C56.7203 6.72808 56.0594 6.78901 55.5734 7.17026C54.4297 8.07495 53.3891 9.11558 52.4813 10.2625C52.0984 10.7468 52.0359 11.4078 52.3203 11.9546L54.4187 15.9781C54.2625 16.3187 54.1188 16.6671 53.9891 17.0218L49.6563 18.3828C49.0688 18.5671 48.6437 19.0812 48.5734 19.6937C48.4812 20.4828 48.4375 21.1968 48.4375 21.875C48.4375 22.5531 48.4812 23.2671 48.5734 24.0562C48.6437 24.6687 49.0688 25.1828 49.6563 25.3671L53.9891 26.7281C54.1188 27.0828 54.2625 27.4312 54.4203 27.7718L52.3203 31.7953C52.0359 32.3406 52.0984 33.0031 52.4797 33.4874C53.3844 34.6312 54.425 35.6718 55.5719 36.5796C56.0547 36.9625 56.7187 37.0234 57.2641 36.7406L61.2875 34.6421C61.6281 34.7984 61.9766 34.9421 62.3312 35.0718L63.6922 39.4046C63.8766 39.9921 64.3906 40.4171 65.0031 40.4875C65.7953 40.5812 66.5094 40.625 67.1875 40.625C67.8656 40.625 68.5797 40.5812 69.3687 40.489C69.9813 40.4187 70.4953 39.9937 70.6797 39.4062L72.0406 35.0734C72.3953 34.9437 72.7437 34.8 73.0844 34.6421L77.1078 36.7421C77.6531 37.0265 78.3156 36.9656 78.8 36.5828C79.9437 35.6781 80.9844 34.6375 81.8922 33.4906C82.275 33.0062 82.3375 32.3453 82.0531 31.7984L79.9531 27.775C80.1109 27.4343 80.2547 27.0859 80.3844 26.7312L84.7172 25.3671ZM78.6859 23.9859C78.1922 24.1421 77.8078 24.5312 77.6578 25.0281C77.4453 25.7343 77.1641 26.414 76.8234 27.05C76.5781 27.5062 76.5734 28.0546 76.8141 28.5125L78.7969 32.3125C78.4266 32.7234 78.0344 33.1156 77.625 33.4843L73.825 31.5015C73.3656 31.2609 72.8172 31.2671 72.3625 31.5109C71.7266 31.8515 71.0469 32.1328 70.3406 32.3453C69.8453 32.4937 69.4547 32.8796 69.2984 33.3734L68.0109 37.4734C67.4406 37.5078 66.9359 37.5078 66.3641 37.4734L65.0766 33.3734C64.9203 32.8796 64.5312 32.4953 64.0344 32.3453C63.3266 32.1328 62.6469 31.8515 62.0141 31.5109C61.5578 31.2656 61.0094 31.2609 60.55 31.5015L56.75 33.4843C56.3391 33.114 55.9469 32.7218 55.5781 32.3125L57.5609 28.5125C57.8 28.0546 57.7969 27.5046 57.5516 27.05C57.2109 26.414 56.9297 25.7343 56.7172 25.0281C56.5687 24.5328 56.1828 24.1421 55.6891 23.9859L51.5891 22.6984C51.5703 22.4125 51.5625 22.139 51.5625 21.875C51.5625 21.6109 51.5703 21.3375 51.5891 21.0515L55.6891 19.764C56.1828 19.6078 56.5672 19.2187 56.7172 18.7218C56.9297 18.014 57.2109 17.3343 57.5516 16.7015C57.7969 16.2453 57.8016 15.6968 57.5609 15.2375L55.5781 11.4375C55.9484 11.0265 56.3406 10.6343 56.75 10.2656L60.55 12.2484C61.0078 12.4875 61.5578 12.4828 62.0125 12.239C62.6484 11.8984 63.3281 11.6171 64.0344 11.4046C64.5297 11.2562 64.9203 10.8703 65.0766 10.3765L66.3641 6.27651C66.9344 6.24214 67.4391 6.24214 68.0109 6.27651L69.2984 10.3765C69.4547 10.8703 69.8438 11.2546 70.3406 11.4046C71.0484 11.6171 71.7281 11.8984 72.3609 12.239C72.8172 12.4843 73.3656 12.489 73.825 12.2484L77.625 10.2656C78.0359 10.6359 78.4281 11.0281 78.7969 11.4375L76.8141 15.2375C76.575 15.6953 76.5781 16.2453 76.8234 16.7C77.1641 17.3359 77.4453 18.0156 77.6578 18.7218C77.8062 19.2171 78.1922 19.6078 78.6859 19.764L82.7859 21.0515C82.8047 21.3375 82.8125 21.6109 82.8125 21.875C82.8125 22.139 82.8047 22.4125 82.7859 22.6984L78.6859 23.9859Z" fill="#0D1030"/>
<path d="M95.7219 54.6312L93.0375 53.6781C92.8844 53.2422 92.7094 52.8156 92.5109 52.4015L93.7312 49.8312C93.9859 49.2969 93.9156 48.6656 93.55 48.2C92.7688 47.2015 91.8656 46.2969 90.8641 45.5125C90.3969 45.1469 89.7625 45.0781 89.2313 45.3312L86.6594 46.5515C86.2469 46.3547 85.8203 46.1781 85.3844 46.0266L84.4297 43.3422C84.2312 42.7844 83.7328 42.3859 83.1453 42.3141C81.7531 42.1469 80.7453 42.1469 79.3531 42.3141C78.7656 42.3844 78.2672 42.7828 78.0688 43.3422L77.1156 46.0266C76.6797 46.1797 76.2531 46.3547 75.8391 46.5531L73.2687 45.3328C72.7375 45.0797 72.1047 45.15 71.6375 45.514C70.6391 46.2953 69.7344 47.1984 68.95 48.2C68.5859 48.6656 68.5156 49.2984 68.7688 49.8328L69.9891 52.4047C69.7922 52.8172 69.6156 53.2437 69.4641 53.6797L66.7797 54.6344C66.2219 54.8328 65.8234 55.3312 65.7516 55.9187C65.6656 56.6109 65.625 57.2312 65.625 57.8125C65.625 58.3937 65.6656 59.0125 65.75 59.7078C65.8203 60.2953 66.2187 60.7937 66.7781 60.9922L69.4625 61.9453C69.6156 62.3812 69.7906 62.8078 69.9891 63.2219L68.7688 65.7922C68.5141 66.3265 68.5844 66.9578 68.95 67.4234C69.7312 68.4219 70.6344 69.3265 71.6359 70.1109C72.1016 70.475 72.7359 70.5453 73.2687 70.2922L75.8406 69.0719C76.2531 69.2687 76.6797 69.4453 77.1156 69.5969L78.0703 72.2812C78.2688 72.839 78.7672 73.2375 79.3547 73.3094C80.05 73.3969 80.6687 73.4375 81.25 73.4375C81.8312 73.4375 82.45 73.3968 83.1453 73.3125C83.7328 73.2422 84.2312 72.8437 84.4297 72.2844L85.3828 69.6C85.8188 69.4469 86.2453 69.2719 86.6594 69.0734L89.2297 70.2937C89.7625 70.5484 90.3969 70.4797 90.8609 70.1125C91.8594 69.3312 92.7641 68.4281 93.5484 67.4265C93.9125 66.9609 93.9828 66.3281 93.7297 65.7937L92.5094 63.2219C92.7063 62.8094 92.8828 62.3828 93.0344 61.9469L95.7187 60.9922C96.2766 60.7937 96.675 60.2953 96.7469 59.7078C96.8344 59.0125 96.875 58.3937 96.875 57.8125C96.875 57.2312 96.8344 56.6125 96.75 55.9172C96.6797 55.3281 96.2813 54.8312 95.7219 54.6312ZM93.7344 58.3828L91.2578 59.2625C90.7781 59.4328 90.4109 59.8265 90.275 60.3172C90.0703 61.0594 89.7781 61.7672 89.4078 62.4219C89.1578 62.864 89.1391 63.4015 89.3562 63.8609L90.4781 66.225C90.2187 66.5094 89.9469 66.7812 89.6641 67.039L87.3 65.9172C86.8438 65.7 86.3047 65.7187 85.8609 65.9687C85.2047 66.3406 84.4969 66.6312 83.7578 66.8359C83.2672 66.9719 82.8734 67.339 82.7016 67.8187L81.8219 70.2953C81.4438 70.3156 81.0594 70.3156 80.6813 70.2953L79.8016 67.8187C79.6313 67.339 79.2375 66.9719 78.7469 66.8359C78.0047 66.6312 77.2969 66.339 76.6422 65.9687C76.2 65.7203 75.6641 65.7015 75.2031 65.9172L72.8391 67.039C72.5547 66.7797 72.2828 66.5078 72.025 66.225L73.1469 63.8609C73.3656 63.4015 73.3453 62.864 73.0953 62.4219C72.7234 61.7656 72.4328 61.0578 72.2281 60.3187C72.0922 59.8281 71.725 59.4344 71.2453 59.2625L68.7688 58.3828C68.7563 58.1937 68.75 58.0047 68.75 57.8125C68.75 57.6203 68.7562 57.4297 68.7656 57.2422L71.2422 56.3609C71.7219 56.1906 72.0891 55.7969 72.2234 55.3062C72.4297 54.5625 72.7219 53.8562 73.0922 53.2015C73.3422 52.7594 73.3609 52.2219 73.1438 51.7625L72.0219 49.3984C72.2813 49.114 72.5531 48.8422 72.8359 48.5844L75.2 49.7062C75.6594 49.925 76.1969 49.9062 76.6391 49.6547C77.2953 49.2828 78.0031 48.9922 78.7422 48.7875C79.2328 48.6515 79.6266 48.2844 79.7984 47.8047L80.6781 45.3281C81.0562 45.3078 81.4406 45.3078 81.8187 45.3281L82.6984 47.8047C82.8687 48.2844 83.2625 48.6515 83.7531 48.7875C84.4953 48.9922 85.2031 49.2844 85.8578 49.6547C86.3016 49.9062 86.8375 49.925 87.2969 49.7062L89.6609 48.5844C89.9453 48.8437 90.2172 49.1156 90.475 49.3984L89.3531 51.7625C89.1344 52.2219 89.1547 52.7594 89.4047 53.2015C89.7766 53.8578 90.0672 54.5656 90.2719 55.3047C90.4078 55.7953 90.775 56.189 91.2547 56.3609L93.7312 57.2406C93.7437 57.4312 93.75 57.6203 93.75 57.8125C93.75 58.0047 93.7438 58.1937 93.7344 58.3828Z" fill="#0D1030"/>
<path d="M34.375 82.8125C43.8516 82.8125 51.5625 75.1016 51.5625 65.625C51.5625 56.1484 43.8516 48.4375 34.375 48.4375C24.8984 48.4375 17.1875 56.1484 17.1875 65.625C17.1875 75.1016 24.8984 82.8125 34.375 82.8125ZM34.375 51.5625C42.1281 51.5625 48.4375 57.8719 48.4375 65.625C48.4375 73.3781 42.1281 79.6875 34.375 79.6875C26.6219 79.6875 20.3125 73.3781 20.3125 65.625C20.3125 57.8719 26.6219 51.5625 34.375 51.5625Z" fill="#0D1030"/>
<path d="M3.15936 39.6234L5.55936 41.6249C12.7141 33.0453 23.2156 28.1249 34.375 28.1249C35.1703 28.1249 35.9641 28.1703 36.7578 28.2203L34.8328 30.1453L37.0422 32.3546L41.7297 27.6671C42.3406 27.0562 42.3406 26.0687 41.7297 25.4578L37.0422 20.7703L34.8328 22.9796L36.9562 25.1031C36.0969 25.0484 35.2359 24.9999 34.375 24.9999C22.2875 24.9999 10.9094 30.3296 3.15936 39.6234Z" fill="#0D1030"/>
<path d="M67.1875 14.0625C62.8797 14.0625 59.375 17.5672 59.375 21.875C59.375 26.1828 62.8797 29.6875 67.1875 29.6875C71.4953 29.6875 75 26.1828 75 21.875C75 17.5672 71.4953 14.0625 67.1875 14.0625ZM67.1875 26.5625C64.6031 26.5625 62.5 24.4594 62.5 21.875C62.5 19.2906 64.6031 17.1875 67.1875 17.1875C69.7719 17.1875 71.875 19.2906 71.875 21.875C71.875 24.4594 69.7719 26.5625 67.1875 26.5625Z" fill="#0D1030"/>
<path d="M81.25 51.5625C77.8031 51.5625 75 54.3656 75 57.8125C75 61.2594 77.8031 64.0625 81.25 64.0625C84.6969 64.0625 87.5 61.2594 87.5 57.8125C87.5 54.3656 84.6969 51.5625 81.25 51.5625ZM81.25 60.9375C79.5266 60.9375 78.125 59.5359 78.125 57.8125C78.125 56.0891 79.5266 54.6875 81.25 54.6875C82.9734 54.6875 84.375 56.0891 84.375 57.8125C84.375 59.5359 82.9734 60.9375 81.25 60.9375Z" fill="#0D1030"/>
<path d="M95.6187 7.84377L87.8062 6.28126C86.9562 6.10939 86.1359 6.66095 85.9672 7.50626L84.4047 15.3188L87.4687 15.9328L88.3109 11.7266C89.825 14.8766 90.625 18.3485 90.625 21.875C90.625 27.2625 88.8468 32.3281 85.4843 36.5235L87.9234 38.4781C91.6812 33.7891 93.75 27.8938 93.75 21.875C93.75 17.7828 92.8047 13.7485 91.0062 10.1078L95.0062 10.9078L95.6187 7.84377Z" fill="#0D1030"/>
</svg>
