<svg width="42" height="62" viewBox="0 0 42 62" fill="none" xmlns="http://www.w3.org/2000/svg">
<path d="M35.1841 29.1494V62H31.3984L20.7406 50.6289L20.7129 50.6581V29.1494H35.1841Z" fill="#2FC0F0"/>
<path d="M20.7129 29.1494V50.6581L10.1153 62H6.29468V29.1494H20.7129Z" fill="#9EE2F8"/>
<path d="M37.3014 23.8434L38.6075 31.3297L31.5404 33.9297L27.78 40.5132L20.7394 37.9229V0.0218506L26.4739 4.88617H33.9948L35.3008 12.3725L41.0619 17.2599L37.3014 23.8434Z" fill="#FF9F22"/>
<path d="M20.7394 0.0219004V37.923L20.7129 37.9132L13.6446 40.5133L9.8842 33.9298L2.81713 31.3297L4.12317 23.8434L0.362732 17.2599L6.12376 12.3725L7.4298 4.88622H14.9507L20.7129 0L20.7394 0.0219004Z" fill="#FFDA44"/>
<path d="M28.4167 18.1384L20.7394 23.9578V19.3964L26.25 15.2183L28.4167 18.1384Z" fill="#FFDD55"/>
<path d="M20.7394 19.3965V23.9578L17.4328 26.4642L12.7214 20.9076L15.4623 18.5326L17.9732 21.4928L20.7394 19.3965Z" fill="#FFF68E"/>
</svg>
