<svg width="100" height="100" viewBox="0 0 100 100" fill="none" xmlns="http://www.w3.org/2000/svg">
<path d="M96.6067 67.2551C94.6899 63.9625 90.4449 62.8344 87.1254 64.7355L71.3289 73.7808C70.2156 74.4183 68.9133 74.6441 67.65 74.4187L47.0414 70.739L44.177 70.4113H61.0898C64.8918 70.4113 67.9738 67.3293 67.9738 63.5273C67.9738 62.3324 67.0051 61.3636 65.8102 61.3636H46.2574C44.8867 61.3636 43.5324 61.6609 42.2879 62.2355L29.4602 68.1547C27.4555 69.0797 25.2738 69.559 23.066 69.559H22.6316V87.6539H26.4172L69.5418 83.8676C69.5727 83.8648 69.6039 83.8625 69.6348 83.8601L70.8793 83.7586C71.8981 83.6543 72.8836 83.3375 73.7719 82.8289L95.8078 70.2109C96.8516 69.6129 97.209 68.2898 96.6067 67.2551Z" fill="#FFDA44"/>
<path d="M26.4172 88.4351H22.6316C22.2004 88.4351 21.8504 88.0851 21.8504 87.6539V69.5586C21.8504 69.1273 22.2004 68.7773 22.6316 68.7773H23.066C25.1465 68.7773 27.2441 68.3168 29.1328 67.4453L41.9602 61.5261C43.298 60.9086 44.784 60.5824 46.257 60.5824H65.8102C67.4336 60.5824 68.7547 61.9035 68.7547 63.5273C68.7547 67.7539 65.316 71.1926 61.0898 71.1926H54.025L67.7871 73.65C68.8676 73.8429 69.9879 73.6488 70.9398 73.1035L86.7363 64.0582C90.4223 61.9476 95.1523 63.2058 97.2812 66.8625C97.6773 67.5429 97.7832 68.3355 97.5797 69.0953C97.3758 69.8578 96.884 70.4949 96.1961 70.889L74.1602 83.507C73.1711 84.0738 72.0938 84.4199 70.959 84.5363L69.6086 84.6465L26.4852 88.4328C26.4629 88.434 26.4402 88.4351 26.4172 88.4351ZM23.4133 86.8726H26.3836L69.5777 83.0808L70.8168 82.9801C71.7168 82.8875 72.5859 82.6082 73.3844 82.1508L95.4203 69.5324C95.7445 69.3469 95.9758 69.0476 96.0715 68.6902C96.1664 68.3359 96.1168 67.966 95.932 67.6484C94.2336 64.7308 90.457 63.7289 87.5141 65.4136L71.7176 74.4593C70.4477 75.1863 68.9551 75.4453 67.5133 75.1883L46.9285 71.5129L44.0883 71.1875C43.677 71.1402 43.3734 70.7804 43.3973 70.3668C43.4207 69.9531 43.7629 69.6301 44.1773 69.6301H61.0906C64.4555 69.6301 67.193 66.8926 67.193 63.5273C67.193 62.7648 66.573 62.1449 65.8109 62.1449H46.2578C45.009 62.1449 43.7496 62.4215 42.6156 62.9449L29.7883 68.864C27.8008 69.7812 25.6043 70.2875 23.4137 70.3363V86.8726H23.4133Z" fill="#18A0FB"/>
<path d="M21.5637 65.2914H17.1633V91.0726H21.5637C22.1539 91.0726 22.632 90.5941 22.632 90.0043V66.3597C22.632 65.7695 22.1535 65.2914 21.5637 65.2914Z" fill="#E0EBFC"/>
<path d="M54.468 53.4585C67.4122 53.4585 77.9055 42.9652 77.9055 30.021C77.9055 17.0768 67.4122 6.5835 54.468 6.5835C41.5238 6.5835 31.0305 17.0768 31.0305 30.021C31.0305 42.9652 41.5238 53.4585 54.468 53.4585Z" fill="#EAA97D"/>
<path d="M61.8167 47.7582C71.6129 43.7005 76.2647 32.4697 72.2069 22.6736C68.1492 12.8775 56.9184 8.2256 47.1223 12.2834C37.3261 16.3411 32.6743 27.5719 36.7321 37.368C40.7898 47.1642 52.0206 51.816 61.8167 47.7582Z" fill="#FFEA92"/>
<path d="M52.9106 42.5973C49.4813 42.0797 46.9973 39.9563 46.7156 36.4864C46.6863 36.125 46.9797 35.8168 47.3422 35.8168H50.0555C50.3652 35.8168 50.6223 36.045 50.6742 36.3504C50.8797 37.5575 51.4836 38.5016 52.534 38.9997C52.9531 39.1985 53.4391 38.8997 53.4391 38.4356V31.8829C53.4391 31.602 53.252 31.3559 52.9816 31.2797C49.8988 30.4079 46.6891 29.2692 46.6891 24.4536C46.6891 20.6172 49.2133 17.9262 52.9148 17.3508C53.2172 17.304 53.4391 17.0407 53.4391 16.7344V14.9715C53.4391 14.6254 53.7195 14.345 54.0656 14.345H54.902C55.248 14.345 55.5285 14.6254 55.5285 14.9715V16.6965C55.5285 17.0024 55.7496 17.2676 56.0523 17.3133C59.2453 17.7954 61.4527 19.784 61.9461 23.2036C62.0004 23.5793 61.7031 23.9161 61.3234 23.9161H58.6359C58.3355 23.9161 58.0867 23.7012 58.0215 23.4083C57.8207 22.5071 57.3055 21.6899 56.5102 21.1684C56.0891 20.8922 55.5289 21.1833 55.5289 21.6872V27.9887C55.5289 28.2719 55.7191 28.5192 55.9926 28.5938C59.0711 29.4313 62.2473 30.5395 62.2473 35.3516C62.2473 38.686 60.0594 41.9219 56.0527 42.561C55.7508 42.609 55.5289 42.8711 55.5289 43.177V44.9411C55.5289 45.2872 55.2484 45.5676 54.9023 45.5676H54.066C53.7199 45.5676 53.4395 45.2872 53.4395 44.9411V43.2153C53.4387 42.9067 53.2148 42.6434 52.9106 42.5973ZM53.4387 26.9227V21.4118C53.4387 20.9879 53.0219 20.6735 52.6219 20.8137C51.2969 21.279 50.4172 22.4063 50.4172 24.2383C50.4172 25.934 51.2727 26.8668 52.5297 27.4836C52.9484 27.6891 53.4387 27.3887 53.4387 26.9227ZM55.5285 32.9497V38.4532C55.5285 38.9083 55.9973 39.2075 56.4145 39.0258C57.7883 38.4282 58.5504 37.1219 58.5504 35.5657C58.5504 33.8973 57.693 32.9938 56.4332 32.3864C56.0152 32.1852 55.5285 32.4856 55.5285 32.9497Z" fill="#18A0FB"/>
<path d="M54.468 54.2397C41.1137 54.2397 30.2492 43.3753 30.2492 30.021C30.2492 16.6667 41.1137 5.80225 54.468 5.80225C67.8223 5.80225 78.6867 16.6667 78.6867 30.021C78.6867 43.3753 67.8219 54.2397 54.468 54.2397ZM54.468 7.36475C41.9754 7.36475 31.8117 17.5284 31.8117 30.021C31.8117 42.5136 41.9754 52.6772 54.468 52.6772C66.9606 52.6772 77.1242 42.5136 77.1242 30.021C77.1242 17.5284 66.9606 7.36475 54.468 7.36475Z" fill="#18A0FB"/>
<path d="M80.6664 43.8323V25.4718C80.6664 25.0402 80.3168 24.6906 79.8851 24.6906H72.4633C72.0316 24.6906 71.682 25.0402 71.682 25.4718V43.8327C71.682 44.2644 71.3324 44.614 70.9008 44.614H68.8539C68.1578 44.614 67.8094 45.4554 68.3016 45.9476L75.3996 53.0445C75.7047 53.3495 76.1992 53.3495 76.5043 53.0445L83.6023 45.9476C84.0945 45.4554 83.7461 44.614 83.05 44.614H81.4476C81.0164 44.6136 80.6664 44.264 80.6664 43.8323Z" fill="#F9A7A7"/>
<path d="M15.9871 93.4159H3.10078V62.1659H15.9871C16.6367 62.1659 17.1633 62.6925 17.1633 63.3421V92.2397C17.1633 92.8893 16.6367 93.4159 15.9871 93.4159Z" fill="#18A0FB"/>
<path d="M15.9867 94.1976H3.10078C2.66953 94.1976 2.31953 93.8476 2.31953 93.4164V62.1664C2.31953 61.7351 2.66953 61.3851 3.10078 61.3851H15.9871C17.0664 61.3851 17.9445 62.2633 17.9445 63.3426V92.2402C17.9445 93.3191 17.066 94.1976 15.9867 94.1976ZM3.88203 92.6351H15.9871C16.2051 92.6351 16.382 92.4578 16.382 92.2402V63.3426C16.382 63.1246 16.2047 62.9476 15.9871 62.9476H3.88203V92.6351Z" fill="#18A0FB"/>
<path d="M75.9523 54.0534C75.5523 54.0534 75.1523 53.9011 74.8477 53.5968L67.7496 46.4999C67.3012 46.0515 67.1684 45.3831 67.4109 44.7972C67.6535 44.2112 68.2199 43.8327 68.8543 43.8327H70.9012V25.4718C70.9012 24.6101 71.6019 23.9093 72.4637 23.9093H79.8855C80.7473 23.9093 81.448 24.6101 81.448 25.4718V43.8335L83.0504 43.8327C83.6848 43.8327 84.2516 44.2116 84.4941 44.7976C84.7367 45.3835 84.6035 46.0519 84.1551 46.4999L77.057 53.5968C76.7523 53.9015 76.3523 54.0534 75.9523 54.0534ZM68.8543 45.3948L75.9523 52.4917L83.0504 45.3948H81.448C80.5863 45.3948 79.8855 44.6941 79.8855 43.8323V25.4718H72.4637V43.8327C72.4637 44.6944 71.7629 45.3952 70.9012 45.3952H68.8543V45.3948Z" fill="#18A0FB"/>
<path d="M21.5637 91.8539H17.1633C16.732 91.8539 16.382 91.5039 16.382 91.0726V65.2914C16.382 64.8601 16.732 64.5101 17.1633 64.5101H21.5637C22.5836 64.5101 23.4133 65.3398 23.4133 66.3597V90.0043C23.4133 91.0238 22.5832 91.8539 21.5637 91.8539ZM17.9445 90.2914H21.5637C21.7219 90.2914 21.8508 90.1625 21.8508 90.0043V66.3597C21.8508 66.2015 21.7219 66.0726 21.5637 66.0726H17.9445V90.2914Z" fill="#18A0FB"/>
</svg>
