<svg width="525" height="389" viewBox="0 0 525 389" fill="none" xmlns="http://www.w3.org/2000/svg">
<g clip-path="url(#clip0)">
<path opacity="0.1" d="M300.825 388.702C333.091 388.702 359.247 383.055 359.247 376.088C359.247 369.121 333.091 363.474 300.825 363.474C268.559 363.474 242.402 369.121 242.402 376.088C242.402 383.055 268.559 388.702 300.825 388.702Z" fill="#18A0FB"/>
<path opacity="0.1" d="M510.961 329.487C499.354 339.22 482.836 343.248 466.863 345.792L464.174 346.207C436.255 350.418 407.773 351.275 379.424 352.123C300.357 354.489 221.084 356.85 142.226 351.396C107.352 348.987 71.6148 344.766 41.0498 330.34L40.2537 329.96C39.8581 329.772 39.4624 329.584 39.0668 329.386C33.6399 326.768 28.4415 323.691 23.5268 320.188C14.7988 313.896 7.59128 306.216 3.78257 297.104C-2.18553 282.814 0.970128 266.75 7.78672 252.777C14.6033 238.804 24.852 226.219 33.6898 213.061C36.2829 209.206 38.7426 205.207 41.0307 201.107C55.3313 175.392 62.4243 145.635 47.4326 120.855C45.4538 117.696 43.317 114.641 41.0307 111.701C37.3745 106.883 33.6564 102.064 31.1443 96.7307C25.2858 84.3191 26.5443 70.3608 28.6798 57.1012C31.5399 39.4715 36.8073 20.483 53.1719 9.46865C70.1752 -1.96971 94.3098 -1.39153 115.413 2.7232C148.223 9.07838 178.507 22.3814 209.076 34.3787C239.646 46.3759 271.689 57.3036 305.3 58.4792C334.978 59.5247 369.6 51.7337 389.306 31.4588C408.445 11.7766 444.411 10.2877 470.343 22.1742C495.087 33.5162 511.09 57.5204 509.907 81.4957C508.401 111.417 483.723 135.377 464.193 160.851C460.947 165.086 457.839 169.37 455.003 173.725C445.746 187.953 439.201 205.043 445.574 220.404C449.149 229.004 455.97 235.567 464.193 241.295C482.617 254.126 508.048 262.76 519.489 280.723C529.342 296.218 525.69 317.129 510.961 329.487Z" fill="#18A0FB"/>
<path d="M464.223 344.89C479.231 344.89 491.398 342.526 491.398 339.61C491.398 336.693 479.231 334.329 464.223 334.329C449.214 334.329 437.047 336.693 437.047 339.61C437.047 342.526 449.214 344.89 464.223 344.89Z" fill="#18A0FB"/>
<path d="M463.77 341.551C465.518 341.551 466.935 339.677 466.935 337.364C466.935 335.052 465.518 333.177 463.77 333.177C462.022 333.177 460.605 335.052 460.605 337.364C460.605 339.677 462.022 341.551 463.77 341.551Z" fill="#3F3D56"/>
<path d="M463.77 336.434C465.518 336.434 466.935 334.56 466.935 332.247C466.935 329.935 465.518 328.06 463.77 328.06C462.022 328.06 460.605 329.935 460.605 332.247C460.605 334.56 462.022 336.434 463.77 336.434Z" fill="#3F3D56"/>
<path d="M463.77 331.313C465.518 331.313 466.935 329.438 466.935 327.126C466.935 324.813 465.518 322.939 463.77 322.939C462.022 322.939 460.605 324.813 460.605 327.126C460.605 329.438 462.022 331.313 463.77 331.313Z" fill="#3F3D56"/>
<path d="M463.77 326.196C465.518 326.196 466.935 324.321 466.935 322.009C466.935 319.696 465.518 317.822 463.77 317.822C462.022 317.822 460.605 319.696 460.605 322.009C460.605 324.321 462.022 326.196 463.77 326.196Z" fill="#3F3D56"/>
<path d="M463.77 321.079C465.518 321.079 466.935 319.204 466.935 316.892C466.935 314.579 465.518 312.705 463.77 312.705C462.022 312.705 460.605 314.579 460.605 316.892C460.605 319.204 462.022 321.079 463.77 321.079Z" fill="#3F3D56"/>
<path d="M463.77 315.962C465.518 315.962 466.935 314.087 466.935 311.775C466.935 309.462 465.518 307.588 463.77 307.588C462.022 307.588 460.605 309.462 460.605 311.775C460.605 314.087 462.022 315.962 463.77 315.962Z" fill="#3F3D56"/>
<path d="M463.77 310.845C465.518 310.845 466.935 308.97 466.935 306.658C466.935 304.346 465.518 302.471 463.77 302.471C462.022 302.471 460.605 304.346 460.605 306.658C460.605 308.97 462.022 310.845 463.77 310.845Z" fill="#3F3D56"/>
<path d="M475.615 271.639C476.049 271.084 476.442 270.498 476.793 269.886L468.48 268.508L477.47 268.575C478.335 266.678 478.807 264.623 478.857 262.535C478.907 260.446 478.534 258.37 477.761 256.433L465.696 262.769L476.822 254.506C475.782 252.68 474.381 251.09 472.706 249.836C471.031 248.582 469.119 247.691 467.088 247.218C465.057 246.744 462.951 246.7 460.902 247.086C458.853 247.473 456.905 248.282 455.18 249.464C453.454 250.645 451.989 252.174 450.874 253.954C449.759 255.734 449.02 257.728 448.702 259.81C448.384 261.892 448.494 264.018 449.026 266.055C449.557 268.092 450.498 269.996 451.791 271.649C451.115 272.514 450.535 273.451 450.06 274.444L460.853 280.115L449.345 276.212C448.536 278.626 448.336 281.207 448.763 283.719C449.19 286.231 450.231 288.596 451.791 290.599C450.033 292.859 448.94 295.574 448.636 298.432C448.332 301.291 448.83 304.178 450.074 306.764C451.317 309.35 453.254 311.53 455.665 313.056C458.077 314.581 460.863 315.39 463.708 315.39C466.552 315.39 469.339 314.581 471.75 313.056C474.161 311.53 476.099 309.35 477.342 306.764C478.585 304.178 479.083 301.291 478.78 298.432C478.476 295.574 477.383 292.859 475.625 290.599C477.728 287.899 478.872 284.563 478.872 281.126C478.872 277.69 477.728 274.354 475.625 271.654L475.615 271.639Z" fill="#18A0FB"/>
<path opacity="0.1" d="M448.545 281.112C448.541 284.549 449.685 287.886 451.791 290.584C450.033 292.845 448.94 295.559 448.636 298.418C448.332 301.276 448.83 304.164 450.074 306.75C451.317 309.336 453.254 311.516 455.665 313.041C458.077 314.567 460.864 315.375 463.708 315.375C466.552 315.375 469.339 314.567 471.75 313.041C474.161 311.516 476.099 309.336 477.342 306.75C478.585 304.164 479.084 301.276 478.78 298.418C478.476 295.559 477.383 292.845 475.625 290.584C477.646 287.978 448.545 279.392 448.545 281.112Z" fill="black"/>
<path d="M64.8706 324.702C64.8706 327.395 54.4741 329.621 41.0363 329.939H40.2403C39.8446 329.752 39.449 329.564 39.0533 329.366C33.6321 326.753 28.4384 323.683 23.5277 320.187C26.793 319.802 30.5064 319.542 34.4915 319.455H35.0301C35.8977 319.455 36.7795 319.426 37.6709 319.426C38.2525 319.426 38.8293 319.426 39.3965 319.426H39.959C40.3213 319.426 40.6788 319.426 41.0316 319.426C54.4741 319.778 64.8706 322.033 64.8706 324.702Z" fill="#18A0FB"/>
<path d="M37.2372 326.644C38.9853 326.644 40.4024 324.769 40.4024 322.457C40.4024 320.144 38.9853 318.27 37.2372 318.27C35.4891 318.27 34.072 320.144 34.072 322.457C34.072 324.769 35.4891 326.644 37.2372 326.644Z" fill="#3F3D56"/>
<path d="M37.2372 321.527C38.9853 321.527 40.4024 319.652 40.4024 317.34C40.4024 315.028 38.9853 313.153 37.2372 313.153C35.4891 313.153 34.072 315.028 34.072 317.34C34.072 319.652 35.4891 321.527 37.2372 321.527Z" fill="#3F3D56"/>
<path d="M37.2372 316.41C38.9853 316.41 40.4024 314.535 40.4024 312.223C40.4024 309.911 38.9853 308.036 37.2372 308.036C35.4891 308.036 34.072 309.911 34.072 312.223C34.072 314.535 35.4891 316.41 37.2372 316.41Z" fill="#3F3D56"/>
<path d="M37.2372 311.293C38.9853 311.293 40.4024 309.418 40.4024 307.106C40.4024 304.794 38.9853 302.919 37.2372 302.919C35.4891 302.919 34.072 304.794 34.072 307.106C34.072 309.418 35.4891 311.293 37.2372 311.293Z" fill="#3F3D56"/>
<path d="M37.2372 306.176C38.9853 306.176 40.4024 304.302 40.4024 301.989C40.4024 299.677 38.9853 297.802 37.2372 297.802C35.4891 297.802 34.072 299.677 34.072 301.989C34.072 304.302 35.4891 306.176 37.2372 306.176Z" fill="#3F3D56"/>
<path d="M37.2372 301.059C38.9853 301.059 40.4024 299.185 40.4024 296.872C40.4024 294.56 38.9853 292.685 37.2372 292.685C35.4891 292.685 34.072 294.56 34.072 296.872C34.072 299.185 35.4891 301.059 37.2372 301.059Z" fill="#3F3D56"/>
<path d="M37.2372 295.938C38.9853 295.938 40.4024 294.063 40.4024 291.751C40.4024 289.438 38.9853 287.564 37.2372 287.564C35.4891 287.564 34.072 289.438 34.072 291.751C34.072 294.063 35.4891 295.938 37.2372 295.938Z" fill="#3F3D56"/>
<path d="M49.0828 256.732C49.5157 256.177 49.9107 255.592 50.2649 254.983L41.9468 253.615L50.9418 253.682C51.8051 251.785 52.2757 249.731 52.3249 247.643C52.3741 245.556 52.0008 243.481 51.2279 241.545L39.1677 247.871L50.2936 239.603C49.2521 237.781 47.8504 236.195 46.1759 234.945C44.5014 233.694 42.59 232.806 40.5609 232.335C38.5318 231.864 36.4284 231.82 34.3819 232.207C32.3354 232.594 30.3897 233.403 28.666 234.583C26.9424 235.763 25.4777 237.29 24.3634 239.067C23.2491 240.845 22.509 242.836 22.1893 244.915C21.8695 246.994 21.977 249.118 22.505 251.154C23.033 253.189 23.9701 255.093 25.2581 256.746C24.5855 257.614 24.0055 258.55 23.5277 259.541L34.3198 265.178L22.8127 261.29C22.0071 263.705 21.8089 266.284 22.2358 268.796C22.6627 271.308 23.7013 273.672 25.2581 275.677C23.5002 277.937 22.4069 280.652 22.1033 283.51C21.7996 286.369 22.2978 289.256 23.5408 291.842C24.7839 294.428 26.7217 296.608 29.1327 298.134C31.5438 299.659 34.3308 300.468 37.1752 300.468C40.0196 300.468 42.8066 299.659 45.2176 298.134C47.6287 296.608 49.5665 294.428 50.8096 291.842C52.0526 289.256 52.5508 286.369 52.2471 283.51C51.9435 280.652 50.8502 277.937 49.0923 275.677C51.1954 272.977 52.339 269.641 52.339 266.205C52.339 262.768 51.1954 259.432 49.0923 256.732H49.0828Z" fill="#18A0FB"/>
<path opacity="0.1" d="M22.0166 266.205C22.011 269.641 23.1532 272.979 25.2581 275.677C23.5002 277.937 22.4069 280.652 22.1033 283.511C21.7996 286.369 22.2978 289.256 23.5408 291.842C24.7839 294.428 26.7217 296.609 29.1328 298.134C31.5438 299.659 34.3308 300.468 37.1752 300.468C40.0196 300.468 42.8066 299.659 45.2176 298.134C47.6287 296.609 49.5665 294.428 50.8096 291.842C52.0526 289.256 52.5508 286.369 52.2471 283.511C51.9435 280.652 50.8502 277.937 49.0923 275.677C51.1135 273.07 22.0166 264.484 22.0166 266.205Z" fill="black"/>
<g opacity="0.2">
<path opacity="0.2" d="M146.436 267.549C146.436 268.002 146.388 268.445 146.341 268.879C142.642 267.375 139 265.781 135.415 264.094C133.508 263.84 131.734 262.966 130.362 261.603C129.318 261.073 128.279 260.524 127.245 259.97C127.478 259.471 127.742 258.989 128.036 258.524C130.038 255.315 133.089 253.306 136.45 253.417C139.81 253.528 142.718 255.72 144.52 259.035C145.901 261.649 146.562 264.589 146.436 267.549Z" fill="#3F3D56"/>
<path opacity="0.2" d="M146.989 250.724C146.92 253.675 146.076 256.555 144.544 259.069C142.537 262.268 139.491 264.277 136.13 264.166C135.897 264.166 135.653 264.138 135.439 264.118C133.532 263.864 131.758 262.99 130.386 261.627C129.454 260.736 128.669 259.7 128.06 258.558C126.712 255.937 126.053 253.01 126.144 250.057C126.236 247.104 127.076 244.225 128.584 241.694C130.591 238.486 133.637 236.476 136.998 236.587C140.358 236.698 143.266 238.89 145.068 242.205C146.449 244.82 147.112 247.762 146.989 250.724Z" fill="#3F3D56"/>
<path opacity="0.2" d="M147.495 233.864C147.734 226.25 143.261 219.928 137.507 219.744C131.752 219.56 126.894 225.584 126.656 233.199C126.418 240.813 130.89 247.135 136.645 247.319C142.399 247.503 147.257 241.479 147.495 233.864Z" fill="#3F3D56"/>
<path opacity="0.2" d="M148.021 217.013C148.259 209.399 143.787 203.077 138.032 202.893C132.277 202.709 127.419 208.733 127.181 216.348C126.943 223.962 131.415 230.284 137.17 230.468C142.925 230.652 147.783 224.628 148.021 217.013Z" fill="#3F3D56"/>
<path opacity="0.2" d="M148.546 200.162C148.784 192.548 144.312 186.226 138.558 186.042C132.803 185.858 127.945 191.882 127.707 199.497C127.469 207.111 131.941 213.433 137.695 213.617C143.45 213.801 148.308 207.777 148.546 200.162Z" fill="#3F3D56"/>
<path opacity="0.2" d="M102.715 83.2726C101.35 81.3946 100.114 79.4242 99.0155 77.3752L126.53 73.7037L96.9372 72.981C94.2929 66.6453 92.9553 59.8309 93.0061 52.9547C93.057 46.0786 94.4951 39.2852 97.2327 32.9901L136.321 55.0814L100.498 26.6783C104.123 20.8039 108.904 15.7461 114.546 11.8194C120.187 7.89271 126.567 5.18114 133.289 3.85333C140.012 2.52551 146.932 2.60983 153.621 4.10105C160.31 5.59227 166.624 8.45849 172.169 12.5215C177.715 16.5845 182.375 21.7573 185.859 27.7183C189.342 33.6793 191.575 40.301 192.419 47.1716C193.262 54.0421 192.698 61.0146 190.762 67.6554C188.825 74.2963 185.558 80.4634 181.163 85.7733C183.286 88.6946 185.094 91.8381 186.554 95.1495L150.435 112.678L188.728 101.032C191.137 109.068 191.527 117.583 189.862 125.809C188.198 134.034 184.531 141.711 179.194 148.145C184.754 155.77 188.079 164.822 188.788 174.268C189.498 183.713 187.563 193.169 183.206 201.555C178.849 209.942 172.244 216.919 164.148 221.69C156.053 226.461 146.792 228.833 137.425 228.534C128.058 228.235 118.964 225.279 111.181 220.001C103.399 214.724 97.2425 207.34 93.4167 198.693C89.5909 190.046 88.2497 180.485 89.5467 171.104C90.8436 161.723 94.7263 152.9 100.751 145.644C94.108 136.533 90.6882 125.43 91.041 114.118C91.3937 102.806 95.4984 91.9425 102.696 83.2726H102.715Z" fill="#18A0FB"/>
<path opacity="0.1" d="M190.868 117.299C190.531 128.61 186.426 139.475 179.218 148.135C184.775 155.76 188.098 164.812 188.806 174.256C189.513 183.699 187.578 193.154 183.221 201.538C178.864 209.923 172.261 216.899 164.167 221.669C156.072 226.44 146.813 228.812 137.448 228.514C128.083 228.217 118.989 225.262 111.207 219.988C103.425 214.714 97.2678 207.332 93.4399 198.688C89.6119 190.044 88.2675 180.485 89.5604 171.105C90.8532 161.725 94.7311 152.902 100.751 145.644C94.3489 136.851 191.044 111.637 190.868 117.299Z" fill="black"/>
</g>
<g opacity="0.2">
<path opacity="0.2" d="M381.127 231.518C381.127 231.841 381.094 232.154 381.06 232.482C378.419 231.425 375.828 230.291 373.286 229.08C371.928 228.898 370.665 228.276 369.687 227.307C368.948 226.927 368.204 226.536 367.47 226.146C367.636 225.793 367.824 225.45 368.033 225.12C369.463 222.836 371.627 221.41 374.02 221.487C376.413 221.564 378.481 223.125 379.764 225.486C380.741 227.339 381.211 229.421 381.127 231.518Z" fill="#3F3D56"/>
<path opacity="0.2" d="M381.518 219.526C381.47 221.627 380.87 223.678 379.778 225.467C378.348 227.741 376.184 229.172 373.791 229.095L373.314 229.061C371.957 228.878 370.694 228.256 369.715 227.288C369.054 226.651 368.496 225.913 368.061 225.101C367.105 223.237 366.637 221.156 366.702 219.058C366.767 216.959 367.363 214.913 368.433 213.113C369.863 210.829 372.032 209.398 374.42 209.475C376.808 209.552 378.887 211.113 380.164 213.474C381.14 215.334 381.607 217.423 381.518 219.526Z" fill="#3F3D56"/>
<path opacity="0.2" d="M381.9 207.548C382.07 202.13 378.888 197.632 374.794 197.501C370.699 197.371 367.243 201.657 367.073 207.074C366.904 212.492 370.086 216.99 374.18 217.121C378.275 217.252 381.731 212.966 381.9 207.548Z" fill="#3F3D56"/>
<path opacity="0.2" d="M382.271 195.557C382.44 190.14 379.258 185.642 375.164 185.511C371.07 185.38 367.613 189.666 367.444 195.084C367.275 200.502 370.456 205 374.551 205.13C378.645 205.261 382.102 200.975 382.271 195.557Z" fill="#3F3D56"/>
<path opacity="0.2" d="M382.646 183.567C382.816 178.149 379.634 173.651 375.539 173.521C371.445 173.39 367.988 177.676 367.819 183.094C367.65 188.511 370.832 193.009 374.926 193.14C379.02 193.271 382.477 188.985 382.646 183.567Z" fill="#3F3D56"/>
<path opacity="0.2" d="M350.014 100.396C349.041 99.0615 348.161 97.6592 347.383 96.1998L366.965 93.5884L345.891 93.0728C344.008 88.5642 343.055 83.7146 343.09 78.821C343.125 73.9273 344.148 69.0923 346.095 64.6118L373.891 80.3143L348.436 60.1116C351.005 55.9095 354.404 52.2881 358.42 49.4738C362.437 46.6595 366.984 44.7127 371.778 43.7552C376.573 42.7977 381.511 42.85 386.284 43.9089C391.058 44.9678 395.564 47.0104 399.521 49.9092C403.478 52.808 406.801 56.5006 409.282 60.7562C411.764 65.0119 413.35 69.7391 413.942 74.6424C414.534 79.5457 414.119 84.5198 412.723 89.2536C411.327 93.9875 408.98 98.3795 405.829 102.155C407.343 104.235 408.631 106.474 409.671 108.833L383.982 121.307L411.234 113.02C412.952 118.737 413.232 124.797 412.049 130.651C410.865 136.505 408.255 141.968 404.456 146.545C408.411 151.971 410.776 158.413 411.28 165.133C411.784 171.854 410.407 178.582 407.306 184.549C404.205 190.516 399.506 195.48 393.745 198.875C387.985 202.27 381.395 203.957 374.731 203.745C368.066 203.533 361.595 201.429 356.057 197.675C350.519 193.92 346.138 188.667 343.415 182.515C340.692 176.362 339.737 169.56 340.659 162.884C341.58 156.209 344.341 149.931 348.627 144.767C343.905 138.284 341.475 130.385 341.727 122.339C341.979 114.293 344.897 106.565 350.014 100.396Z" fill="#18A0FB"/>
<path opacity="0.1" d="M412.75 124.593C412.512 132.646 409.589 140.381 404.456 146.545C408.411 151.971 410.776 158.413 411.28 165.133C411.784 171.854 410.407 178.582 407.306 184.549C404.205 190.516 399.506 195.481 393.745 198.875C387.985 202.27 381.395 203.957 374.731 203.745C368.066 203.533 361.595 201.429 356.057 197.675C350.519 193.921 346.138 188.667 343.415 182.515C340.692 176.362 339.737 169.56 340.659 162.884C341.58 156.209 344.341 149.931 348.627 144.767C344.06 138.503 412.874 120.565 412.75 124.593Z" fill="black"/>
</g>
<g opacity="0.2">
<path opacity="0.2" d="M279.507 193.913C279.507 194.235 279.469 194.549 279.436 194.876C276.795 193.819 274.203 192.686 271.661 191.475C270.305 191.292 269.044 190.67 268.067 189.701C267.323 189.321 266.584 188.931 265.85 188.54C266.014 188.187 266.201 187.844 266.408 187.514C267.838 185.235 270.007 183.804 272.395 183.881C274.783 183.958 276.857 185.519 278.139 187.88C279.118 189.732 279.59 191.815 279.507 193.913Z" fill="#3F3D56"/>
<path opacity="0.2" d="M279.86 181.92C279.812 184.021 279.212 186.072 278.12 187.861C276.69 190.135 274.526 191.566 272.133 191.489C271.966 191.489 271.809 191.489 271.656 191.455C270.3 191.272 269.039 190.65 268.062 189.682C267.398 189.046 266.838 188.308 266.403 187.495C265.447 185.631 264.979 183.55 265.045 181.451C265.111 179.352 265.708 177.306 266.78 175.507C268.21 173.223 270.374 171.792 272.767 171.869C275.16 171.946 277.229 173.508 278.487 175.868C279.47 177.726 279.944 179.815 279.86 181.92Z" fill="#3F3D56"/>
<path opacity="0.2" d="M279.879 169.475C280.04 164.055 276.849 159.56 272.753 159.436C268.656 159.312 265.205 163.605 265.044 169.026C264.884 174.446 268.074 178.941 272.17 179.065C276.267 179.189 279.718 174.896 279.879 169.475Z" fill="#3F3D56"/>
<path opacity="0.2" d="M280.62 157.951C280.789 152.533 277.607 148.035 273.513 147.904C269.419 147.773 265.962 152.059 265.793 157.477C265.623 162.895 268.805 167.393 272.9 167.524C276.994 167.655 280.45 163.369 280.62 157.951Z" fill="#3F3D56"/>
<path opacity="0.2" d="M281 145.956C281.169 140.538 277.987 136.04 273.893 135.909C269.799 135.778 266.342 140.064 266.173 145.482C266.004 150.9 269.185 155.398 273.28 155.529C277.374 155.659 280.831 151.373 281 145.956Z" fill="#3F3D56"/>
<path opacity="0.2" d="M248.371 62.7713C247.399 61.4352 246.52 60.033 245.74 58.5746L265.322 55.9632L244.233 55.4477C242.35 50.939 241.397 46.0892 241.433 41.1953C241.469 36.3014 242.493 31.4664 244.443 26.9866L272.248 42.7084L246.798 22.5057C249.375 18.3214 252.776 14.718 256.791 11.9198C260.805 9.12158 265.346 7.1885 270.131 6.24087C274.917 5.29324 279.844 5.35135 284.606 6.41156C289.368 7.47178 293.864 9.51142 297.812 12.4035C301.761 15.2956 305.078 18.9783 307.558 23.2222C310.038 27.4662 311.626 32.1807 312.226 37.0721C312.825 41.9636 312.422 46.9274 311.041 51.6545C309.66 56.3817 307.332 60.771 304.2 64.5492C305.716 66.6293 307.005 68.8682 308.047 71.2272L282.368 83.7015L309.615 75.4142C311.333 81.1312 311.613 87.191 310.429 93.0449C309.246 98.8988 306.636 104.362 302.837 108.939C306.787 114.367 309.147 120.809 309.646 127.529C310.146 134.248 308.765 140.975 305.662 146.938C302.558 152.902 297.857 157.863 292.096 161.255C286.335 164.646 279.747 166.331 273.084 166.116C266.42 165.902 259.951 163.797 254.415 160.042C248.879 156.287 244.5 151.034 241.778 144.883C239.056 138.731 238.102 131.93 239.023 125.256C239.944 118.582 242.705 112.305 246.989 107.142C242.263 100.657 239.831 92.7552 240.082 84.7052C240.332 76.6552 243.252 68.9238 248.371 62.752V62.7713Z" fill="#18A0FB"/>
<path opacity="0.1" d="M311.107 86.9875C310.868 95.0403 307.945 102.776 302.812 108.939C306.767 114.367 309.13 120.809 309.632 127.53C310.134 134.251 308.755 140.979 305.652 146.945C302.55 152.912 297.849 157.875 292.087 161.268C286.325 164.661 279.735 166.346 273.07 166.131C266.405 165.917 259.934 163.811 254.397 160.054C248.861 156.298 244.482 151.042 241.761 144.889C239.04 138.735 238.087 131.932 239.012 125.257C239.936 118.581 242.7 112.304 246.988 107.142C242.417 100.902 311.231 82.9595 311.107 86.9875Z" fill="black"/>
</g>
<path d="M464.175 241.299V346.206C436.256 350.417 407.774 351.274 379.425 352.122C300.358 354.488 221.085 356.849 142.227 351.395C107.353 348.986 71.6157 344.765 41.0507 330.339V201.096C41.1651 111.96 40.6884 201.096 41.0507 111.69V79.606C41.0507 77.8042 41.7588 76.0762 43.0193 74.8022C44.2797 73.5281 45.9893 72.8124 47.7719 72.8124H457.454C459.236 72.8124 460.946 73.5281 462.206 74.8022C463.467 76.0762 464.175 77.8042 464.175 79.606V160.855C464.461 241.087 463.984 161.106 464.175 241.299Z" fill="#3F3D56"/>
<path opacity="0.3" d="M338.039 104.916H167.186C165.812 104.916 164.698 106.042 164.698 107.431V116.162C164.698 117.551 165.812 118.677 167.186 118.677H338.039C339.414 118.677 340.528 117.551 340.528 116.162V107.431C340.528 106.042 339.414 104.916 338.039 104.916Z" fill="#18A0FB"/>
<path d="M328.577 112.37H328.287L328.177 112.278C328.541 111.839 328.741 111.285 328.744 110.712C328.738 110.242 328.595 109.785 328.333 109.397C328.07 109.009 327.7 108.708 327.269 108.533C326.837 108.358 326.364 108.315 325.909 108.411C325.454 108.507 325.037 108.737 324.711 109.072C324.385 109.407 324.164 109.832 324.077 110.293C323.989 110.755 324.039 111.232 324.219 111.665C324.4 112.098 324.703 112.468 325.091 112.727C325.479 112.986 325.934 113.123 326.399 113.121C326.963 113.119 327.51 112.918 327.943 112.553L328.048 112.644V112.924L329.864 114.764L330.408 114.215L328.577 112.37ZM326.399 112.37C326.074 112.371 325.757 112.274 325.487 112.093C325.216 111.911 325.005 111.653 324.881 111.35C324.756 111.047 324.722 110.714 324.785 110.392C324.848 110.07 325.004 109.774 325.233 109.542C325.462 109.31 325.754 109.151 326.072 109.087C326.391 109.023 326.721 109.055 327.021 109.18C327.32 109.306 327.577 109.518 327.757 109.791C327.938 110.064 328.034 110.384 328.034 110.712C328.035 110.93 327.994 111.145 327.912 111.347C327.83 111.548 327.71 111.731 327.558 111.885C327.406 112.039 327.225 112.162 327.026 112.245C326.827 112.328 326.614 112.37 326.399 112.37Z" fill="#444053"/>
<path opacity="0.7" d="M120.895 237.633H109.255C107.938 237.633 106.871 238.711 106.871 240.042V240.957C106.871 242.288 107.938 243.366 109.255 243.366H120.895C122.212 243.366 123.279 242.288 123.279 240.957V240.042C123.279 238.711 122.212 237.633 120.895 237.633Z" fill="#3F3D56"/>
<path opacity="0.3" d="M130.01 251.967H109.255C107.938 251.967 106.871 253.045 106.871 254.376V255.291C106.871 256.622 107.938 257.7 109.255 257.7H130.01C131.326 257.7 132.393 256.622 132.393 255.291V254.376C132.393 253.045 131.326 251.967 130.01 251.967Z" fill="#18A0FB"/>
<path opacity="0.3" d="M155.536 244.802H109.255C107.938 244.802 106.871 245.881 106.871 247.211V248.127C106.871 249.457 107.938 250.536 109.255 250.536H155.536C156.852 250.536 157.919 249.457 157.919 248.127V247.211C157.919 245.881 156.852 244.802 155.536 244.802Z" fill="#18A0FB"/>
<path d="M79.0949 251.789C78.7351 251.785 78.3782 251.853 78.0445 251.988C77.7107 252.124 77.4068 252.325 77.15 252.58C76.8932 252.834 76.6886 253.138 76.5479 253.472C76.4072 253.807 76.3332 254.166 76.3301 254.53C76.3189 255.017 76.1198 255.481 75.7751 255.822C75.4305 256.163 74.9677 256.355 74.4853 256.356C74.9257 256.92 75.4851 257.376 76.1227 257.693C76.7602 258.01 77.4597 258.179 78.1701 258.187C78.6502 258.192 79.1267 258.102 79.5722 257.921C80.0177 257.74 80.4236 257.472 80.7666 257.132C81.1097 256.792 81.3832 256.388 81.5715 255.941C81.7599 255.495 81.8594 255.015 81.8644 254.53C81.8607 254.166 81.7861 253.807 81.6448 253.472C81.5036 253.137 81.2986 252.834 81.0414 252.579C80.7842 252.325 80.48 252.124 80.146 251.988C79.812 251.853 79.4548 251.785 79.0949 251.789ZM91.7413 243.231L90.5019 242.003C90.329 241.831 90.0961 241.735 89.8536 241.735C89.6111 241.735 89.3783 241.831 89.2053 242.003L80.9396 250.194L83.4756 252.709L91.7318 244.518C91.8176 244.435 91.8861 244.336 91.9331 244.225C91.9802 244.115 92.0049 243.997 92.0058 243.877C92.0067 243.757 91.9837 243.638 91.9383 243.527C91.8929 243.416 91.8259 243.316 91.7413 243.231Z" fill="#18A0FB"/>
<path opacity="0.7" d="M120.895 166.545H109.255C107.938 166.545 106.871 167.624 106.871 168.954V169.87C106.871 171.2 107.938 172.279 109.255 172.279H120.895C122.212 172.279 123.279 171.2 123.279 169.87V168.954C123.279 167.624 122.212 166.545 120.895 166.545Z" fill="#3F3D56"/>
<path opacity="0.3" d="M130.01 180.879H109.255C107.938 180.879 106.871 181.958 106.871 183.288V184.204C106.871 185.534 107.938 186.613 109.255 186.613H130.01C131.326 186.613 132.393 185.534 132.393 184.204V183.288C132.393 181.958 131.326 180.879 130.01 180.879Z" fill="#18A0FB"/>
<path opacity="0.3" d="M155.536 173.71H109.255C107.938 173.71 106.871 174.788 106.871 176.119V177.034C106.871 178.365 107.938 179.444 109.255 179.444H155.536C156.852 179.444 157.919 178.365 157.919 177.034V176.119C157.919 174.788 156.852 173.71 155.536 173.71Z" fill="#18A0FB"/>
<path d="M91.7794 182.2L84.5433 174.837C84.9024 173.891 84.9804 172.858 84.7679 171.867C84.5554 170.876 84.0615 169.97 83.3469 169.258C82.5883 168.498 81.618 167.989 80.5659 167.802C79.5138 167.614 78.4301 167.756 77.4598 168.208L80.8824 171.686L78.499 174.095L75.0097 170.636C74.5457 171.618 74.396 172.721 74.5814 173.793C74.7668 174.864 75.2781 175.851 76.0441 176.615C76.7393 177.34 77.6305 177.842 78.6063 178.058C79.5822 178.274 80.5993 178.195 81.5307 177.829L88.7525 185.196C88.8242 185.273 88.9107 185.334 89.0066 185.376C89.1025 185.418 89.2058 185.439 89.3102 185.439C89.4146 185.439 89.5179 185.418 89.6138 185.376C89.7097 185.334 89.7962 185.273 89.8679 185.196L91.6984 183.337C91.7871 183.275 91.861 183.194 91.9146 183.099C91.9681 183.004 91.9999 182.899 92.0077 182.79C92.0155 182.681 91.999 182.572 91.9595 182.471C91.92 182.37 91.8584 182.279 91.7794 182.204V182.2Z" fill="#18A0FB"/>
<path opacity="0.7" d="M257.589 237.633H245.949C244.632 237.633 243.565 238.711 243.565 240.042V240.957C243.565 242.288 244.632 243.366 245.949 243.366H257.589C258.906 243.366 259.973 242.288 259.973 240.957V240.042C259.973 238.711 258.906 237.633 257.589 237.633Z" fill="#3F3D56"/>
<path opacity="0.3" d="M266.704 251.967H245.949C244.632 251.967 243.565 253.045 243.565 254.376V255.291C243.565 256.622 244.632 257.7 245.949 257.7H266.704C268.02 257.7 269.087 256.622 269.087 255.291V254.376C269.087 253.045 268.02 251.967 266.704 251.967Z" fill="#18A0FB"/>
<path opacity="0.3" d="M292.23 244.802H245.949C244.632 244.802 243.565 245.881 243.565 247.211V248.127C243.565 249.457 244.632 250.536 245.949 250.536H292.23C293.546 250.536 294.614 249.457 294.614 248.127V247.211C294.614 245.881 293.546 244.802 292.23 244.802Z" fill="#18A0FB"/>
<path d="M219.655 253.436C218.936 253.849 218.124 254.067 217.298 254.067C216.471 254.067 215.659 253.849 214.94 253.436C213.096 254.01 211.966 255.889 211.546 257.551H223.044C222.629 255.889 221.504 254.01 219.655 253.436ZM217.3 244.585C216.481 244.585 215.679 244.831 214.998 245.291C214.317 245.752 213.786 246.406 213.473 247.171C213.159 247.936 213.077 248.779 213.238 249.591C213.398 250.403 213.793 251.149 214.373 251.735C214.952 252.32 215.691 252.718 216.495 252.879C217.299 253.04 218.132 252.957 218.889 252.639C219.645 252.322 220.292 251.784 220.747 251.095C221.201 250.406 221.443 249.596 221.442 248.768C221.441 247.658 221.004 246.594 220.227 245.81C219.451 245.026 218.398 244.585 217.3 244.585ZM217.3 251.957C216.678 251.945 216.073 251.75 215.559 251.396C215.045 251.041 214.645 250.543 214.407 249.962H220.194C219.955 250.543 219.555 251.041 219.041 251.396C218.527 251.75 217.922 251.945 217.3 251.957Z" fill="#18A0FB"/>
<path d="M225.685 251.206C225.081 251.55 224.41 251.758 223.719 251.816C223.028 251.873 222.332 251.778 221.681 251.538C221.387 252.051 221.018 252.516 220.584 252.916C221.55 253.362 222.363 254.088 222.92 255.002H229.074C228.884 254.127 228.471 253.316 227.877 252.65C227.283 251.984 226.527 251.487 225.685 251.206ZM223.33 242.35C222.635 242.349 221.95 242.526 221.34 242.863C220.729 243.199 220.212 243.686 219.836 244.277C220.462 244.644 221.004 245.139 221.427 245.732C221.85 246.325 222.144 247.001 222.291 247.717H226.224C225.983 248.296 225.582 248.792 225.068 249.144C224.555 249.496 223.951 249.69 223.33 249.702C222.991 249.701 222.656 249.639 222.339 249.519C222.283 249.859 222.197 250.193 222.081 250.517C222.485 250.648 222.906 250.713 223.33 250.709C224.429 250.709 225.482 250.268 226.259 249.483C227.036 248.698 227.473 247.633 227.473 246.522C227.473 245.412 227.036 244.347 226.259 243.562C225.482 242.776 224.429 242.335 223.33 242.335V242.35Z" fill="#18A0FB"/>
<path opacity="0.7" d="M120.895 290.951H109.255C107.938 290.951 106.871 292.029 106.871 293.36V294.275C106.871 295.606 107.938 296.684 109.255 296.684H120.895C122.212 296.684 123.279 295.606 123.279 294.275V293.36C123.279 292.029 122.212 290.951 120.895 290.951Z" fill="#3F3D56"/>
<path opacity="0.3" d="M130.01 305.285H109.255C107.938 305.285 106.871 306.363 106.871 307.694V308.609C106.871 309.94 107.938 311.018 109.255 311.018H130.01C131.326 311.018 132.393 309.94 132.393 308.609V307.694C132.393 306.363 131.326 305.285 130.01 305.285Z" fill="#18A0FB"/>
<path opacity="0.3" d="M155.536 298.12H109.255C107.938 298.12 106.871 299.199 106.871 300.529V301.445C106.871 302.775 107.938 303.854 109.255 303.854H155.536C156.852 303.854 157.919 302.775 157.919 301.445V300.529C157.919 299.199 156.852 298.12 155.536 298.12Z" fill="#18A0FB"/>
<path d="M84.8151 292.762H80.134C79.9287 292.76 79.7249 292.798 79.5342 292.875C79.3436 292.952 79.1698 293.067 79.0228 293.212C78.8759 293.357 78.7586 293.529 78.6777 293.72C78.5968 293.911 78.5539 294.116 78.5514 294.323V294.661H78.2559C78.0506 294.658 77.8467 294.697 77.6561 294.774C77.4654 294.851 77.2916 294.965 77.1447 295.11C76.9977 295.255 76.8805 295.428 76.7996 295.619C76.7187 295.809 76.6758 296.014 76.6733 296.222V307.607C76.6758 308.031 76.8433 308.436 77.1396 308.735C77.4358 309.035 77.8369 309.204 78.2559 309.207H86.3977C86.6028 309.204 86.8054 309.161 86.9939 309.079C87.1823 308.997 87.353 308.879 87.496 308.73C87.6391 308.581 87.7517 308.406 87.8274 308.213C87.9031 308.02 87.9405 307.814 87.9374 307.607V307.308H88.2758C88.4809 307.306 88.6835 307.263 88.872 307.181C89.0605 307.099 89.2311 306.98 89.3742 306.832C89.5172 306.683 89.6298 306.507 89.7055 306.315C89.7813 306.122 89.8186 305.916 89.8155 305.709V297.821L84.8151 292.762ZM84.8151 294.526L88.0756 297.821H84.8151V294.526ZM86.6932 307.607C86.6972 307.691 86.6685 307.774 86.6133 307.837C86.5581 307.9 86.4807 307.938 86.3977 307.944H78.2559C78.1694 307.94 78.0877 307.903 78.0269 307.84C77.966 307.778 77.9304 307.695 77.927 307.607V296.222C77.9331 296.139 77.9707 296.061 78.032 296.006C78.0933 295.95 78.1735 295.92 78.2559 295.923H78.5514V306.041C78.5514 306.918 78.9614 307.323 79.8242 307.323H86.6932V307.607ZM88.5666 305.709C88.5718 305.792 88.5442 305.875 88.4898 305.938C88.4353 306.001 88.3584 306.04 88.2758 306.046H80.134C80.0475 306.041 79.9658 306.004 79.905 305.942C79.8442 305.879 79.8085 305.796 79.8051 305.709V294.323C79.8112 294.24 79.8489 294.163 79.9101 294.107C79.9714 294.052 80.0517 294.022 80.134 294.025H83.5614V299.089H88.5666V305.709Z" fill="#18A0FB"/>
<path opacity="0.7" d="M257.589 166.545H245.949C244.632 166.545 243.565 167.624 243.565 168.954V169.87C243.565 171.2 244.632 172.279 245.949 172.279H257.589C258.906 172.279 259.973 171.2 259.973 169.87V168.954C259.973 167.624 258.906 166.545 257.589 166.545Z" fill="#3F3D56"/>
<path opacity="0.3" d="M266.704 180.879H245.949C244.632 180.879 243.565 181.958 243.565 183.288V184.204C243.565 185.534 244.632 186.613 245.949 186.613H266.704C268.02 186.613 269.087 185.534 269.087 184.204V183.288C269.087 181.958 268.02 180.879 266.704 180.879Z" fill="#18A0FB"/>
<path opacity="0.3" d="M292.23 173.71H245.949C244.632 173.71 243.565 174.788 243.565 176.119V177.034C243.565 178.365 244.632 179.444 245.949 179.444H292.23C293.546 179.444 294.614 178.365 294.614 177.034V176.119C294.614 174.788 293.546 173.71 292.23 173.71Z" fill="#18A0FB"/>
<path d="M218.644 170.26H213.22C212.777 170.261 212.352 170.44 212.04 170.757C211.727 171.074 211.551 171.504 211.551 171.951V181.226C211.551 181.674 211.727 182.102 212.04 182.419C212.353 182.735 212.777 182.913 213.22 182.913H227.406C227.848 182.913 228.273 182.735 228.585 182.419C228.898 182.102 229.074 181.674 229.074 181.226V173.835C229.073 173.388 228.897 172.96 228.584 172.644C228.271 172.328 227.848 172.15 227.406 172.149H220.313L218.644 170.25V170.26Z" fill="#18A0FB"/>
<path opacity="0.7" d="M392.582 237.633H380.941C379.625 237.633 378.558 238.711 378.558 240.042V240.957C378.558 242.288 379.625 243.366 380.941 243.366H392.582C393.898 243.366 394.965 242.288 394.965 240.957V240.042C394.965 238.711 393.898 237.633 392.582 237.633Z" fill="#3F3D56"/>
<path opacity="0.3" d="M401.696 251.967H380.941C379.625 251.967 378.558 253.045 378.558 254.376V255.291C378.558 256.622 379.625 257.7 380.941 257.7H401.696C403.012 257.7 404.079 256.622 404.079 255.291V254.376C404.079 253.045 403.012 251.967 401.696 251.967Z" fill="#18A0FB"/>
<path opacity="0.3" d="M427.222 244.802H380.941C379.625 244.802 378.558 245.881 378.558 247.211V248.127C378.558 249.457 379.625 250.536 380.941 250.536H427.222C428.539 250.536 429.606 249.457 429.606 248.127V247.211C429.606 245.881 428.539 244.802 427.222 244.802Z" fill="#18A0FB"/>
<path d="M364.324 245.38L361.097 245.226L360.906 243.101C360.895 242.994 360.864 242.889 360.813 242.794C360.762 242.698 360.693 242.614 360.609 242.546C360.526 242.478 360.43 242.427 360.327 242.397C360.224 242.366 360.116 242.357 360.01 242.369L348.441 243.333C348.334 243.337 348.23 243.364 348.134 243.41C348.038 243.456 347.952 243.522 347.882 243.602C347.811 243.682 347.757 243.776 347.723 243.878C347.689 243.98 347.675 244.088 347.683 244.195L348.507 253.518C348.533 253.733 348.641 253.93 348.809 254.064C348.977 254.199 349.191 254.261 349.404 254.236L349.99 254.193L349.899 256.004C349.896 256.124 349.915 256.242 349.957 256.354C349.999 256.465 350.062 256.567 350.144 256.653C350.225 256.74 350.322 256.809 350.43 256.858C350.538 256.906 350.654 256.932 350.772 256.934L363.685 257.551C363.921 257.567 364.154 257.488 364.333 257.331C364.512 257.174 364.621 256.951 364.639 256.713L365.182 246.305C365.186 246.188 365.167 246.07 365.126 245.96C365.084 245.85 365.022 245.749 364.943 245.663C364.863 245.577 364.767 245.508 364.661 245.459C364.555 245.411 364.44 245.384 364.324 245.38ZM350.443 245.592L350.166 250.921L349.48 251.885L348.851 244.845V244.802C348.863 244.707 348.906 244.619 348.973 244.552C349.041 244.485 349.128 244.442 349.223 244.431L359.433 243.588C359.528 243.579 359.622 243.605 359.699 243.662C359.775 243.719 359.828 243.802 359.848 243.896L359.948 245.11L351.368 244.696C351.249 244.694 351.13 244.715 351.02 244.758C350.909 244.802 350.807 244.867 350.722 244.951C350.636 245.034 350.567 245.133 350.519 245.243C350.471 245.354 350.445 245.472 350.443 245.592ZM363.504 254.959L360.167 251.022L358.704 252.381L356.001 249.187L351.201 254.352L351.611 246.484C351.634 246.376 351.695 246.28 351.782 246.214C351.87 246.149 351.979 246.118 352.087 246.127L363.48 246.686C363.585 246.688 363.686 246.731 363.761 246.805C363.836 246.879 363.881 246.98 363.885 247.086L363.504 254.959Z" fill="#18A0FB"/>
<path d="M361.445 249.962C361.693 249.963 361.936 249.89 362.143 249.751C362.349 249.613 362.511 249.415 362.606 249.184C362.702 248.952 362.727 248.697 362.68 248.451C362.632 248.205 362.513 247.979 362.338 247.801C362.163 247.623 361.939 247.502 361.696 247.453C361.452 247.404 361.2 247.428 360.971 247.524C360.741 247.62 360.545 247.782 360.407 247.991C360.269 248.199 360.196 248.444 360.196 248.695C360.197 249.03 360.329 249.351 360.563 249.588C360.796 249.825 361.113 249.96 361.445 249.962Z" fill="#18A0FB"/>
<path opacity="0.7" d="M393.716 166.545H382.076C380.759 166.545 379.692 167.624 379.692 168.954V169.87C379.692 171.2 380.759 172.279 382.076 172.279H393.716C395.033 172.279 396.1 171.2 396.1 169.87V168.954C396.1 167.624 395.033 166.545 393.716 166.545Z" fill="#3F3D56"/>
<path opacity="0.3" d="M402.831 180.879H382.076C380.759 180.879 379.692 181.958 379.692 183.288V184.204C379.692 185.534 380.759 186.613 382.076 186.613H402.831C404.147 186.613 405.214 185.534 405.214 184.204V183.288C405.214 181.958 404.147 180.879 402.831 180.879Z" fill="#18A0FB"/>
<path opacity="0.3" d="M428.357 173.71H382.076C380.759 173.71 379.692 174.788 379.692 176.119V177.034C379.692 178.365 380.759 179.444 382.076 179.444H428.357C429.673 179.444 430.74 178.365 430.74 177.034V176.119C430.74 174.788 429.673 173.71 428.357 173.71Z" fill="#18A0FB"/>
<path d="M364.148 174.36C365.53 174.36 366.65 173.228 366.65 171.831C366.65 170.434 365.53 169.301 364.148 169.301C362.765 169.301 361.645 170.434 361.645 171.831C361.645 173.228 362.765 174.36 364.148 174.36Z" fill="#18A0FB"/>
<path d="M362.227 174.813L357.259 178.157L350.376 173.522V171.831L357.259 176.471L361.216 173.806C360.843 173.236 360.64 172.57 360.631 171.886C360.623 171.203 360.809 170.531 361.168 169.952H350.171C349.728 169.953 349.303 170.132 348.989 170.448C348.676 170.765 348.499 171.195 348.498 171.643V182.185C348.499 182.633 348.676 183.063 348.989 183.38C349.303 183.696 349.728 183.875 350.171 183.876H364.357C364.8 183.875 365.225 183.696 365.537 183.379C365.85 183.062 366.026 182.633 366.026 182.185V174.861C365.455 175.228 364.791 175.421 364.115 175.416C363.438 175.41 362.778 175.208 362.212 174.833L362.227 174.813Z" fill="#18A0FB"/>
<path d="M243.584 361.86C250.45 361.86 256.016 360.779 256.016 359.446C256.016 358.113 250.45 357.032 243.584 357.032C236.718 357.032 231.152 358.113 231.152 359.446C231.152 360.779 236.718 361.86 243.584 361.86Z" fill="#18A0FB"/>
<path d="M243.379 360.333C244.18 360.333 244.829 359.476 244.829 358.42C244.829 357.363 244.18 356.507 243.379 356.507C242.579 356.507 241.93 357.363 241.93 358.42C241.93 359.476 242.579 360.333 243.379 360.333Z" fill="#3F3D56"/>
<path d="M243.379 357.991C244.18 357.991 244.829 357.135 244.829 356.078C244.829 355.022 244.18 354.165 243.379 354.165C242.579 354.165 241.93 355.022 241.93 356.078C241.93 357.135 242.579 357.991 243.379 357.991Z" fill="#3F3D56"/>
<path d="M243.379 355.649C244.18 355.649 244.829 354.793 244.829 353.736C244.829 352.68 244.18 351.824 243.379 351.824C242.579 351.824 241.93 352.68 241.93 353.736C241.93 354.793 242.579 355.649 243.379 355.649Z" fill="#3F3D56"/>
<path d="M243.379 353.308C244.18 353.308 244.829 352.451 244.829 351.395C244.829 350.338 244.18 349.482 243.379 349.482C242.579 349.482 241.93 350.338 241.93 351.395C241.93 352.451 242.579 353.308 243.379 353.308Z" fill="#3F3D56"/>
<path d="M243.379 350.971C244.18 350.971 244.829 350.114 244.829 349.058C244.829 348.002 244.18 347.145 243.379 347.145C242.579 347.145 241.93 348.002 241.93 349.058C241.93 350.114 242.579 350.971 243.379 350.971Z" fill="#3F3D56"/>
<path d="M243.379 348.629C244.18 348.629 244.829 347.773 244.829 346.716C244.829 345.66 244.18 344.804 243.379 344.804C242.579 344.804 241.93 345.66 241.93 346.716C241.93 347.773 242.579 348.629 243.379 348.629Z" fill="#3F3D56"/>
<path d="M243.379 346.288C244.18 346.288 244.829 345.431 244.829 344.375C244.829 343.318 244.18 342.462 243.379 342.462C242.579 342.462 241.93 343.318 241.93 344.375C241.93 345.431 242.579 346.288 243.379 346.288Z" fill="#3F3D56"/>
<path d="M248.795 328.359C248.994 328.105 249.174 327.836 249.333 327.554L245.52 326.923L249.629 326.957C250.023 326.089 250.238 325.15 250.261 324.196C250.284 323.241 250.114 322.292 249.762 321.406L244.247 324.297L249.333 320.515C248.858 319.68 248.217 318.953 247.451 318.379C246.685 317.806 245.81 317.398 244.881 317.182C243.952 316.966 242.989 316.946 242.052 317.123C241.115 317.3 240.224 317.671 239.435 318.211C238.646 318.752 237.976 319.452 237.467 320.267C236.957 321.081 236.62 321.993 236.475 322.945C236.33 323.898 236.382 324.87 236.626 325.802C236.869 326.733 237.301 327.604 237.893 328.359C237.586 328.756 237.321 329.184 237.102 329.636L242.04 332.228L236.796 330.445C236.426 331.549 236.334 332.728 236.529 333.877C236.724 335.025 237.199 336.106 237.912 337.022C237.108 338.056 236.608 339.297 236.469 340.604C236.33 341.911 236.558 343.231 237.126 344.414C237.695 345.596 238.581 346.593 239.683 347.291C240.785 347.988 242.06 348.358 243.36 348.358C244.661 348.358 245.935 347.988 247.038 347.291C248.14 346.593 249.026 345.596 249.595 344.414C250.163 343.231 250.391 341.911 250.252 340.604C250.113 339.297 249.613 338.056 248.809 337.022C249.772 335.786 250.295 334.259 250.295 332.686C250.295 331.113 249.772 329.585 248.809 328.349L248.795 328.359Z" fill="#18A0FB"/>
<path opacity="0.1" d="M236.415 332.691C236.41 334.264 236.933 335.792 237.898 337.027C237.094 338.06 236.594 339.302 236.455 340.609C236.316 341.916 236.544 343.236 237.112 344.418C237.68 345.601 238.566 346.598 239.669 347.295C240.771 347.993 242.045 348.363 243.346 348.363C244.647 348.363 245.921 347.993 247.023 347.295C248.126 346.598 249.012 345.601 249.58 344.418C250.149 343.236 250.376 341.916 250.237 340.609C250.098 339.302 249.598 338.06 248.795 337.027C249.724 335.832 236.415 331.905 236.415 332.691Z" fill="black"/>
<path d="M359.114 188.02C358.91 187.604 358.75 187.168 358.637 186.719C358.589 186.203 358.79 185.524 358.337 185.274C358.084 185.134 357.731 185.24 357.507 185.057C357.369 184.894 357.284 184.692 357.264 184.479C357.153 184.074 356.918 183.717 356.592 183.457C356.266 183.197 355.867 183.048 355.453 183.033C355.929 181.727 357.684 181.409 358.456 180.258C358.842 179.684 358.718 178.629 358.036 178.624C357.871 178.631 357.709 178.672 357.56 178.745L355.019 179.805C354.529 179.999 354.052 180.222 353.589 180.475C352.192 181.279 351.148 182.585 350.209 183.91C349.321 185.081 348.612 186.38 348.107 187.765C347.823 188.617 347.672 189.51 347.659 190.41C347.659 190.501 347.659 190.593 347.659 190.68C347.244 190.752 346.906 190.935 346.472 191.022L345.485 193.657C345.355 194.098 345.136 194.506 344.842 194.857C344.624 195.059 344.391 195.244 344.146 195.411C343.645 195.843 343.257 196.393 343.015 197.012C342.773 197.631 342.685 198.301 342.759 198.962C341.866 199.316 341.14 200 340.728 200.875C340.315 201.75 340.247 202.75 340.537 203.674C339.797 203.836 339.11 204.187 338.542 204.693C337.974 205.199 337.543 205.843 337.291 206.565C337.223 206.897 337.077 207.207 336.867 207.471C336.544 207.722 336.143 207.846 335.737 207.823C334.622 207.895 333.649 208.786 332.643 208.304C331.498 207.762 330.217 207.58 328.968 207.784C328.711 207.846 328.446 207.871 328.182 207.856C327.956 207.817 327.739 207.74 327.538 207.63C327.085 207.359 326.593 207.162 326.08 207.047C325.822 206.991 325.554 207.013 325.309 207.109C325.063 207.204 324.851 207.371 324.697 207.587C324.344 207.196 324.135 206.69 323.815 206.271C323.672 206.048 323.471 205.87 323.234 205.755C322.996 205.64 322.733 205.594 322.471 205.621C322.805 205.317 322.471 204.71 322.028 204.604C321.581 204.565 321.131 204.581 320.688 204.652C319.525 204.652 318.629 203.573 317.499 203.289C316.46 203.033 315.073 203.342 314.539 202.397C314.372 202.094 314.324 201.699 314.062 201.472C314.003 201.217 313.887 200.978 313.724 200.774C313.295 200.292 312.575 200.215 311.932 200.234C311.224 200.254 310.522 200.376 309.848 200.595C309.848 200.513 309.805 200.422 309.777 200.326C309.369 199.125 308.551 198.11 307.47 197.464C306.631 196.963 305.721 196.596 304.772 196.375C304.772 196.288 304.772 196.206 304.772 196.119C304.756 194.903 304.943 193.693 305.325 192.539C305.363 192.414 305.41 192.289 305.453 192.164C307.618 191.592 309.595 190.452 311.182 188.858C312.77 187.265 313.912 185.275 314.493 183.091C315.074 180.907 315.073 178.607 314.49 176.424C313.907 174.24 312.763 172.252 311.174 170.66C311.17 170.4 311.137 170.141 311.073 169.889C310.934 169.336 310.674 168.822 310.311 168.386C309.729 167.075 308.824 166.497 307.665 165.948C307.331 165.789 306.979 165.635 306.607 165.466C304.762 164.628 302.979 163.394 300.887 163.399C298.98 163.399 297.14 164.464 295.252 164.425H295.109H294.971H294.799C294.27 164.363 293.636 164.237 293.288 164.647C293.176 164.809 293.086 164.986 293.021 165.172C292.994 165.234 292.963 165.294 292.926 165.35C292.856 165.469 292.775 165.58 292.683 165.683C292.073 166.357 291.048 166.646 290.204 167.099C288.297 168.087 287.049 170.101 286.553 172.211C286.057 174.322 286.229 176.548 286.6 178.687C286.791 179.757 287.201 180.971 287.954 181.645C287.954 181.645 281.581 186.228 282.744 186.878C283.378 187.235 286.019 185.543 288.293 183.929C288.317 184.026 288.336 184.127 288.364 184.223C288.635 185.252 288.983 186.259 289.403 187.235C289.88 188.386 290.566 189.644 291.753 189.976C292.015 190.05 292.287 190.081 292.559 190.068H292.769C292.828 191.831 292.643 193.593 292.221 195.305C291.529 195.265 290.844 195.456 290.271 195.849C290.054 196.066 289.779 196.213 289.48 196.273C289.17 196.236 288.883 196.093 288.665 195.869C287.81 195.246 286.77 194.937 285.717 194.993C284.665 195.049 283.663 195.467 282.878 196.177C280.57 198.379 280.833 202.677 278.111 204.344C277.367 204.802 276.414 205.047 275.975 205.813C275.87 206.058 275.747 206.295 275.608 206.522C275.428 206.727 275.207 206.891 274.96 207.004C274.174 207.359 273.427 207.795 272.729 208.304C272.38 208.563 272.087 208.89 271.866 209.266C271.646 209.642 271.503 210.059 271.447 210.492C271.436 211.126 271.57 211.754 271.838 212.328C272.244 213.336 272.741 214.304 273.325 215.219C273.008 215.633 272.801 216.122 272.724 216.64C272.534 217.994 273.172 219.328 273.244 220.697C273.306 221.892 272.929 223.058 272.719 224.233C271.88 228.83 273.487 233.484 275.103 237.85C275.415 238.559 275.608 239.316 275.675 240.09C275.718 241.535 274.912 242.822 274.688 244.229C274.211 247.187 276.371 249.972 276.418 252.964C276.418 254.347 276.009 255.749 276.352 257.084C276.576 257.975 277.124 258.741 277.515 259.575C278.201 261.049 278.387 262.721 279.045 264.21C279.831 265.83 280.996 267.232 282.439 268.296C283.264 270.941 282.091 274.135 282.439 276.968C282.887 276.788 283.34 276.628 283.798 276.487C283.513 280.697 284.565 284.89 286.801 288.455C287.54 289.621 288.407 290.71 288.965 291.977C289.327 292.88 289.609 293.813 289.809 294.767C290.606 298.13 291.401 301.49 292.192 304.846C292.84 307.569 293.493 310.339 293.298 313.134C293.164 315.061 292.678 317.263 293.86 318.805C294.145 319.098 294.384 319.432 294.571 319.797C294.685 320.226 294.685 320.679 294.571 321.108C293.993 324.357 293.598 327.637 293.388 330.932C293.122 331.293 292.855 331.66 292.611 332.021C290.652 334.912 289.708 338.386 288.946 341.811C287.54 348.542 286.717 355.384 286.486 362.26C285.505 363.16 284.66 364.2 283.979 365.348C282.954 367.276 282.82 369.54 282.711 371.728C282.667 372.082 282.706 372.442 282.825 372.778C283.086 373.156 283.461 373.44 283.893 373.587L284.484 373.872C284.355 374.353 284.241 374.835 284.141 375.341C283.388 374.484 282.048 373.125 281.819 374.117C281.066 377.438 280.657 380.829 280.599 384.236C280.572 384.366 280.576 384.501 280.611 384.63C280.645 384.759 280.709 384.878 280.797 384.977C280.885 385.076 280.995 385.154 281.118 385.202C281.241 385.251 281.373 385.27 281.505 385.257C284.779 385.843 288.099 386.13 291.425 386.115C294.118 386.115 296.806 385.893 299.49 385.686L302.24 385.474C305.069 385.321 307.884 384.968 310.664 384.419C311.879 384.149 313.133 383.768 314.048 382.906C314.963 382.043 315.411 380.569 314.782 379.475C314.015 378.155 312.222 378.059 310.725 377.847C309.242 377.636 307.804 377.174 306.473 376.478C306.173 376.324 305.882 376.151 305.592 375.996C305.668 375.996 305.749 375.958 305.82 375.929C307.107 375.491 308.132 374.484 309.343 373.881C310.773 373.183 312.351 373.024 313.905 372.826C315.459 372.629 317.061 372.344 318.352 371.448C319.563 370.61 320.421 369.082 320.14 367.647C320.121 367.545 320.095 367.446 320.064 367.348C319.587 365.792 317.919 364.939 316.365 364.553C314.811 364.168 313.123 363.937 311.865 362.925L311.679 362.775C311.574 362.684 311.464 362.597 311.35 362.506C311.627 362.032 311.755 361.484 311.717 360.935C311.65 360.072 311.154 359.311 310.816 358.526C310.153 356.96 310.101 355.211 309.92 353.52C309.472 349.265 308.18 345.16 307.208 340.992C307.098 340.511 306.993 340.029 306.888 339.547C307.837 337.555 308.999 335.675 310.354 333.939C311.904 331.981 313.039 329.723 313.69 327.304C313.891 326.562 314.038 325.81 314.191 325.054C315.913 316.352 317.54 307.636 319.072 298.906C319.326 297.662 319.471 296.398 319.506 295.128C319.907 293.977 320.124 292.768 320.15 291.548C320.598 289.78 321.05 287.925 320.683 286.769C320.426 285.949 320.297 283.15 320.154 280.466C320.195 279.027 320.109 277.587 319.897 276.164C319.854 275.918 319.806 275.682 319.754 275.436C319.725 275.292 319.697 275.171 319.668 275.075C319.467 274.268 319.186 273.483 318.829 272.733C318.647 272.285 318.437 271.849 318.2 271.427C318.058 271.178 317.899 270.94 317.723 270.714C318.716 270.757 319.705 270.85 320.688 270.994C320.927 271.028 321.222 271.047 321.37 270.849C321.431 270.736 321.461 270.608 321.456 270.478C321.502 269.341 321.234 268.214 320.683 267.221C320.302 266.537 319.773 265.872 319.787 265.087C319.813 264.721 319.902 264.362 320.049 264.027L321.37 260.442C322.49 257.411 321.956 253.899 322.538 250.719C322.991 248.234 323.281 245.721 323.405 243.198C323.515 241.044 323.448 238.707 322.166 236.982C321.796 236.566 321.476 236.106 321.213 235.614C321.026 235.091 320.948 234.535 320.984 233.981C320.961 230.605 321.028 227.232 321.184 223.862C326.797 223.703 332.387 223.058 337.892 221.935C338.542 221.823 339.18 221.648 339.798 221.415C340.479 221.085 341.119 220.676 341.705 220.196C343.579 218.827 345.481 217.435 346.906 215.594C348.599 213.362 349.663 210.708 349.985 207.914C351.339 206.647 352.059 204.845 352.736 203.096C353.07 202.357 353.283 201.568 353.365 200.759C353.398 199.93 352.86 199.063 353.012 198.249C353.272 196.846 353.973 195.566 355.009 194.597C355.23 194.438 355.397 194.214 355.486 193.956C355.517 193.741 355.478 193.521 355.377 193.33L355.334 193.257C355.467 193.175 355.591 193.089 355.72 193.002C356.163 192.684 356.587 192.332 357.002 191.99C357.636 191.507 358.197 190.932 358.666 190.284C358.897 189.962 359.057 189.592 359.134 189.202C359.212 188.811 359.205 188.408 359.114 188.02ZM297.95 372.696C297.836 372.696 297.722 372.696 297.612 372.725C297.194 372.785 296.787 372.903 296.401 373.077L296.311 373.125C296.835 371.978 297.331 370.812 297.779 369.627C297.831 369.487 297.879 369.347 297.931 369.203L297.874 369.993C297.775 370.893 297.801 371.803 297.95 372.696Z" fill="url(#paint0_linear)"/>
<path d="M304.772 197.112C304.819 198.981 305.449 200.793 305.544 202.662C300.095 202.937 294.714 200.253 289.337 201.082C290.848 200.094 291.653 198.316 292.13 196.567C292.734 194.307 292.913 191.952 292.659 189.624C292.645 189.496 292.622 189.369 292.592 189.244C292.392 188.328 291.873 187.032 292.011 186.314C292.197 185.351 293.083 185.548 293.884 185.601C296.324 185.797 298.752 186.118 301.158 186.565C301.788 186.676 307.894 188.217 307.989 188.058C306.916 189.794 306.029 191.64 305.344 193.566C304.958 194.707 304.764 195.906 304.772 197.112Z" fill="#EE8E9E"/>
<path d="M358.661 191.33C358.193 191.976 357.632 192.548 356.997 193.026C356.583 193.368 356.158 193.72 355.715 194.033C354.924 194.652 353.981 195.04 352.988 195.156C351.692 195.242 348.932 194.471 348.126 193.349C347.781 192.784 347.615 192.127 347.649 191.465C347.663 190.57 347.814 189.682 348.098 188.834C348.602 187.45 349.311 186.15 350.2 184.98C351.153 183.659 352.183 182.363 353.579 181.564C354.042 181.311 354.52 181.088 355.009 180.894L357.55 179.843C357.699 179.769 357.861 179.726 358.027 179.718C358.709 179.718 358.832 180.778 358.446 181.347C357.674 182.493 355.934 182.792 355.443 184.108C355.855 184.121 356.252 184.265 356.578 184.521C356.903 184.776 357.14 185.129 357.255 185.529C357.274 185.741 357.359 185.942 357.498 186.102C357.722 186.281 358.075 186.179 358.327 186.319C358.78 186.56 358.58 187.239 358.627 187.765C358.741 188.211 358.9 188.644 359.104 189.056C359.199 189.445 359.209 189.85 359.132 190.243C359.055 190.636 358.895 191.007 358.661 191.33Z" fill="#EE8E9E"/>
<path d="M283.512 378.926C283.931 378.502 284.617 378.574 285.204 378.666C288.35 379.167 291.529 379.427 294.714 379.441C295.114 377.476 293.956 375.587 293.584 373.592C293.53 373.081 293.402 372.581 293.203 372.108C292.754 371.241 291.744 370.841 290.795 370.663C289.084 370.297 286.405 369.656 285.447 371.405C284.298 373.481 283.931 376.584 283.512 378.926Z" fill="#65617D"/>
<path d="M318.352 371.491C317.061 372.383 315.459 372.657 313.905 372.86C312.351 373.062 310.754 373.216 309.343 373.915C308.132 374.522 307.107 375.515 305.82 375.948C304.626 376.281 303.368 376.301 302.164 376.006C300.734 375.731 299.18 375.201 298.403 373.939C297.707 372.821 297.779 371.4 297.874 370.085C297.988 368.596 298.098 367.097 298.203 365.604C298.198 365.225 298.294 364.853 298.479 364.524C299.523 362.983 302.064 365.165 303.423 365.165C305.577 365.165 307.889 363.98 309.438 362.539C309.577 362.395 309.738 362.275 309.915 362.183C310.53 361.903 311.145 362.419 311.688 362.867L311.874 363.016C313.133 364.023 314.82 364.23 316.374 364.64C317.928 365.05 319.592 365.869 320.073 367.42C320.105 367.516 320.131 367.614 320.15 367.714C320.421 369.135 319.549 370.653 318.352 371.491Z" fill="#3F3D56"/>
<path d="M318.352 371.491C317.061 372.383 315.459 372.657 313.905 372.86C312.351 373.062 310.754 373.216 309.343 373.915C308.132 374.522 307.107 375.515 305.82 375.948C304.626 376.281 303.368 376.301 302.164 376.006C300.734 375.731 299.18 375.201 298.403 373.939C297.707 372.821 297.779 371.4 297.874 370.085C297.988 368.596 298.098 367.097 298.203 365.604C298.198 365.225 298.294 364.853 298.479 364.524C299.523 362.983 302.064 365.165 303.423 365.165C305.577 365.165 307.889 363.98 309.438 362.539C309.577 362.395 309.738 362.275 309.915 362.183C310.53 361.903 311.145 362.419 311.688 362.867L311.874 363.016C313.133 364.023 314.82 364.23 316.374 364.64C317.928 365.05 319.592 365.869 320.073 367.42C320.105 367.516 320.131 367.614 320.15 367.714C320.421 369.135 319.549 370.653 318.352 371.491Z" fill="#434175"/>
<path d="M318.352 371.993C317.061 372.884 315.459 373.163 313.905 373.366C312.351 373.568 310.754 373.717 309.343 374.416C308.132 375.023 307.107 376.016 305.82 376.449C304.626 376.782 303.368 376.802 302.164 376.507C300.626 376.181 299.276 375.259 298.403 373.939C297.707 372.821 297.779 371.4 297.874 370.085C297.988 368.596 298.098 367.097 298.203 365.604C298.198 365.225 298.294 364.853 298.479 364.524C299.523 362.983 302.064 365.165 303.423 365.165C305.577 365.165 307.889 363.98 309.438 362.539C309.577 362.395 309.738 362.275 309.915 362.183C310.53 361.903 311.145 362.419 311.688 362.867C311.332 363.986 310.823 365.05 310.177 366.028C309.655 366.856 308.956 367.555 308.131 368.073C307.306 368.592 306.376 368.917 305.41 369.025C304.457 369.097 303.461 368.904 302.55 369.155C301.64 369.405 300.753 370.369 301.082 371.284C301.411 372.2 302.541 372.368 303.466 372.421C304.776 372.574 306.103 372.479 307.379 372.142C308.142 371.887 308.843 371.463 309.581 371.149C312.737 369.829 316.732 370.566 319.334 368.331C319.583 368.104 319.849 367.897 320.13 367.714C320.822 369.155 319.549 371.178 318.352 371.993Z" fill="#E8EAF2"/>
<path opacity="0.05" d="M318.352 371.993C317.061 372.884 315.459 373.163 313.905 373.366C312.351 373.568 310.754 373.717 309.343 374.416C308.132 375.023 307.107 376.016 305.82 376.449C304.626 376.782 303.368 376.802 302.164 376.507C300.626 376.181 299.276 375.259 298.403 373.939C297.707 372.821 297.779 371.4 297.874 370.085C297.988 368.596 298.098 367.097 298.203 365.604C298.198 365.225 298.294 364.853 298.479 364.524C299.523 362.983 302.064 365.165 303.423 365.165C305.577 365.165 307.889 363.98 309.438 362.539C309.577 362.395 309.738 362.275 309.915 362.183C310.53 361.903 311.145 362.419 311.688 362.867C311.332 363.986 310.823 365.05 310.177 366.028C309.655 366.856 308.956 367.555 308.131 368.073C307.306 368.592 306.376 368.917 305.41 369.025C304.457 369.097 303.461 368.904 302.55 369.155C301.64 369.405 300.753 370.369 301.082 371.284C301.411 372.2 302.541 372.368 303.466 372.421C304.776 372.574 306.103 372.479 307.379 372.142C308.142 371.887 308.843 371.463 309.581 371.149C312.737 369.829 316.732 370.566 319.334 368.331C319.583 368.104 319.849 367.897 320.13 367.714C320.822 369.155 319.549 371.178 318.352 371.993Z" fill="black"/>
<path d="M284.103 274.367C283.105 279.351 284.058 284.533 286.763 288.821C287.501 289.977 288.369 291.066 288.927 292.324C289.289 293.223 289.572 294.154 289.77 295.104L292.154 305.126C292.802 307.834 293.455 310.59 293.26 313.37C293.126 315.297 292.64 317.48 293.822 319.012C294.107 319.303 294.346 319.636 294.533 320C294.647 320.426 294.647 320.875 294.533 321.3C293.322 328.581 292.421 336.189 294.609 343.228C296.597 349.612 296.711 356.685 298.398 363.151C298.535 363.973 298.897 364.739 299.442 365.363C299.895 365.744 300.436 366.003 301.015 366.114C303.504 366.717 306.13 366.013 308.447 364.929C310.077 364.163 311.831 362.824 311.693 361.017C311.626 360.154 311.131 359.398 310.792 358.608C310.13 357.051 310.077 355.317 309.896 353.63C309.448 349.4 308.156 345.314 307.184 341.18C306.211 337.046 305.544 332.715 306.369 328.542C308.057 319.913 310.756 311.519 314.41 303.536C314.57 303.112 314.823 302.73 315.149 302.418C315.515 302.207 315.864 301.967 316.193 301.7C316.445 301.304 316.608 300.857 316.67 300.39C317.032 299.069 318.1 298.091 318.829 296.935C320.655 294.005 320.078 290.252 320.011 286.793C319.945 283.42 320.421 280.047 319.878 276.713C319.334 273.379 317.475 269.996 314.305 268.975C312.737 268.459 311.04 268.58 309.4 268.744C300.71 269.611 292.263 271.206 284.103 274.367Z" fill="#696791"/>
<path opacity="0.1" d="M284.103 274.848C283.105 279.833 284.058 285.014 286.763 289.303C287.501 290.459 288.369 291.548 288.927 292.806C289.289 293.705 289.572 294.636 289.77 295.586L292.154 305.608C292.802 308.315 293.455 311.071 293.26 313.852C293.126 315.779 292.64 317.961 293.822 319.494C294.107 319.785 294.346 320.118 294.533 320.481C294.647 320.907 294.647 321.356 294.533 321.782C293.322 329.063 292.421 336.67 294.609 343.71C296.597 350.094 296.711 357.167 298.398 363.633C298.535 364.454 298.897 365.221 299.442 365.845C299.895 366.226 300.436 366.485 301.015 366.596C303.504 367.198 306.13 366.495 308.447 365.411C310.077 364.645 311.831 363.305 311.693 361.499C311.626 360.636 311.131 359.88 310.792 359.089C310.13 357.533 310.077 355.799 309.896 354.112C309.448 349.882 308.156 345.796 307.184 341.662C306.211 337.528 305.544 333.197 306.369 329.024C308.057 320.395 310.756 312.001 314.41 304.018C314.57 303.594 314.823 303.212 315.149 302.9C315.515 302.689 315.864 302.449 316.193 302.182C316.445 301.786 316.608 301.338 316.67 300.871C317.032 299.551 318.1 298.573 318.829 297.417C320.655 294.487 320.078 290.734 320.011 287.274C319.945 283.902 320.421 280.529 319.878 277.195C319.334 273.861 317.475 270.478 314.305 269.457C312.737 268.941 311.04 269.062 309.4 269.226C300.71 270.093 292.263 271.688 284.103 274.848Z" fill="black"/>
<path d="M319.511 295.465C319.485 296.772 319.34 298.074 319.077 299.354C317.542 308.026 315.909 316.699 314.177 325.372C314.024 326.123 313.876 326.875 313.676 327.612C313.024 330.021 311.888 332.267 310.339 334.213C303.118 343.315 302.493 356.531 298.575 367.507C298.308 368.249 298.046 368.996 297.764 369.728C297.056 371.587 296.249 373.406 295.348 375.177C295.248 375.433 295.084 375.657 294.871 375.828C294.628 375.954 294.356 376.009 294.084 375.987C290.558 376.005 287.074 375.203 283.902 373.645C283.45 373.474 283.069 373.153 282.82 372.734C282.701 372.4 282.662 372.042 282.706 371.689C282.816 369.516 282.949 367.261 283.974 365.348C284.656 364.205 285.501 363.169 286.481 362.274C286.71 355.434 287.533 348.627 288.941 341.932C289.704 338.521 290.648 335.076 292.607 332.194C294.037 330.065 296.125 327.964 295.867 325.396C295.758 324.268 295.29 322.866 296.196 322.206C296.592 321.912 297.178 321.874 297.45 321.459C297.556 321.264 297.617 321.046 297.626 320.823C297.812 319.062 297.703 317.282 297.302 315.557C296.973 314.429 296.713 313.282 296.525 312.122C296.437 311.54 296.467 310.945 296.614 310.376C296.761 309.806 297.021 309.272 297.378 308.807C297.426 306.46 297.378 304.027 297.412 301.686C297.504 300.351 297.393 299.011 297.083 297.711C296.911 297.099 296.639 296.511 296.506 295.885C296.029 293.634 297.231 290.936 295.791 289.139C295.19 288.397 294.266 288.026 293.479 287.491C291.936 286.36 290.817 284.735 290.304 282.88C289.792 281.035 289.488 279.138 289.399 277.224C289.353 276.819 289.353 276.41 289.399 276.005C289.422 275.794 289.476 275.587 289.561 275.393C290.009 274.376 291.21 273.981 292.283 273.721C299.091 272.071 306.069 271.246 313.071 271.264C315.664 269.481 317.118 270.122 318.219 272.006C318.824 273.16 319.314 274.372 319.682 275.624C320.159 277.156 320.216 285.742 320.702 287.27C321.322 289.269 319.487 293.365 319.511 295.465Z" fill="#696791"/>
<path d="M272.681 217.44C272.491 218.789 273.129 220.114 273.201 221.477C273.263 222.667 272.886 223.829 272.676 224.999C271.838 229.567 273.444 234.197 275.06 238.543C275.372 239.248 275.565 240 275.632 240.769C275.675 242.186 274.869 243.487 274.645 244.889C274.169 247.833 276.328 250.598 276.376 253.562C276.376 254.935 275.966 256.332 276.309 257.657C276.533 258.544 277.081 259.31 277.467 260.134C278.158 261.579 278.344 263.265 279.002 264.745C280.189 267.419 282.739 269.168 285.17 270.772C286.548 270.29 288.031 269.756 288.803 268.498C289.136 267.879 289.351 267.203 289.437 266.503C289.961 263.453 289.942 260.341 289.913 257.248C289.965 254.585 289.833 251.922 289.518 249.278C289.041 245.906 287.949 242.677 287.172 239.367C286.219 235.2 285.7 230.892 284.179 226.888C282.839 223.376 280.761 220.22 278.568 217.194C277.734 216.042 277.072 214.395 275.451 214.66C274.763 214.779 274.127 215.11 273.632 215.608C273.136 216.105 272.804 216.745 272.681 217.44Z" fill="#434175"/>
<path opacity="0.05" d="M272.681 216.476C272.491 217.825 273.129 219.15 273.201 220.514C273.263 221.704 272.886 222.865 272.676 224.036C271.838 228.603 273.444 233.234 275.06 237.58C275.372 238.284 275.565 239.037 275.632 239.806C275.675 241.222 274.869 242.523 274.645 243.925C274.169 246.869 276.328 249.635 276.376 252.598C276.376 253.971 275.966 255.368 276.309 256.693C276.533 257.58 277.081 258.346 277.467 259.17C278.158 260.615 278.344 262.302 279.002 263.781C280.189 266.455 282.739 268.204 285.17 269.809C286.548 269.327 288.031 268.792 288.803 267.534C289.136 266.916 289.351 266.239 289.437 265.54C289.961 262.49 289.942 259.377 289.913 256.284C289.965 253.621 289.833 250.958 289.518 248.315C289.041 244.942 287.949 241.714 287.172 238.404C286.219 234.236 285.7 229.928 284.179 225.925C282.839 222.412 280.761 219.256 278.568 216.23C277.734 215.079 277.072 213.431 275.451 213.696C274.763 213.816 274.127 214.147 273.632 214.644C273.136 215.142 272.804 215.781 272.681 216.476Z" fill="black"/>
<path opacity="0.1" d="M307.946 188.044C306.873 189.779 305.986 191.626 305.301 193.551C304.318 193.796 303.31 193.919 302.298 193.917C298.365 193.917 295.586 191.658 293.274 188.8C293.074 187.885 291.844 187.032 291.968 186.314C292.154 185.351 293.04 185.548 293.841 185.601C296.281 185.797 298.709 186.118 301.116 186.565C301.745 186.642 307.851 188.203 307.946 188.044Z" fill="black"/>
<path d="M302.298 193.57C309.251 193.57 314.887 187.873 314.887 180.846C314.887 173.818 309.251 168.121 302.298 168.121C295.345 168.121 289.708 173.818 289.708 180.846C289.708 187.873 295.345 193.57 302.298 193.57Z" fill="#EE8E9E"/>
<path opacity="0.1" d="M318.205 272.015C316.026 271.885 313.829 271.977 311.645 272.063C310.277 272.079 308.913 272.221 307.57 272.487C305.916 272.868 304.371 273.629 302.741 274.106C300.129 274.873 297.374 274.906 294.671 275.176C292.894 275.349 291.128 275.629 289.384 276.014C289.407 275.803 289.462 275.597 289.546 275.402C289.994 274.386 291.196 273.991 292.268 273.731C299.077 272.081 306.055 271.256 313.056 271.273C315.65 269.515 317.104 270.131 318.205 272.015Z" fill="black"/>
<path d="M309.624 201.679C309.076 202.32 308.337 203.029 307.527 202.821C307.232 202.719 306.955 202.569 306.707 202.378C305.277 201.414 303.475 201.212 301.769 200.933C298.327 200.409 294.928 199.636 291.596 198.62C290.627 198.265 289.612 198.058 288.583 198.003C286.453 198.003 284.56 199.449 283.226 201.125C281.891 202.802 280.937 204.773 279.627 206.474C278.673 207.688 277.577 208.757 276.704 210.015C274.502 213.19 274.026 217.334 274.598 221.169C275.17 225.004 276.681 228.623 278.187 232.193C278.985 234.278 279.965 236.287 281.114 238.196C280.609 241.087 280.875 244.46 282.248 247.062C282.692 247.915 283.24 248.743 283.388 249.697C283.455 250.34 283.429 250.989 283.311 251.625L282.668 256.231C282.472 257.633 282.277 259.035 282.024 260.432C281.548 262.981 280.937 265.732 282.105 268.055C283.502 270.82 282.034 274.362 282.401 277.445C286.34 275.907 290.468 274.916 294.671 274.501C297.374 274.232 300.129 274.198 302.741 273.432C304.371 272.95 305.916 272.194 307.57 271.808C308.913 271.543 310.277 271.403 311.645 271.389C314.663 271.268 317.699 271.143 320.702 271.591C320.941 271.63 321.236 271.649 321.384 271.452C321.446 271.341 321.477 271.217 321.475 271.09C321.52 269.959 321.253 268.838 320.702 267.852C320.321 267.173 319.792 266.508 319.806 265.728C319.832 265.363 319.921 265.006 320.068 264.672L321.389 261.107C322.509 258.096 321.975 254.598 322.557 251.437C323.01 248.965 323.3 246.465 323.424 243.954C323.534 241.81 323.467 239.488 322.185 237.772C321.815 237.358 321.495 236.9 321.232 236.409C321.046 235.889 320.968 235.337 321.003 234.785C320.974 230.494 321.09 226.202 321.351 221.911C320.235 219.883 319.067 217.811 317.952 215.782C316.651 213.421 315.335 211.012 314.811 208.362C314.463 206.613 314.472 204.806 314.224 203.038C314.198 202.588 314.044 202.155 313.781 201.79C313.538 201.576 313.252 201.417 312.943 201.324C312.633 201.232 312.308 201.209 311.989 201.255C311.184 201.273 310.386 201.416 309.624 201.679Z" fill="#434175"/>
<path opacity="0.1" d="M355.715 194.033C354.924 194.652 353.981 195.04 352.988 195.156C351.692 195.242 348.932 194.471 348.126 193.349C347.781 192.784 347.615 192.127 347.649 191.465C347.826 191.408 348.008 191.372 348.193 191.359C349.601 191.204 351.025 191.263 352.416 191.532C353.789 191.87 355.114 192.713 355.691 194.019L355.715 194.033Z" fill="black"/>
<path d="M313.829 221.554C314.596 222.518 315.392 223.511 316.479 224.084C317.733 224.739 319.206 224.754 320.612 224.725C326.413 224.594 332.192 223.95 337.882 222.798C338.532 222.685 339.17 222.512 339.789 222.282C340.469 221.953 341.108 221.545 341.696 221.068C343.569 219.709 345.471 218.321 346.896 216.486C348.589 214.269 349.653 211.63 349.976 208.849C351.329 207.591 352.049 205.794 352.726 204.064C353.061 203.331 353.273 202.546 353.355 201.742C353.389 200.918 352.85 200.056 353.003 199.246C353.262 197.849 353.963 196.574 355 195.613C355.221 195.455 355.387 195.231 355.477 194.973C355.507 194.759 355.468 194.541 355.367 194.351C354.785 193.045 353.46 192.207 352.087 191.865C350.695 191.593 349.269 191.534 347.859 191.691C347.39 191.782 346.928 191.907 346.477 192.067L345.49 194.683C345.36 195.122 345.14 195.529 344.847 195.878C344.628 196.08 344.396 196.265 344.151 196.432C343.65 196.861 343.262 197.407 343.02 198.023C342.778 198.639 342.69 199.306 342.763 199.964C341.874 200.314 341.149 200.992 340.737 201.862C340.324 202.732 340.254 203.728 340.542 204.647C339.802 204.809 339.115 205.159 338.546 205.665C337.978 206.172 337.548 206.816 337.296 207.538C337.227 207.868 337.081 208.177 336.872 208.439C336.553 208.688 336.159 208.817 335.756 208.806C334.641 208.873 333.668 209.769 332.662 209.287C331.516 208.747 330.236 208.566 328.987 208.767C328.73 208.829 328.465 208.854 328.201 208.839C327.976 208.8 327.758 208.723 327.557 208.613C327.103 208.345 326.611 208.15 326.099 208.035C325.841 207.979 325.573 208 325.328 208.096C325.082 208.192 324.87 208.358 324.716 208.574C324.363 208.184 324.154 207.683 323.834 207.264C323.691 207.041 323.49 206.862 323.253 206.748C323.015 206.633 322.752 206.586 322.49 206.613C322.824 206.315 322.49 205.712 322.047 205.601C321.6 205.567 321.151 205.583 320.707 205.65C319.544 205.65 318.648 204.575 317.518 204.296C316.479 204.04 315.092 204.349 314.558 203.409C314.372 203.077 314.334 202.624 314.015 202.446C313.796 202.336 313.547 202.307 313.309 202.364C312.572 202.462 311.855 202.681 311.188 203.014C310.096 207.35 310.668 211.802 311.498 216.168C311.804 218.136 312.607 219.991 313.829 221.554Z" fill="#434175"/>
<path opacity="0.1" d="M313.795 236.997L308.375 248.05C308.962 247.023 310.196 246.604 311.174 245.973C312.407 245.067 313.335 243.798 313.829 242.34C314.319 240.887 314.662 239.387 314.854 237.864C314.963 237.165 315.192 236.182 314.854 235.546C314.253 235.677 314.053 236.481 313.795 236.997Z" fill="black"/>
<path opacity="0.1" d="M298.198 246.387C296.973 247.611 295.476 248.512 294.132 249.596C290.986 252.131 288.746 255.6 286.558 259.006C285.939 259.897 285.42 260.853 285.008 261.858C285.266 262.08 285.647 261.858 285.904 261.622L290.161 257.845C290.687 257.415 291.166 256.931 291.591 256.4C292.33 255.393 292.659 254.14 293.331 253.085C294.062 252.075 294.934 251.177 295.92 250.42C296.897 249.572 301.387 245.732 300.296 244.238C299.49 244.624 298.842 245.732 298.198 246.387Z" fill="black"/>
<path d="M307.498 198.485C306.103 197.705 304.575 197.197 302.994 196.987C302.056 196.772 301.092 196.702 300.134 196.779C299.247 196.89 298.394 197.237 297.502 197.261C296.249 197.333 295.052 196.818 293.841 196.485C292.631 196.153 291.234 196.004 290.218 196.76C290.001 196.976 289.726 197.123 289.427 197.184C289.119 197.142 288.833 197 288.612 196.779C287.756 196.16 286.717 195.853 285.665 195.909C284.614 195.965 283.612 196.381 282.825 197.088C280.518 199.275 280.78 203.549 278.058 205.211C277.315 205.693 276.361 205.91 275.923 206.657C275.816 206.899 275.694 207.134 275.556 207.36C275.376 207.565 275.155 207.73 274.907 207.842C274.122 208.196 273.374 208.63 272.676 209.138C272.328 209.393 272.035 209.718 271.815 210.091C271.594 210.465 271.451 210.88 271.394 211.311C271.384 211.942 271.518 212.567 271.785 213.137C273.109 216.419 275.406 219.205 278.36 221.115C281.314 223.024 284.781 223.962 288.283 223.8C288.906 223.835 289.521 223.642 290.014 223.255C290.273 222.959 290.478 222.618 290.619 222.248C291.892 219.555 294.28 217.565 295.796 215.021C296.697 213.494 297.278 211.783 298.222 210.28C299.652 208.001 301.816 206.315 303.942 204.681C305.144 203.761 306.473 202.792 307.98 202.855C309.319 202.913 310.296 202.985 309.801 201.328C309.393 200.133 308.577 199.125 307.498 198.485Z" fill="#434175"/>
<path opacity="0.05" d="M307.498 198.485C306.103 197.705 304.575 197.197 302.994 196.987C302.056 196.772 301.092 196.702 300.134 196.779C299.247 196.89 298.394 197.237 297.502 197.261C296.249 197.333 295.052 196.818 293.841 196.485C292.631 196.153 291.234 196.004 290.218 196.76C290.001 196.976 289.726 197.123 289.427 197.184C289.119 197.142 288.833 197 288.612 196.779C287.756 196.16 286.717 195.853 285.665 195.909C284.614 195.965 283.612 196.381 282.825 197.088C280.518 199.275 280.78 203.549 278.058 205.211C277.315 205.693 276.361 205.91 275.923 206.657C275.816 206.899 275.694 207.134 275.556 207.36C275.376 207.565 275.155 207.73 274.907 207.842C274.122 208.196 273.374 208.63 272.676 209.138C272.328 209.393 272.035 209.718 271.815 210.091C271.594 210.465 271.451 210.88 271.394 211.311C271.384 211.942 271.518 212.567 271.785 213.137C273.109 216.419 275.406 219.205 278.36 221.115C281.314 223.024 284.781 223.962 288.283 223.8C288.906 223.835 289.521 223.642 290.014 223.255C290.273 222.959 290.478 222.618 290.619 222.248C291.892 219.555 294.28 217.565 295.796 215.021C296.697 213.494 297.278 211.783 298.222 210.28C299.652 208.001 301.816 206.315 303.942 204.681C305.144 203.761 306.473 202.792 307.98 202.855C309.319 202.913 310.296 202.985 309.801 201.328C309.393 200.133 308.577 199.125 307.498 198.485Z" fill="black"/>
<path d="M314.053 382.915C313.137 383.778 311.884 384.154 310.668 384.419C307.888 384.968 305.074 385.321 302.245 385.474L299.495 385.686C296.811 385.893 294.123 386.1 291.429 386.11C288.102 386.12 284.781 385.83 281.505 385.243C281.354 385.237 281.207 385.2 281.071 385.133C280.936 385.067 280.816 384.973 280.718 384.857C280.616 384.664 280.574 384.444 280.599 384.226C280.657 380.835 281.066 377.46 281.819 374.156C282.129 372.802 284.536 375.842 284.646 375.972C284.895 376.327 285.222 376.618 285.602 376.821C285.982 377.025 286.404 377.135 286.834 377.143C289.604 377.297 292.707 375.597 294.904 374.084C295.377 373.729 295.877 373.415 296.401 373.144C296.786 372.97 297.194 372.853 297.612 372.797C299.037 372.663 300.469 372.956 301.73 373.64C303.385 374.469 304.834 375.659 306.497 376.531C307.829 377.221 309.267 377.681 310.749 377.89C312.246 378.097 314.038 378.198 314.806 379.509C315.416 380.593 314.958 382.058 314.053 382.915Z" fill="#434175"/>
<path d="M314.053 383.416C313.137 384.279 311.884 384.655 310.668 384.92C307.888 385.469 305.074 385.822 302.245 385.975L299.495 386.187C296.811 386.394 294.123 386.601 291.429 386.611C288.102 386.624 284.78 386.333 281.505 385.744C281.355 385.739 281.207 385.702 281.072 385.637C280.936 385.571 280.816 385.478 280.718 385.363C280.46 385.016 280.252 384.633 280.103 384.226C280.16 380.853 281.057 377.456 281.819 374.156C282.129 372.802 284.536 375.842 284.646 375.972C284.895 376.327 285.222 376.618 285.602 376.821C285.982 377.025 286.404 377.135 286.834 377.143C289.604 377.297 292.707 375.597 294.904 374.084C295.377 373.729 295.877 373.415 296.401 373.144C296.786 372.97 297.194 372.853 297.612 372.797C297.254 374.811 294.399 377.244 292.921 377.986C289.937 379.485 286.391 378.733 283.063 378.911C282.819 378.906 282.578 378.964 282.363 379.08C281.967 379.35 281.943 379.923 281.953 380.405C281.981 381.205 282.081 382.149 282.773 382.554C283.117 382.722 283.496 382.803 283.879 382.79C292.083 383.153 300.302 382.861 308.461 381.918C309.834 381.826 311.184 381.522 312.465 381.017C313.303 380.621 314.084 380.112 314.787 379.504C315.836 380.333 314.958 382.559 314.053 383.416Z" fill="#E8EAF2"/>
<path d="M307.198 180.711C307.15 182.026 308.037 184.565 305.601 183.867C304.171 183.443 303.742 181.703 301.902 182.089C300.062 182.474 299.633 184.772 299.013 186.271C298.507 187.462 297.722 188.51 296.725 189.326C295.729 190.142 294.551 190.701 293.293 190.954C292.774 191.077 292.234 191.077 291.715 190.954C290.528 190.612 289.851 189.374 289.365 188.227C288.945 187.256 288.598 186.254 288.326 185.23C288.134 184.511 288.008 183.775 287.949 183.033C287.909 182.528 287.909 182.02 287.949 181.515C288.169 178.523 289.856 175.796 292.011 173.734C294.165 171.672 296.778 170.178 299.376 168.709C300.222 168.177 301.136 167.765 302.093 167.485C303.034 167.295 303.999 167.256 304.953 167.369C306.213 167.421 307.453 167.716 308.604 168.236C309.075 168.471 309.508 168.779 309.887 169.147C310.427 169.652 310.814 170.302 311.002 171.021C311.479 172.949 310.249 174.698 309.257 176.225C308.352 177.579 307.26 179.015 307.198 180.711Z" fill="#434175"/>
<path opacity="0.1" d="M348.15 208.95C347.63 207.625 345.447 203.958 346.076 202.686C346.735 203.626 347.292 204.634 347.74 205.693C348.15 206.729 347.826 208.107 348.15 208.95Z" fill="black"/>
<path opacity="0.1" d="M309.286 176.22C310.277 174.693 311.498 172.949 311.031 171.017C310.799 170.164 310.297 169.412 309.6 168.877C309.762 169.159 309.884 169.462 309.963 169.778C310.439 171.706 309.21 173.45 308.218 174.982C307.336 176.341 306.245 177.781 306.178 179.472C306.13 180.788 307.022 183.327 304.586 182.628C303.156 182.204 302.727 180.465 300.882 180.85C299.037 181.236 298.618 183.529 297.993 185.033C297.488 186.224 296.703 187.273 295.706 188.089C294.709 188.905 293.531 189.463 292.273 189.716C291.754 189.839 291.214 189.839 290.695 189.716C290.428 189.637 290.176 189.511 289.952 189.345C290.323 190.095 290.967 190.672 291.749 190.954C292.269 191.075 292.81 191.075 293.331 190.954C294.589 190.699 295.766 190.139 296.763 189.322C297.759 188.506 298.544 187.457 299.051 186.266C299.676 184.763 300.081 182.479 301.94 182.089C303.799 181.698 304.19 183.438 305.644 183.862C308.08 184.575 307.188 182.021 307.236 180.706C307.312 179.02 308.409 177.579 309.286 176.22Z" fill="black"/>
<path opacity="0.1" d="M309.824 173.604C309.599 173.979 309.351 174.339 309.081 174.683C308.567 175.339 307.991 175.943 307.36 176.485C306.983 176.813 306.597 177.116 306.197 177.405C305.45 177.938 304.664 178.413 303.847 178.827C301.427 179.965 298.909 180.876 296.325 181.549L291.301 183.028C290.681 183.51 289.551 184.348 288.307 185.23C288.115 184.511 287.989 183.775 287.93 183.033C287.89 182.528 287.89 182.02 287.93 181.515C288.15 178.523 289.837 175.796 291.992 173.734C294.146 171.672 296.759 170.178 299.357 168.709C300.203 168.177 301.117 167.765 302.074 167.485C303.015 167.295 303.98 167.256 304.934 167.369C306.194 167.421 307.433 167.716 308.585 168.236C309.056 168.471 309.489 168.779 309.867 169.147C310.152 169.57 310.369 170.035 310.511 170.525C310.826 171.561 310.387 172.669 309.824 173.604Z" fill="black"/>
<path d="M309.825 173.262C309.599 173.637 309.351 173.997 309.081 174.341C308.567 174.997 307.991 175.601 307.36 176.143C306.984 176.471 306.597 176.774 306.197 177.063C305.449 177.594 304.663 178.069 303.847 178.485C301.427 179.623 298.909 180.534 296.325 181.207L291.301 182.681C289.546 184.026 283.674 188.42 282.687 187.871C281.524 187.225 287.897 182.662 287.897 182.662L288.188 182.889C287.234 182.296 286.758 180.923 286.558 179.733C286.186 177.603 286.009 175.396 286.51 173.291C287.01 171.185 288.259 169.19 290.161 168.208C291.005 167.764 292.03 167.47 292.64 166.796C292.732 166.693 292.813 166.582 292.883 166.463C292.921 166.409 292.952 166.351 292.979 166.29C293.042 166.103 293.132 165.926 293.245 165.765C293.593 165.36 294.227 165.48 294.757 165.548H294.928C295.022 165.553 295.116 165.553 295.209 165.548C297.116 165.591 298.932 164.526 300.844 164.526C302.936 164.526 304.719 165.75 306.564 166.589C306.936 166.757 307.289 166.911 307.622 167.07C308.957 167.697 309.958 168.367 310.482 170.144C310.826 171.224 310.387 172.337 309.825 173.262Z" fill="#18A0FB"/>
<path opacity="0.1" d="M295.209 165.577C295.315 165.756 295.352 165.968 295.316 166.173C295.279 166.379 295.17 166.564 295.009 166.695C294.777 166.862 294.503 166.961 294.218 166.979C294.012 167.007 293.806 167.023 293.598 167.027C293.319 167.049 293.039 167.001 292.783 166.887C292.733 166.861 292.685 166.83 292.64 166.796C292.732 166.693 292.813 166.582 292.883 166.463C292.931 166.502 292.979 166.492 293.164 166.463C293.51 166.447 293.853 166.389 294.185 166.29C294.322 166.252 294.452 166.188 294.566 166.102C294.736 165.956 294.862 165.763 294.928 165.548L295.209 165.577Z" fill="black"/>
<path opacity="0.1" d="M288.021 182.614C288.287 182.782 288.584 182.893 288.893 182.942C289.114 182.998 289.339 183.035 289.565 183.052C290.143 183.023 290.706 182.858 291.21 182.571" fill="black"/>
</g>
<defs>
<linearGradient id="paint0_linear" x1="315.292" y1="386.11" x2="315.292" y2="163.394" gradientUnits="userSpaceOnUse">
<stop stop-color="#808080" stop-opacity="0.25"/>
<stop offset="0.54" stop-color="#808080" stop-opacity="0.12"/>
<stop offset="1" stop-color="#808080" stop-opacity="0.1"/>
</linearGradient>
<clipPath id="clip0">
<rect width="524.353" height="388.702" fill="white" transform="translate(0.646851)"/>
</clipPath>
</defs>
</svg>
