<svg width="1150" height="478" viewBox="0 0 1150 478" fill="none" xmlns="http://www.w3.org/2000/svg">
<path d="M445.291 44.36C442.141 44.36 439.291 43.67 436.741 42.29C434.221 40.88 432.241 38.96 430.801 36.53C429.361 34.07 428.641 31.31 428.641 28.25C428.641 25.19 429.361 22.445 430.801 20.015C432.241 17.555 434.236 15.635 436.786 14.255C439.336 12.845 442.186 12.14 445.336 12.14C447.796 12.14 450.046 12.56 452.086 13.4C454.126 14.21 455.866 15.425 457.306 17.045L454.381 19.88C452.011 17.39 449.056 16.145 445.516 16.145C443.176 16.145 441.061 16.67 439.171 17.72C437.281 18.77 435.796 20.225 434.716 22.085C433.666 23.915 433.141 25.97 433.141 28.25C433.141 30.53 433.666 32.6 434.716 34.46C435.796 36.29 437.281 37.73 439.171 38.78C441.061 39.83 443.176 40.355 445.516 40.355C449.026 40.355 451.981 39.095 454.381 36.575L457.306 39.41C455.866 41.03 454.111 42.26 452.041 43.1C450.001 43.94 447.751 44.36 445.291 44.36ZM490.816 12.5V44H486.316V29.96H468.226V44H463.726V12.5H468.226V26.045H486.316V12.5H490.816ZM521.304 44L514.509 34.325C513.669 34.385 513.009 34.415 512.529 34.415H504.744V44H500.244V12.5H512.529C516.609 12.5 519.819 13.475 522.159 15.425C524.499 17.375 525.669 20.06 525.669 23.48C525.669 25.91 525.069 27.98 523.869 29.69C522.669 31.4 520.959 32.645 518.739 33.425L526.209 44H521.304ZM512.394 30.59C515.244 30.59 517.419 29.975 518.919 28.745C520.419 27.515 521.169 25.76 521.169 23.48C521.169 21.2 520.419 19.46 518.919 18.26C517.419 17.03 515.244 16.415 512.394 16.415H504.744V30.59H512.394ZM547.16 44.36C543.98 44.36 541.115 43.67 538.565 42.29C536.015 40.88 534.005 38.945 532.535 36.485C531.095 34.025 530.375 31.28 530.375 28.25C530.375 25.22 531.095 22.475 532.535 20.015C534.005 17.555 536.015 15.635 538.565 14.255C541.115 12.845 543.98 12.14 547.16 12.14C550.31 12.14 553.16 12.845 555.71 14.255C558.26 15.635 560.255 17.555 561.695 20.015C563.135 22.445 563.855 25.19 563.855 28.25C563.855 31.31 563.135 34.07 561.695 36.53C560.255 38.96 558.26 40.88 555.71 42.29C553.16 43.67 550.31 44.36 547.16 44.36ZM547.16 40.355C549.47 40.355 551.54 39.83 553.37 38.78C555.23 37.73 556.685 36.29 557.735 34.46C558.815 32.6 559.355 30.53 559.355 28.25C559.355 25.97 558.815 23.915 557.735 22.085C556.685 20.225 555.23 18.77 553.37 17.72C551.54 16.67 549.47 16.145 547.16 16.145C544.85 16.145 542.75 16.67 540.86 17.72C539 18.77 537.53 20.225 536.45 22.085C535.4 23.915 534.875 25.97 534.875 28.25C534.875 30.53 535.4 32.6 536.45 34.46C537.53 36.29 539 37.73 540.86 38.78C542.75 39.83 544.85 40.355 547.16 40.355ZM597.823 12.5V44H594.133L575.233 20.51V44H570.733V12.5H574.423L593.323 35.99V12.5H597.823ZM607.251 12.5H611.751V44H607.251V12.5ZM635.267 44.36C632.117 44.36 629.267 43.67 626.717 42.29C624.197 40.88 622.217 38.96 620.777 36.53C619.337 34.07 618.617 31.31 618.617 28.25C618.617 25.19 619.337 22.445 620.777 20.015C622.217 17.555 624.212 15.635 626.762 14.255C629.312 12.845 632.162 12.14 635.312 12.14C637.772 12.14 640.022 12.56 642.062 13.4C644.102 14.21 645.842 15.425 647.282 17.045L644.357 19.88C641.987 17.39 639.032 16.145 635.492 16.145C633.152 16.145 631.037 16.67 629.147 17.72C627.257 18.77 625.772 20.225 624.692 22.085C623.642 23.915 623.117 25.97 623.117 28.25C623.117 30.53 623.642 32.6 624.692 34.46C625.772 36.29 627.257 37.73 629.147 38.78C631.037 39.83 633.152 40.355 635.492 40.355C639.002 40.355 641.957 39.095 644.357 36.575L647.282 39.41C645.842 41.03 644.087 42.26 642.017 43.1C639.977 43.94 637.727 44.36 635.267 44.36ZM653.701 12.5H658.201V40.085H675.256V44H653.701V12.5ZM703.28 40.085V44H680.42V12.5H702.65V16.415H684.92V26.09H700.715V29.915H684.92V40.085H703.28ZM719.747 44.36C717.377 44.36 715.082 44 712.862 43.28C710.672 42.53 708.947 41.57 707.687 40.4L709.352 36.89C710.552 37.97 712.082 38.855 713.942 39.545C715.832 40.205 717.767 40.535 719.747 40.535C722.357 40.535 724.307 40.1 725.597 39.23C726.887 38.33 727.532 37.145 727.532 35.675C727.532 34.595 727.172 33.725 726.452 33.065C725.762 32.375 724.892 31.85 723.842 31.49C722.822 31.13 721.367 30.725 719.477 30.275C717.107 29.705 715.187 29.135 713.717 28.565C712.277 27.995 711.032 27.125 709.982 25.955C708.962 24.755 708.452 23.15 708.452 21.14C708.452 19.46 708.887 17.945 709.757 16.595C710.657 15.245 712.007 14.165 713.807 13.355C715.607 12.545 717.842 12.14 720.512 12.14C722.372 12.14 724.202 12.38 726.002 12.86C727.802 13.34 729.347 14.03 730.637 14.93L729.152 18.53C727.832 17.69 726.422 17.06 724.922 16.64C723.422 16.19 721.952 15.965 720.512 15.965C717.962 15.965 716.042 16.43 714.752 17.36C713.492 18.29 712.862 19.49 712.862 20.96C712.862 22.04 713.222 22.925 713.942 23.615C714.662 24.275 715.547 24.8 716.597 25.19C717.677 25.55 719.132 25.94 720.962 26.36C723.332 26.93 725.237 27.5 726.677 28.07C728.117 28.64 729.347 29.51 730.367 30.68C731.417 31.85 731.942 33.425 731.942 35.405C731.942 37.055 731.492 38.57 730.592 39.95C729.692 41.3 728.327 42.38 726.497 43.19C724.667 43.97 722.417 44.36 719.747 44.36Z" fill="black" fill-opacity="0.78"/>
<line x1="444.101" y1="77" x2="712.799" y2="77" stroke="#18A0FB" stroke-width="2"/>
<g clip-path="url(#clip0)">
<path d="M1092.4 226.81H977.185V413.746H1092.4V226.81Z" fill="#E6E6E6"/>
<path d="M987.946 404.174H1081.63V236.382H987.946V404.174Z" fill="white"/>
<path d="M1051.31 272.37H1023.94V274.63H1051.31V272.37Z" fill="#E6E6E6"/>
<path d="M1071.63 280.188H1023.94V282.448H1071.63V280.188Z" fill="#E6E6E6"/>
<path d="M1071.59 288.007H1023.94V290.267H1071.59V288.007Z" fill="#E6E6E6"/>
<path d="M1018.27 272.404H997.947V290.484H1018.27V272.404Z" fill="#E6E6E6"/>
<path d="M1051.31 311.221H1023.94V313.481H1051.31V311.221Z" fill="#E6E6E6"/>
<path d="M1071.63 319.04H1023.94V321.3H1071.63V319.04Z" fill="#E6E6E6"/>
<path d="M1071.59 326.858H1023.94V329.118H1071.59V326.858Z" fill="#E6E6E6"/>
<path d="M1018.27 311.255H997.947V329.335H1018.27V311.255Z" fill="#E6E6E6"/>
<path d="M1051.31 350.072H1023.94V352.332H1051.31V350.072Z" fill="#E6E6E6"/>
<path d="M1071.63 357.891H1023.94V360.151H1071.63V357.891Z" fill="#E6E6E6"/>
<path d="M1071.59 365.709H1023.94V367.969H1071.59V365.709Z" fill="#E6E6E6"/>
<path d="M1018.27 350.106H997.947V368.186H1018.27V350.106Z" fill="#E6E6E6"/>
<path d="M770.818 226.81H655.608V413.746H770.818V226.81Z" fill="#E6E6E6"/>
<path d="M666.369 404.174H760.057V236.382H666.369V404.174Z" fill="white"/>
<path d="M729.729 272.37H702.368V274.63H729.729V272.37Z" fill="#E6E6E6"/>
<path d="M750.056 280.188H702.368V282.448H750.056V280.188Z" fill="#E6E6E6"/>
<path d="M750.009 288.007H702.368V290.267H750.009V288.007Z" fill="#E6E6E6"/>
<path d="M696.697 272.404H676.37V290.484H696.697V272.404Z" fill="#E6E6E6"/>
<path d="M729.729 311.221H702.368V313.481H729.729V311.221Z" fill="#E6E6E6"/>
<path d="M750.056 319.04H702.368V321.3H750.056V319.04Z" fill="#E6E6E6"/>
<path d="M750.009 326.858H702.368V329.118H750.009V326.858Z" fill="#E6E6E6"/>
<path d="M696.697 311.255H676.37V329.335H696.697V311.255Z" fill="#E6E6E6"/>
<path d="M729.729 350.072H702.368V352.332H729.729V350.072Z" fill="#E6E6E6"/>
<path d="M750.056 357.891H702.368V360.151H750.056V357.891Z" fill="#E6E6E6"/>
<path d="M750.009 365.709H702.368V367.969H750.009V365.709Z" fill="#E6E6E6"/>
<path d="M696.697 350.106H676.37V368.186H696.697V350.106Z" fill="#E6E6E6"/>
<path d="M868.935 428.949C1024.16 428.949 1150 424.411 1150 418.814C1150 413.216 1024.16 408.678 868.935 408.678C713.707 408.678 587.87 413.216 587.87 418.814C587.87 424.411 713.707 428.949 868.935 428.949Z" fill="#E6E6E6"/>
<path d="M952.428 166H795.575V420.503H952.428V166Z" fill="#3F3D56"/>
<path d="M802.353 414.027H945.65V172.475H802.353V414.027Z" fill="white"/>
<path d="M896.487 228.027H859.236V231.104H896.487V228.027Z" fill="#18A0FB"/>
<path d="M924.161 238.671H859.236V241.748H924.161V238.671Z" fill="#E6E6E6"/>
<path d="M924.098 249.315H859.236V252.392H924.098V249.315Z" fill="#E6E6E6"/>
<path d="M851.516 228.073H823.842V252.688H851.516V228.073Z" fill="#18A0FB"/>
<path d="M896.487 280.921H859.236V283.998H896.487V280.921Z" fill="#18A0FB"/>
<path d="M924.161 291.565H859.236V294.642H924.161V291.565Z" fill="#E6E6E6"/>
<path d="M924.098 302.209H859.236V305.286H924.098V302.209Z" fill="#E6E6E6"/>
<path d="M851.516 280.966H823.842V305.582H851.516V280.966Z" fill="#18A0FB"/>
<path d="M896.487 333.814H859.236V336.891H896.487V333.814Z" fill="#18A0FB"/>
<path d="M924.161 344.458H859.236V347.535H924.161V344.458Z" fill="#E6E6E6"/>
<path d="M924.098 355.103H859.236V358.179H924.098V355.103Z" fill="#E6E6E6"/>
<path d="M851.516 333.86H823.842V358.476H851.516V333.86Z" fill="#18A0FB"/>
<path d="M816.713 346.46L814.814 353.78C814.814 353.78 815.447 370.672 810.382 368.983C805.318 367.294 806.584 352.654 806.584 352.654L811.015 345.334L816.713 346.46Z" fill="#FFB8B8"/>
<path d="M788.543 266.225C795.535 266.225 801.204 261.183 801.204 254.963C801.204 248.744 795.535 243.702 788.543 243.702C781.551 243.702 775.883 248.744 775.883 254.963C775.883 261.183 781.551 266.225 788.543 266.225Z" fill="#FFB8B8"/>
<path d="M778.731 258.06L777.465 274.389L793.291 276.078C793.291 276.078 793.291 262.565 794.557 260.875C795.823 259.186 778.731 258.06 778.731 258.06Z" fill="#FFB8B8"/>
<path d="M813.864 279.175L793.365 271.453C793.365 271.453 783.573 264.733 777.829 269.701L775.25 272.981C775.25 272.981 752.461 280.864 752.461 287.058L761.323 318.026C761.323 318.026 756.259 335.481 763.855 336.607L805.002 339.985C805.002 339.985 810.699 333.792 805.635 325.909L807.534 307.328L813.864 279.175Z" fill="#5A9CFF"/>
<path d="M799.938 279.738L813.864 279.175C813.864 279.175 818.295 280.301 821.46 290.999C824.625 301.697 825.259 319.152 825.259 319.152L817.662 350.683L808.167 349.557L811.965 319.152L805.635 298.882L799.938 279.738Z" fill="#5A9CFF"/>
<path d="M760.057 283.116L753.191 285.018C753.191 285.018 747.396 292.688 747.396 296.63C747.396 300.571 744.864 330.413 744.864 330.413L761.323 354.625L766.387 342.8L756.259 327.598L764.488 309.017L760.057 283.116Z" fill="#5A9CFF"/>
<path d="M806.901 338.859L761.388 335.297C761.388 335.297 756.892 360.818 757.525 370.954C758.158 381.089 758.791 396.854 758.791 396.854L753.727 465.547L773.35 463.295L775.883 406.426L784.112 375.458L793.607 414.872L799.938 465.547L817.029 463.858L811.332 402.485C811.332 402.485 816.396 347.305 806.901 338.859Z" fill="#2F2E41"/>
<path d="M813.231 461.043L818.928 462.732C818.928 462.732 830.956 459.917 827.791 467.237C824.625 474.556 815.763 473.43 815.763 473.43C815.763 473.43 805.002 480.75 800.571 475.119L803.103 463.295L813.231 461.043Z" fill="#2F2E41"/>
<path d="M767.02 461.043L772.717 462.732C772.717 462.732 784.745 459.917 781.58 467.237C778.415 474.556 769.552 473.43 769.552 473.43C769.552 473.43 758.791 480.75 754.36 475.119L756.892 463.295L767.02 461.043Z" fill="#2F2E41"/>
<path d="M778.731 264.817C778.731 264.817 765.438 256.371 772.401 246.236C777.232 239.205 787.242 239.761 792.92 240.762C794.45 241.013 795.888 241.591 797.11 242.447C798.333 243.302 799.303 244.409 799.938 245.673C800.887 247.643 800.887 249.614 797.089 249.614C789.493 249.614 793.291 254.682 793.291 254.682C793.291 254.682 788.227 255.808 789.493 259.749C790.759 263.691 778.731 264.817 778.731 264.817Z" fill="#2F2E41"/>
</g>
<rect x="1" y="365" width="173.876" height="43" rx="21.5" fill="#F8F8F8" stroke="#18A0FB" stroke-width="2"/>
<path d="M46.8981 394.189L44.0181 389.185H42.4521V394.189H40.4001V381.679H44.7201C45.6801 381.679 46.4901 381.847 47.1501 382.183C47.8221 382.519 48.3201 382.969 48.6441 383.533C48.9801 384.097 49.1481 384.727 49.1481 385.423C49.1481 386.239 48.9081 386.983 48.4281 387.655C47.9601 388.315 47.2341 388.765 46.2501 389.005L49.3461 394.189H46.8981ZM42.4521 387.547H44.7201C45.4881 387.547 46.0641 387.355 46.4481 386.971C46.8441 386.587 47.0421 386.071 47.0421 385.423C47.0421 384.775 46.8501 384.271 46.4661 383.911C46.0821 383.539 45.5001 383.353 44.7201 383.353H42.4521V387.547ZM60.8632 388.987C60.8632 389.359 60.8392 389.695 60.7912 389.995H53.2132C53.2732 390.787 53.5672 391.423 54.0952 391.903C54.6232 392.383 55.2712 392.623 56.0392 392.623C57.1432 392.623 57.9232 392.161 58.3792 391.237H60.5932C60.2932 392.149 59.7472 392.899 58.9552 393.487C58.1752 394.063 57.2032 394.351 56.0392 394.351C55.0912 394.351 54.2392 394.141 53.4832 393.721C52.7392 393.289 52.1512 392.689 51.7192 391.921C51.2992 391.141 51.0892 390.241 51.0892 389.221C51.0892 388.201 51.2932 387.307 51.7012 386.539C52.1212 385.759 52.7032 385.159 53.4472 384.739C54.2032 384.319 55.0672 384.109 56.0392 384.109C56.9752 384.109 57.8092 384.313 58.5412 384.721C59.2732 385.129 59.8432 385.705 60.2512 386.449C60.6592 387.181 60.8632 388.027 60.8632 388.987ZM58.7212 388.339C58.7092 387.583 58.4392 386.977 57.9112 386.521C57.3832 386.065 56.7292 385.837 55.9492 385.837C55.2412 385.837 54.6352 386.065 54.1312 386.521C53.6272 386.965 53.3272 387.571 53.2312 388.339H58.7212ZM62.1985 389.185C62.1985 388.189 62.4025 387.307 62.8105 386.539C63.2305 385.771 63.7945 385.177 64.5025 384.757C65.2225 384.325 66.0145 384.109 66.8785 384.109C67.6585 384.109 68.3365 384.265 68.9125 384.577C69.5005 384.877 69.9685 385.255 70.3165 385.711V384.271H72.3865V394.189H70.3165V392.713C69.9685 393.181 69.4945 393.571 68.8945 393.883C68.2945 394.195 67.6105 394.351 66.8425 394.351C65.9905 394.351 65.2105 394.135 64.5025 393.703C63.7945 393.259 63.2305 392.647 62.8105 391.867C62.4025 391.075 62.1985 390.181 62.1985 389.185ZM70.3165 389.221C70.3165 388.537 70.1725 387.943 69.8845 387.439C69.6085 386.935 69.2425 386.551 68.7865 386.287C68.3305 386.023 67.8385 385.891 67.3105 385.891C66.7825 385.891 66.2905 386.023 65.8345 386.287C65.3785 386.539 65.0065 386.917 64.7185 387.421C64.4425 387.913 64.3045 388.501 64.3045 389.185C64.3045 389.869 64.4425 390.469 64.7185 390.985C65.0065 391.501 65.3785 391.897 65.8345 392.173C66.3025 392.437 66.7945 392.569 67.3105 392.569C67.8385 392.569 68.3305 392.437 68.7865 392.173C69.2425 391.909 69.6085 391.525 69.8845 391.021C70.1725 390.505 70.3165 389.905 70.3165 389.221ZM74.3978 389.185C74.3978 388.189 74.6018 387.307 75.0098 386.539C75.4298 385.771 75.9938 385.177 76.7018 384.757C77.4218 384.325 78.2198 384.109 79.0958 384.109C79.7438 384.109 80.3798 384.253 81.0038 384.541C81.6398 384.817 82.1438 385.189 82.5158 385.657V380.869H84.5858V394.189H82.5158V392.695C82.1798 393.175 81.7118 393.571 81.1118 393.883C80.5238 394.195 79.8458 394.351 79.0778 394.351C78.2138 394.351 77.4218 394.135 76.7018 393.703C75.9938 393.259 75.4298 392.647 75.0098 391.867C74.6018 391.075 74.3978 390.181 74.3978 389.185ZM82.5158 389.221C82.5158 388.537 82.3718 387.943 82.0838 387.439C81.8078 386.935 81.4418 386.551 80.9858 386.287C80.5298 386.023 80.0378 385.891 79.5098 385.891C78.9818 385.891 78.4898 386.023 78.0338 386.287C77.5778 386.539 77.2058 386.917 76.9178 387.421C76.6418 387.913 76.5038 388.501 76.5038 389.185C76.5038 389.869 76.6418 390.469 76.9178 390.985C77.2058 391.501 77.5778 391.897 78.0338 392.173C78.5018 392.437 78.9938 392.569 79.5098 392.569C80.0378 392.569 80.5298 392.437 80.9858 392.173C81.4418 391.909 81.8078 391.525 82.0838 391.021C82.3718 390.505 82.5158 389.905 82.5158 389.221ZM105.133 381.679V394.189H103.081V385.621L99.2648 394.189H97.8428L94.0088 385.621V394.189H91.9568V381.679H94.1708L98.5628 391.489L102.937 381.679H105.133ZM112.132 394.351C111.196 394.351 110.35 394.141 109.594 393.721C108.838 393.289 108.244 392.689 107.812 391.921C107.38 391.141 107.164 390.241 107.164 389.221C107.164 388.213 107.386 387.319 107.83 386.539C108.274 385.759 108.88 385.159 109.648 384.739C110.416 384.319 111.274 384.109 112.222 384.109C113.17 384.109 114.028 384.319 114.796 384.739C115.564 385.159 116.17 385.759 116.614 386.539C117.058 387.319 117.28 388.213 117.28 389.221C117.28 390.229 117.052 391.123 116.596 391.903C116.14 392.683 115.516 393.289 114.724 393.721C113.944 394.141 113.08 394.351 112.132 394.351ZM112.132 392.569C112.66 392.569 113.152 392.443 113.608 392.191C114.076 391.939 114.454 391.561 114.742 391.057C115.03 390.553 115.174 389.941 115.174 389.221C115.174 388.501 115.036 387.895 114.76 387.403C114.484 386.899 114.118 386.521 113.662 386.269C113.206 386.017 112.714 385.891 112.186 385.891C111.658 385.891 111.166 386.017 110.71 386.269C110.266 386.521 109.912 386.899 109.648 387.403C109.384 387.895 109.252 388.501 109.252 389.221C109.252 390.289 109.522 391.117 110.062 391.705C110.614 392.281 111.304 392.569 112.132 392.569ZM121.36 385.711C121.66 385.207 122.056 384.817 122.548 384.541C123.052 384.253 123.646 384.109 124.33 384.109V386.233H123.808C123.004 386.233 122.392 386.437 121.972 386.845C121.564 387.253 121.36 387.961 121.36 388.969V394.189H119.308V384.271H121.36V385.711ZM135.307 388.987C135.307 389.359 135.283 389.695 135.235 389.995H127.657C127.717 390.787 128.011 391.423 128.539 391.903C129.067 392.383 129.715 392.623 130.483 392.623C131.587 392.623 132.367 392.161 132.823 391.237H135.037C134.737 392.149 134.191 392.899 133.399 393.487C132.619 394.063 131.647 394.351 130.483 394.351C129.535 394.351 128.683 394.141 127.927 393.721C127.183 393.289 126.595 392.689 126.163 391.921C125.743 391.141 125.533 390.241 125.533 389.221C125.533 388.201 125.737 387.307 126.145 386.539C126.565 385.759 127.147 385.159 127.891 384.739C128.647 384.319 129.511 384.109 130.483 384.109C131.419 384.109 132.253 384.313 132.985 384.721C133.717 385.129 134.287 385.705 134.695 386.449C135.103 387.181 135.307 388.027 135.307 388.987ZM133.165 388.339C133.153 387.583 132.883 386.977 132.355 386.521C131.827 386.065 131.173 385.837 130.393 385.837C129.685 385.837 129.079 386.065 128.575 386.521C128.071 386.965 127.771 387.571 127.675 388.339H133.165Z" fill="black"/>
<path d="M31.6 231.1L27.48 245H24.9L21.98 234.48L18.88 245L16.32 245.02L12.38 231.1H14.8L17.68 242.42L20.8 231.1H23.36L26.26 242.36L29.16 231.1H31.6ZM35.7605 232.94V237.02H40.5605V238.88H35.7605V243.14H41.1605V245H33.4805V231.08H41.1605V232.94H35.7605ZM56.8241 245L51.4441 238.78V245H49.1641V231.1H51.4441V237.44L56.8441 231.1H59.7041L53.6641 238.06L59.8041 245H56.8241ZM73.2403 245H70.9603L64.1003 234.62V245H61.8203V231.08H64.1003L70.9603 241.44V231.08H73.2403V245ZM82.5744 245.14C81.281 245.14 80.0877 244.84 78.9944 244.24C77.9144 243.627 77.0544 242.78 76.4144 241.7C75.7877 240.607 75.4744 239.38 75.4744 238.02C75.4744 236.66 75.7877 235.44 76.4144 234.36C77.0544 233.28 77.9144 232.44 78.9944 231.84C80.0877 231.227 81.281 230.92 82.5744 230.92C83.881 230.92 85.0744 231.227 86.1544 231.84C87.2477 232.44 88.1077 233.28 88.7344 234.36C89.361 235.44 89.6744 236.66 89.6744 238.02C89.6744 239.38 89.361 240.607 88.7344 241.7C88.1077 242.78 87.2477 243.627 86.1544 244.24C85.0744 244.84 83.881 245.14 82.5744 245.14ZM82.5744 243.16C83.4944 243.16 84.3144 242.953 85.0344 242.54C85.7544 242.113 86.3144 241.513 86.7144 240.74C87.1277 239.953 87.3344 239.047 87.3344 238.02C87.3344 236.993 87.1277 236.093 86.7144 235.32C86.3144 234.547 85.7544 233.953 85.0344 233.54C84.3144 233.127 83.4944 232.92 82.5744 232.92C81.6544 232.92 80.8344 233.127 80.1144 233.54C79.3944 233.953 78.8277 234.547 78.4144 235.32C78.0144 236.093 77.8144 236.993 77.8144 238.02C77.8144 239.047 78.0144 239.953 78.4144 240.74C78.8277 241.513 79.3944 242.113 80.1144 242.54C80.8344 242.953 81.6544 243.16 82.5744 243.16ZM110.018 231.1L105.898 245H103.318L100.398 234.48L97.298 245L94.738 245.02L90.798 231.1H93.218L96.098 242.42L99.218 231.1H101.778L104.678 242.36L107.578 231.1H110.018ZM127.394 231.1L122.794 239.96V245H120.514V239.96L115.894 231.1H118.434L121.654 237.92L124.874 231.1H127.394ZM135.543 245.14C134.25 245.14 133.056 244.84 131.963 244.24C130.883 243.627 130.023 242.78 129.383 241.7C128.756 240.607 128.443 239.38 128.443 238.02C128.443 236.66 128.756 235.44 129.383 234.36C130.023 233.28 130.883 232.44 131.963 231.84C133.056 231.227 134.25 230.92 135.543 230.92C136.85 230.92 138.043 231.227 139.123 231.84C140.216 232.44 141.076 233.28 141.703 234.36C142.33 235.44 142.643 236.66 142.643 238.02C142.643 239.38 142.33 240.607 141.703 241.7C141.076 242.78 140.216 243.627 139.123 244.24C138.043 244.84 136.85 245.14 135.543 245.14ZM135.543 243.16C136.463 243.16 137.283 242.953 138.003 242.54C138.723 242.113 139.283 241.513 139.683 240.74C140.096 239.953 140.303 239.047 140.303 238.02C140.303 236.993 140.096 236.093 139.683 235.32C139.283 234.547 138.723 233.953 138.003 233.54C137.283 233.127 136.463 232.92 135.543 232.92C134.623 232.92 133.803 233.127 133.083 233.54C132.363 233.953 131.796 234.547 131.383 235.32C130.983 236.093 130.783 236.993 130.783 238.02C130.783 239.047 130.983 239.953 131.383 240.74C131.796 241.513 132.363 242.113 133.083 242.54C133.803 242.953 134.623 243.16 135.543 243.16ZM147.147 231.1V239.96C147.147 241.013 147.42 241.807 147.967 242.34C148.527 242.873 149.3 243.14 150.287 243.14C151.287 243.14 152.06 242.873 152.607 242.34C153.167 241.807 153.447 241.013 153.447 239.96V231.1H155.727V239.92C155.727 241.053 155.48 242.013 154.987 242.8C154.493 243.587 153.833 244.173 153.007 244.56C152.18 244.947 151.267 245.14 150.267 245.14C149.267 245.14 148.353 244.947 147.527 244.56C146.713 244.173 146.067 243.587 145.587 242.8C145.107 242.013 144.867 241.053 144.867 239.92V231.1H147.147ZM172.271 242.16H166.451L165.451 245H163.071L168.051 231.08H170.691L175.671 245H173.271L172.271 242.16ZM171.631 240.3L169.371 233.84L167.091 240.3H171.631ZM185.056 245L181.856 239.44H180.116V245H177.836V231.1H182.636C183.703 231.1 184.603 231.287 185.336 231.66C186.083 232.033 186.636 232.533 186.996 233.16C187.369 233.787 187.556 234.487 187.556 235.26C187.556 236.167 187.289 236.993 186.756 237.74C186.236 238.473 185.429 238.973 184.336 239.24L187.776 245H185.056ZM180.116 237.62H182.636C183.489 237.62 184.129 237.407 184.556 236.98C184.996 236.553 185.216 235.98 185.216 235.26C185.216 234.54 185.003 233.98 184.576 233.58C184.149 233.167 183.503 232.96 182.636 232.96H180.116V237.62ZM192.753 232.94V237.02H197.553V238.88H192.753V243.14H198.153V245H190.473V231.08H198.153V232.94H192.753ZM213.596 237.86C214.343 237.993 214.976 238.387 215.496 239.04C216.016 239.693 216.276 240.433 216.276 241.26C216.276 241.967 216.09 242.607 215.716 243.18C215.356 243.74 214.83 244.187 214.136 244.52C213.443 244.84 212.636 245 211.716 245H206.156V231.1H211.456C212.403 231.1 213.216 231.26 213.896 231.58C214.576 231.9 215.09 232.333 215.436 232.88C215.783 233.413 215.956 234.013 215.956 234.68C215.956 235.48 215.743 236.147 215.316 236.68C214.89 237.213 214.316 237.607 213.596 237.86ZM208.436 236.94H211.256C212.003 236.94 212.583 236.773 212.996 236.44C213.423 236.093 213.636 235.6 213.636 234.96C213.636 234.333 213.423 233.847 212.996 233.5C212.583 233.14 212.003 232.96 211.256 232.96H208.436V236.94ZM211.516 243.14C212.29 243.14 212.896 242.953 213.336 242.58C213.776 242.207 213.996 241.687 213.996 241.02C213.996 240.34 213.763 239.8 213.296 239.4C212.83 239 212.21 238.8 211.436 238.8H208.436V243.14H211.516ZM221.014 231.1V239.96C221.014 241.013 221.287 241.807 221.834 242.34C222.394 242.873 223.167 243.14 224.154 243.14C225.154 243.14 225.927 242.873 226.474 242.34C227.034 241.807 227.314 241.013 227.314 239.96V231.1H229.594V239.92C229.594 241.053 229.347 242.013 228.854 242.8C228.361 243.587 227.701 244.173 226.874 244.56C226.047 244.947 225.134 245.14 224.134 245.14C223.134 245.14 222.221 244.947 221.394 244.56C220.581 244.173 219.934 243.587 219.454 242.8C218.974 242.013 218.734 241.053 218.734 239.92V231.1H221.014ZM237.143 245.14C236.209 245.14 235.369 244.98 234.623 244.66C233.876 244.327 233.289 243.86 232.863 243.26C232.436 242.66 232.223 241.96 232.223 241.16H234.663C234.716 241.76 234.949 242.253 235.363 242.64C235.789 243.027 236.383 243.22 237.143 243.22C237.929 243.22 238.543 243.033 238.983 242.66C239.423 242.273 239.643 241.78 239.643 241.18C239.643 240.713 239.503 240.333 239.223 240.04C238.956 239.747 238.616 239.52 238.203 239.36C237.803 239.2 237.243 239.027 236.523 238.84C235.616 238.6 234.876 238.36 234.303 238.12C233.743 237.867 233.263 237.48 232.863 236.96C232.463 236.44 232.263 235.747 232.263 234.88C232.263 234.08 232.463 233.38 232.863 232.78C233.263 232.18 233.823 231.72 234.543 231.4C235.263 231.08 236.096 230.92 237.043 230.92C238.389 230.92 239.489 231.26 240.343 231.94C241.209 232.607 241.689 233.527 241.783 234.7H239.263C239.223 234.193 238.983 233.76 238.543 233.4C238.103 233.04 237.523 232.86 236.803 232.86C236.149 232.86 235.616 233.027 235.203 233.36C234.789 233.693 234.583 234.173 234.583 234.8C234.583 235.227 234.709 235.58 234.963 235.86C235.229 236.127 235.563 236.34 235.963 236.5C236.363 236.66 236.909 236.833 237.603 237.02C238.523 237.273 239.269 237.527 239.843 237.78C240.429 238.033 240.923 238.427 241.323 238.96C241.736 239.48 241.943 240.18 241.943 241.06C241.943 241.767 241.749 242.433 241.363 243.06C240.989 243.687 240.436 244.193 239.703 244.58C238.983 244.953 238.129 245.14 237.143 245.14ZM254.933 231.1L250.333 239.96V245H248.053V239.96L243.433 231.1H245.973L249.193 237.92L252.413 231.1H254.933ZM19.84 275.14C18.5467 275.14 17.3533 274.84 16.26 274.24C15.18 273.627 14.32 272.78 13.68 271.7C13.0533 270.607 12.74 269.38 12.74 268.02C12.74 266.66 13.0533 265.44 13.68 264.36C14.32 263.28 15.18 262.44 16.26 261.84C17.3533 261.227 18.5467 260.92 19.84 260.92C21.1467 260.92 22.34 261.227 23.42 261.84C24.5133 262.44 25.3733 263.28 26 264.36C26.6267 265.44 26.94 266.66 26.94 268.02C26.94 269.38 26.6267 270.607 26 271.7C25.3733 272.78 24.5133 273.627 23.42 274.24C22.34 274.84 21.1467 275.14 19.84 275.14ZM19.84 273.16C20.76 273.16 21.58 272.953 22.3 272.54C23.02 272.113 23.58 271.513 23.98 270.74C24.3933 269.953 24.6 269.047 24.6 268.02C24.6 266.993 24.3933 266.093 23.98 265.32C23.58 264.547 23.02 263.953 22.3 263.54C21.58 263.127 20.76 262.92 19.84 262.92C18.92 262.92 18.1 263.127 17.38 263.54C16.66 263.953 16.0933 264.547 15.68 265.32C15.28 266.093 15.08 266.993 15.08 268.02C15.08 269.047 15.28 269.953 15.68 270.74C16.0933 271.513 16.66 272.113 17.38 272.54C18.1 272.953 18.92 273.16 19.84 273.16ZM40.6036 275H38.3236L31.4636 264.62V275H29.1836V261.08H31.4636L38.3236 271.44V261.08H40.6036V275ZM45.8777 262.94V267.02H50.6777V268.88H45.8777V273.14H51.2777V275H43.5977V261.08H51.2777V262.94H45.8777ZM73.9213 261.1V275H71.6413V265.48L67.4013 275H65.8213L61.5613 265.48V275H59.2813V261.1H61.7413L66.6213 272L71.4813 261.1H73.9213ZM79.198 261.1V275H76.918V261.1H79.198ZM93.6114 275H91.3314L84.4714 264.62V275H82.1914V261.08H84.4714L91.3314 271.44V261.08H93.6114V275ZM98.8655 261.1V269.96C98.8655 271.013 99.1388 271.807 99.6855 272.34C100.245 272.873 101.019 273.14 102.005 273.14C103.005 273.14 103.779 272.873 104.325 272.34C104.885 271.807 105.165 271.013 105.165 269.96V261.1H107.445V269.92C107.445 271.053 107.199 272.013 106.705 272.8C106.212 273.587 105.552 274.173 104.725 274.56C103.899 274.947 102.985 275.14 101.985 275.14C100.985 275.14 100.072 274.947 99.2455 274.56C98.4321 274.173 97.7855 273.587 97.3055 272.8C96.8255 272.013 96.5855 271.053 96.5855 269.92V261.1H98.8655ZM119.394 261.1V262.96H115.694V275H113.414V262.96H109.694V261.1H119.394ZM123.983 262.94V267.02H128.783V268.88H123.983V273.14H129.383V275H121.703V261.08H129.383V262.94H123.983ZM145.047 275L139.667 268.78V275H137.387V261.1H139.667V267.44L145.067 261.1H147.927L141.887 268.06L148.027 275H145.047ZM161.463 275H159.183L152.323 264.62V275H150.043V261.08H152.323L159.183 271.44V261.08H161.463V275ZM170.797 275.14C169.504 275.14 168.31 274.84 167.217 274.24C166.137 273.627 165.277 272.78 164.637 271.7C164.01 270.607 163.697 269.38 163.697 268.02C163.697 266.66 164.01 265.44 164.637 264.36C165.277 263.28 166.137 262.44 167.217 261.84C168.31 261.227 169.504 260.92 170.797 260.92C172.104 260.92 173.297 261.227 174.377 261.84C175.47 262.44 176.33 263.28 176.957 264.36C177.584 265.44 177.897 266.66 177.897 268.02C177.897 269.38 177.584 270.607 176.957 271.7C176.33 272.78 175.47 273.627 174.377 274.24C173.297 274.84 172.104 275.14 170.797 275.14ZM170.797 273.16C171.717 273.16 172.537 272.953 173.257 272.54C173.977 272.113 174.537 271.513 174.937 270.74C175.35 269.953 175.557 269.047 175.557 268.02C175.557 266.993 175.35 266.093 174.937 265.32C174.537 264.547 173.977 263.953 173.257 263.54C172.537 263.127 171.717 262.92 170.797 262.92C169.877 262.92 169.057 263.127 168.337 263.54C167.617 263.953 167.05 264.547 166.637 265.32C166.237 266.093 166.037 266.993 166.037 268.02C166.037 269.047 166.237 269.953 166.637 270.74C167.05 271.513 167.617 272.113 168.337 272.54C169.057 272.953 169.877 273.16 170.797 273.16ZM198.241 261.1L194.121 275H191.541L188.621 264.48L185.521 275L182.961 275.02L179.021 261.1H181.441L184.321 272.42L187.441 261.1H190.001L192.901 272.36L195.801 261.1H198.241ZM202.401 273.16H207.101V275H200.121V261.1H202.401V273.16ZM211.288 262.94V267.02H216.088V268.88H211.288V273.14H216.688V275H209.008V261.08H216.688V262.94H211.288ZM224.036 261.1C225.516 261.1 226.809 261.387 227.916 261.96C229.036 262.52 229.896 263.333 230.496 264.4C231.109 265.453 231.416 266.687 231.416 268.1C231.416 269.513 231.109 270.74 230.496 271.78C229.896 272.82 229.036 273.62 227.916 274.18C226.809 274.727 225.516 275 224.036 275H219.496V261.1H224.036ZM224.036 273.14C225.663 273.14 226.909 272.7 227.776 271.82C228.643 270.94 229.076 269.7 229.076 268.1C229.076 266.487 228.643 265.227 227.776 264.32C226.909 263.413 225.663 262.96 224.036 262.96H221.776V273.14H224.036ZM243.736 265.1C243.376 264.407 242.876 263.887 242.236 263.54C241.596 263.18 240.856 263 240.016 263C239.096 263 238.276 263.207 237.556 263.62C236.836 264.033 236.269 264.62 235.856 265.38C235.456 266.14 235.256 267.02 235.256 268.02C235.256 269.02 235.456 269.907 235.856 270.68C236.269 271.44 236.836 272.027 237.556 272.44C238.276 272.853 239.096 273.06 240.016 273.06C241.256 273.06 242.262 272.713 243.036 272.02C243.809 271.327 244.282 270.387 244.456 269.2H239.236V267.38H246.896V269.16C246.749 270.24 246.362 271.233 245.736 272.14C245.122 273.047 244.316 273.773 243.316 274.32C242.329 274.853 241.229 275.12 240.016 275.12C238.709 275.12 237.516 274.82 236.436 274.22C235.356 273.607 234.496 272.76 233.856 271.68C233.229 270.6 232.916 269.38 232.916 268.02C232.916 266.66 233.229 265.44 233.856 264.36C234.496 263.28 235.356 262.44 236.436 261.84C237.529 261.227 238.722 260.92 240.016 260.92C241.496 260.92 242.809 261.287 243.956 262.02C245.116 262.74 245.956 263.767 246.476 265.1H243.736ZM251.425 262.94V267.02H256.225V268.88H251.425V273.14H256.825V275H249.145V261.08H256.825V262.94H251.425ZM276.808 261.1L271.588 275H268.948L263.708 261.1H266.148L270.268 272.66L274.408 261.1H276.808ZM280.995 261.1V275H278.715V261.1H280.995ZM288.528 261.1C290.008 261.1 291.302 261.387 292.408 261.96C293.528 262.52 294.388 263.333 294.988 264.4C295.602 265.453 295.908 266.687 295.908 268.1C295.908 269.513 295.602 270.74 294.988 271.78C294.388 272.82 293.528 273.62 292.408 274.18C291.302 274.727 290.008 275 288.528 275H283.988V261.1H288.528ZM288.528 273.14C290.155 273.14 291.402 272.7 292.268 271.82C293.135 270.94 293.568 269.7 293.568 268.1C293.568 266.487 293.135 265.227 292.268 264.32C291.402 263.413 290.155 262.96 288.528 262.96H286.268V273.14H288.528ZM300.448 262.94V267.02H305.248V268.88H300.448V273.14H305.848V275H298.168V261.08H305.848V262.94H300.448ZM314.996 275.14C313.703 275.14 312.51 274.84 311.416 274.24C310.336 273.627 309.476 272.78 308.836 271.7C308.21 270.607 307.896 269.38 307.896 268.02C307.896 266.66 308.21 265.44 308.836 264.36C309.476 263.28 310.336 262.44 311.416 261.84C312.51 261.227 313.703 260.92 314.996 260.92C316.303 260.92 317.496 261.227 318.576 261.84C319.67 262.44 320.53 263.28 321.156 264.36C321.783 265.44 322.096 266.66 322.096 268.02C322.096 269.38 321.783 270.607 321.156 271.7C320.53 272.78 319.67 273.627 318.576 274.24C317.496 274.84 316.303 275.14 314.996 275.14ZM314.996 273.16C315.916 273.16 316.736 272.953 317.456 272.54C318.176 272.113 318.736 271.513 319.136 270.74C319.55 269.953 319.756 269.047 319.756 268.02C319.756 266.993 319.55 266.093 319.136 265.32C318.736 264.547 318.176 263.953 317.456 263.54C316.736 263.127 315.916 262.92 314.996 262.92C314.076 262.92 313.256 263.127 312.536 263.54C311.816 263.953 311.25 264.547 310.836 265.32C310.436 266.093 310.236 266.993 310.236 268.02C310.236 269.047 310.436 269.953 310.836 270.74C311.25 271.513 311.816 272.113 312.536 272.54C313.256 272.953 314.076 273.16 314.996 273.16ZM328.92 275.14C327.987 275.14 327.147 274.98 326.4 274.66C325.653 274.327 325.067 273.86 324.64 273.26C324.213 272.66 324 271.96 324 271.16H326.44C326.493 271.76 326.727 272.253 327.14 272.64C327.567 273.027 328.16 273.22 328.92 273.22C329.707 273.22 330.32 273.033 330.76 272.66C331.2 272.273 331.42 271.78 331.42 271.18C331.42 270.713 331.28 270.333 331 270.04C330.733 269.747 330.393 269.52 329.98 269.36C329.58 269.2 329.02 269.027 328.3 268.84C327.393 268.6 326.653 268.36 326.08 268.12C325.52 267.867 325.04 267.48 324.64 266.96C324.24 266.44 324.04 265.747 324.04 264.88C324.04 264.08 324.24 263.38 324.64 262.78C325.04 262.18 325.6 261.72 326.32 261.4C327.04 261.08 327.873 260.92 328.82 260.92C330.167 260.92 331.267 261.26 332.12 261.94C332.987 262.607 333.467 263.527 333.56 264.7H331.04C331 264.193 330.76 263.76 330.32 263.4C329.88 263.04 329.3 262.86 328.58 262.86C327.927 262.86 327.393 263.027 326.98 263.36C326.567 263.693 326.36 264.173 326.36 264.8C326.36 265.227 326.487 265.58 326.74 265.86C327.007 266.127 327.34 266.34 327.74 266.5C328.14 266.66 328.687 266.833 329.38 267.02C330.3 267.273 331.047 267.527 331.62 267.78C332.207 268.033 332.7 268.427 333.1 268.96C333.513 269.48 333.72 270.18 333.72 271.06C333.72 271.767 333.527 272.433 333.14 273.06C332.767 273.687 332.213 274.193 331.48 274.58C330.76 274.953 329.907 275.14 328.92 275.14ZM347.945 275.14C346.652 275.14 345.459 274.84 344.365 274.24C343.285 273.627 342.425 272.78 341.785 271.7C341.159 270.607 340.845 269.38 340.845 268.02C340.845 266.66 341.159 265.44 341.785 264.36C342.425 263.28 343.285 262.44 344.365 261.84C345.459 261.227 346.652 260.92 347.945 260.92C349.252 260.92 350.445 261.227 351.525 261.84C352.619 262.44 353.479 263.28 354.105 264.36C354.732 265.44 355.045 266.66 355.045 268.02C355.045 269.38 354.732 270.607 354.105 271.7C353.479 272.78 352.619 273.627 351.525 274.24C350.445 274.84 349.252 275.14 347.945 275.14ZM347.945 273.16C348.865 273.16 349.685 272.953 350.405 272.54C351.125 272.113 351.685 271.513 352.085 270.74C352.499 269.953 352.705 269.047 352.705 268.02C352.705 266.993 352.499 266.093 352.085 265.32C351.685 264.547 351.125 263.953 350.405 263.54C349.685 263.127 348.865 262.92 347.945 262.92C347.025 262.92 346.205 263.127 345.485 263.54C344.765 263.953 344.199 264.547 343.785 265.32C343.385 266.093 343.185 266.993 343.185 268.02C343.185 269.047 343.385 269.953 343.785 270.74C344.199 271.513 344.765 272.113 345.485 272.54C346.205 272.953 347.025 273.16 347.945 273.16ZM368.709 275H366.429L359.569 264.62V275H357.289V261.08H359.569L366.429 271.44V261.08H368.709V275ZM379.178 261.1V275H376.898V261.1H379.178ZM393.592 275H391.312L384.452 264.62V275H382.172V261.08H384.452L391.312 271.44V261.08H393.592V275ZM401.126 261.1C402.606 261.1 403.899 261.387 405.006 261.96C406.126 262.52 406.986 263.333 407.586 264.4C408.199 265.453 408.506 266.687 408.506 268.1C408.506 269.513 408.199 270.74 407.586 271.78C406.986 272.82 406.126 273.62 405.006 274.18C403.899 274.727 402.606 275 401.126 275H396.586V261.1H401.126ZM401.126 273.14C402.753 273.14 403.999 272.7 404.866 271.82C405.733 270.94 406.166 269.7 406.166 268.1C406.166 266.487 405.733 265.227 404.866 264.32C403.999 263.413 402.753 262.96 401.126 262.96H398.866V273.14H401.126ZM413.026 261.1V269.96C413.026 271.013 413.299 271.807 413.846 272.34C414.406 272.873 415.179 273.14 416.166 273.14C417.166 273.14 417.939 272.873 418.486 272.34C419.046 271.807 419.326 271.013 419.326 269.96V261.1H421.606V269.92C421.606 271.053 421.359 272.013 420.866 272.8C420.372 273.587 419.712 274.173 418.886 274.56C418.059 274.947 417.146 275.14 416.146 275.14C415.146 275.14 414.232 274.947 413.406 274.56C412.592 274.173 411.946 273.587 411.466 272.8C410.986 272.013 410.746 271.053 410.746 269.92V261.1H413.026ZM429.154 275.14C428.221 275.14 427.381 274.98 426.634 274.66C425.888 274.327 425.301 273.86 424.874 273.26C424.448 272.66 424.234 271.96 424.234 271.16H426.674C426.728 271.76 426.961 272.253 427.374 272.64C427.801 273.027 428.394 273.22 429.154 273.22C429.941 273.22 430.554 273.033 430.994 272.66C431.434 272.273 431.654 271.78 431.654 271.18C431.654 270.713 431.514 270.333 431.234 270.04C430.968 269.747 430.628 269.52 430.214 269.36C429.814 269.2 429.254 269.027 428.534 268.84C427.628 268.6 426.888 268.36 426.314 268.12C425.754 267.867 425.274 267.48 424.874 266.96C424.474 266.44 424.274 265.747 424.274 264.88C424.274 264.08 424.474 263.38 424.874 262.78C425.274 262.18 425.834 261.72 426.554 261.4C427.274 261.08 428.108 260.92 429.054 260.92C430.401 260.92 431.501 261.26 432.354 261.94C433.221 262.607 433.701 263.527 433.794 264.7H431.274C431.234 264.193 430.994 263.76 430.554 263.4C430.114 263.04 429.534 262.86 428.814 262.86C428.161 262.86 427.628 263.027 427.214 263.36C426.801 263.693 426.594 264.173 426.594 264.8C426.594 265.227 426.721 265.58 426.974 265.86C427.241 266.127 427.574 266.34 427.974 266.5C428.374 266.66 428.921 266.833 429.614 267.02C430.534 267.273 431.281 267.527 431.854 267.78C432.441 268.033 432.934 268.427 433.334 268.96C433.748 269.48 433.954 270.18 433.954 271.06C433.954 271.767 433.761 272.433 433.374 273.06C433.001 273.687 432.448 274.193 431.714 274.58C430.994 274.953 430.141 275.14 429.154 275.14ZM445.625 261.1V262.96H441.925V275H439.645V262.96H435.925V261.1H445.625ZM455.154 275L451.954 269.44H450.214V275H447.934V261.1H452.734C453.8 261.1 454.7 261.287 455.434 261.66C456.18 262.033 456.734 262.533 457.094 263.16C457.467 263.787 457.654 264.487 457.654 265.26C457.654 266.167 457.387 266.993 456.854 267.74C456.334 268.473 455.527 268.973 454.434 269.24L457.874 275H455.154ZM450.214 267.62H452.734C453.587 267.62 454.227 267.407 454.654 266.98C455.094 266.553 455.314 265.98 455.314 265.26C455.314 264.54 455.1 263.98 454.674 263.58C454.247 263.167 453.6 262.96 452.734 262.96H450.214V267.62ZM462.85 261.1V275H460.57V261.1H462.85ZM468.124 262.94V267.02H472.924V268.88H468.124V273.14H473.524V275H465.844V261.08H473.524V262.94H468.124ZM480.912 275.14C479.979 275.14 479.139 274.98 478.392 274.66C477.645 274.327 477.059 273.86 476.632 273.26C476.205 272.66 475.992 271.96 475.992 271.16H478.432C478.485 271.76 478.719 272.253 479.132 272.64C479.559 273.027 480.152 273.22 480.912 273.22C481.699 273.22 482.312 273.033 482.752 272.66C483.192 272.273 483.412 271.78 483.412 271.18C483.412 270.713 483.272 270.333 482.992 270.04C482.725 269.747 482.385 269.52 481.972 269.36C481.572 269.2 481.012 269.027 480.292 268.84C479.385 268.6 478.645 268.36 478.072 268.12C477.512 267.867 477.032 267.48 476.632 266.96C476.232 266.44 476.032 265.747 476.032 264.88C476.032 264.08 476.232 263.38 476.632 262.78C477.032 262.18 477.592 261.72 478.312 261.4C479.032 261.08 479.865 260.92 480.812 260.92C482.159 260.92 483.259 261.26 484.112 261.94C484.979 262.607 485.459 263.527 485.552 264.7H483.032C482.992 264.193 482.752 263.76 482.312 263.4C481.872 263.04 481.292 262.86 480.572 262.86C479.919 262.86 479.385 263.027 478.972 263.36C478.559 263.693 478.352 264.173 478.352 264.8C478.352 265.227 478.479 265.58 478.732 265.86C478.999 266.127 479.332 266.34 479.732 266.5C480.132 266.66 480.679 266.833 481.372 267.02C482.292 267.273 483.039 267.527 483.612 267.78C484.199 268.033 484.692 268.427 485.092 268.96C485.505 269.48 485.712 270.18 485.712 271.06C485.712 271.767 485.519 272.433 485.132 273.06C484.759 273.687 484.205 274.193 483.472 274.58C482.752 274.953 481.899 275.14 480.912 275.14ZM495.858 261.1V269.96C495.858 271.013 496.131 271.807 496.678 272.34C497.238 272.873 498.011 273.14 498.998 273.14C499.998 273.14 500.771 272.873 501.318 272.34C501.878 271.807 502.158 271.013 502.158 269.96V261.1H504.438V269.92C504.438 271.053 504.191 272.013 503.698 272.8C503.204 273.587 502.544 274.173 501.718 274.56C500.891 274.947 499.978 275.14 498.978 275.14C497.978 275.14 497.064 274.947 496.238 274.56C495.424 274.173 494.778 273.587 494.298 272.8C493.818 272.013 493.578 271.053 493.578 269.92V261.1H495.858ZM517.126 265.24C517.126 265.947 516.96 266.613 516.626 267.24C516.293 267.867 515.76 268.38 515.026 268.78C514.293 269.167 513.353 269.36 512.206 269.36H509.686V275H507.406V261.1H512.206C513.273 261.1 514.173 261.287 514.906 261.66C515.653 262.02 516.206 262.513 516.566 263.14C516.94 263.767 517.126 264.467 517.126 265.24ZM512.206 267.5C513.073 267.5 513.72 267.307 514.146 266.92C514.573 266.52 514.786 265.96 514.786 265.24C514.786 263.72 513.926 262.96 512.206 262.96H509.686V267.5H512.206ZM523.841 261.1C525.321 261.1 526.614 261.387 527.721 261.96C528.841 262.52 529.701 263.333 530.301 264.4C530.914 265.453 531.221 266.687 531.221 268.1C531.221 269.513 530.914 270.74 530.301 271.78C529.701 272.82 528.841 273.62 527.721 274.18C526.614 274.727 525.321 275 523.841 275H519.301V261.1H523.841ZM523.841 273.14C525.467 273.14 526.714 272.7 527.581 271.82C528.447 270.94 528.881 269.7 528.881 268.1C528.881 266.487 528.447 265.227 527.581 264.32C526.714 263.413 525.467 262.96 523.841 262.96H521.581V273.14H523.841ZM541.86 272.16H536.04L535.04 275H532.66L537.64 261.08H540.28L545.26 275H542.86L541.86 272.16ZM541.22 270.3L538.96 263.84L536.68 270.3H541.22ZM556.406 261.1V262.96H552.706V275H550.426V262.96H546.706V261.1H556.406ZM560.995 262.94V267.02H565.795V268.88H560.995V273.14H566.395V275H558.715V261.08H566.395V262.94H560.995ZM573.783 275.14C572.85 275.14 572.01 274.98 571.263 274.66C570.516 274.327 569.93 273.86 569.503 273.26C569.076 272.66 568.863 271.96 568.863 271.16H571.303C571.356 271.76 571.59 272.253 572.003 272.64C572.43 273.027 573.023 273.22 573.783 273.22C574.57 273.22 575.183 273.033 575.623 272.66C576.063 272.273 576.283 271.78 576.283 271.18C576.283 270.713 576.143 270.333 575.863 270.04C575.596 269.747 575.256 269.52 574.843 269.36C574.443 269.2 573.883 269.027 573.163 268.84C572.256 268.6 571.516 268.36 570.943 268.12C570.383 267.867 569.903 267.48 569.503 266.96C569.103 266.44 568.903 265.747 568.903 264.88C568.903 264.08 569.103 263.38 569.503 262.78C569.903 262.18 570.463 261.72 571.183 261.4C571.903 261.08 572.736 260.92 573.683 260.92C575.03 260.92 576.13 261.26 576.983 261.94C577.85 262.607 578.33 263.527 578.423 264.7H575.903C575.863 264.193 575.623 263.76 575.183 263.4C574.743 263.04 574.163 262.86 573.443 262.86C572.79 262.86 572.256 263.027 571.843 263.36C571.43 263.693 571.223 264.173 571.223 264.8C571.223 265.227 571.35 265.58 571.603 265.86C571.87 266.127 572.203 266.34 572.603 266.5C573.003 266.66 573.55 266.833 574.243 267.02C575.163 267.273 575.91 267.527 576.483 267.78C577.07 268.033 577.563 268.427 577.963 268.96C578.376 269.48 578.583 270.18 578.583 271.06C578.583 271.767 578.39 272.433 578.003 273.06C577.63 273.687 577.076 274.193 576.343 274.58C575.623 274.953 574.77 275.14 573.783 275.14ZM21.88 302.16H16.06L15.06 305H12.68L17.66 291.08H20.3L25.28 305H22.88L21.88 302.16ZM21.24 300.3L18.98 293.84L16.7 300.3H21.24ZM38.8653 305H36.5853L29.7253 294.62V305H27.4453V291.08H29.7253L36.5853 301.44V291.08H38.8653V305ZM46.3994 291.1C47.8794 291.1 49.1727 291.387 50.2794 291.96C51.3994 292.52 52.2594 293.333 52.8594 294.4C53.4727 295.453 53.7794 296.687 53.7794 298.1C53.7794 299.513 53.4727 300.74 52.8594 301.78C52.2594 302.82 51.3994 303.62 50.2794 304.18C49.1727 304.727 47.8794 305 46.3994 305H41.8594V291.1H46.3994ZM46.3994 303.14C48.026 303.14 49.2727 302.7 50.1394 301.82C51.006 300.94 51.4394 299.7 51.4394 298.1C51.4394 296.487 51.006 295.227 50.1394 294.32C49.2727 293.413 48.026 292.96 46.3994 292.96H44.1394V303.14H46.3994ZM70.2144 291.1V292.96H66.5144V305H64.2344V292.96H60.5144V291.1H70.2144ZM74.8034 292.94V297.02H79.6034V298.88H74.8034V303.14H80.2034V305H72.5234V291.08H80.2034V292.94H74.8034ZM82.2517 298.02C82.2517 296.66 82.5651 295.44 83.1917 294.36C83.8317 293.28 84.6917 292.44 85.7717 291.84C86.8651 291.227 88.0584 290.92 89.3517 290.92C90.8317 290.92 92.1451 291.287 93.2917 292.02C94.4517 292.74 95.2917 293.767 95.8117 295.1H93.0717C92.7117 294.367 92.2117 293.82 91.5717 293.46C90.9317 293.1 90.1917 292.92 89.3517 292.92C88.4317 292.92 87.6117 293.127 86.8917 293.54C86.1717 293.953 85.6051 294.547 85.1917 295.32C84.7917 296.093 84.5917 296.993 84.5917 298.02C84.5917 299.047 84.7917 299.947 85.1917 300.72C85.6051 301.493 86.1717 302.093 86.8917 302.52C87.6117 302.933 88.4317 303.14 89.3517 303.14C90.1917 303.14 90.9317 302.96 91.5717 302.6C92.2117 302.24 92.7117 301.693 93.0717 300.96H95.8117C95.2917 302.293 94.4517 303.32 93.2917 304.04C92.1451 304.76 90.8317 305.12 89.3517 305.12C88.0451 305.12 86.8517 304.82 85.7717 304.22C84.6917 303.607 83.8317 302.76 83.1917 301.68C82.5651 300.6 82.2517 299.38 82.2517 298.02ZM109.58 291.1V305H107.3V298.92H100.76V305H98.4805V291.1H100.76V297.06H107.3V291.1H109.58ZM124.002 305H121.722L114.862 294.62V305H112.582V291.08H114.862L121.722 301.44V291.08H124.002V305ZM133.336 305.14C132.043 305.14 130.849 304.84 129.756 304.24C128.676 303.627 127.816 302.78 127.176 301.7C126.549 300.607 126.236 299.38 126.236 298.02C126.236 296.66 126.549 295.44 127.176 294.36C127.816 293.28 128.676 292.44 129.756 291.84C130.849 291.227 132.043 290.92 133.336 290.92C134.643 290.92 135.836 291.227 136.916 291.84C138.009 292.44 138.869 293.28 139.496 294.36C140.123 295.44 140.436 296.66 140.436 298.02C140.436 299.38 140.123 300.607 139.496 301.7C138.869 302.78 138.009 303.627 136.916 304.24C135.836 304.84 134.643 305.14 133.336 305.14ZM133.336 303.16C134.256 303.16 135.076 302.953 135.796 302.54C136.516 302.113 137.076 301.513 137.476 300.74C137.889 299.953 138.096 299.047 138.096 298.02C138.096 296.993 137.889 296.093 137.476 295.32C137.076 294.547 136.516 293.953 135.796 293.54C135.076 293.127 134.256 292.92 133.336 292.92C132.416 292.92 131.596 293.127 130.876 293.54C130.156 293.953 129.589 294.547 129.176 295.32C128.776 296.093 128.576 296.993 128.576 298.02C128.576 299.047 128.776 299.953 129.176 300.74C129.589 301.513 130.156 302.113 130.876 302.54C131.596 302.953 132.416 303.16 133.336 303.16ZM144.96 303.16H149.66V305H142.68V291.1H144.96V303.16ZM157.906 305.14C156.613 305.14 155.42 304.84 154.326 304.24C153.246 303.627 152.386 302.78 151.746 301.7C151.12 300.607 150.806 299.38 150.806 298.02C150.806 296.66 151.12 295.44 151.746 294.36C152.386 293.28 153.246 292.44 154.326 291.84C155.42 291.227 156.613 290.92 157.906 290.92C159.213 290.92 160.406 291.227 161.486 291.84C162.58 292.44 163.44 293.28 164.066 294.36C164.693 295.44 165.006 296.66 165.006 298.02C165.006 299.38 164.693 300.607 164.066 301.7C163.44 302.78 162.58 303.627 161.486 304.24C160.406 304.84 159.213 305.14 157.906 305.14ZM157.906 303.16C158.826 303.16 159.646 302.953 160.366 302.54C161.086 302.113 161.646 301.513 162.046 300.74C162.46 299.953 162.666 299.047 162.666 298.02C162.666 296.993 162.46 296.093 162.046 295.32C161.646 294.547 161.086 293.953 160.366 293.54C159.646 293.127 158.826 292.92 157.906 292.92C156.986 292.92 156.166 293.127 155.446 293.54C154.726 293.953 154.16 294.547 153.746 295.32C153.346 296.093 153.146 296.993 153.146 298.02C153.146 299.047 153.346 299.953 153.746 300.74C154.16 301.513 154.726 302.113 155.446 302.54C156.166 302.953 156.986 303.16 157.906 303.16ZM177.31 295.1C176.95 294.407 176.45 293.887 175.81 293.54C175.17 293.18 174.43 293 173.59 293C172.67 293 171.85 293.207 171.13 293.62C170.41 294.033 169.843 294.62 169.43 295.38C169.03 296.14 168.83 297.02 168.83 298.02C168.83 299.02 169.03 299.907 169.43 300.68C169.843 301.44 170.41 302.027 171.13 302.44C171.85 302.853 172.67 303.06 173.59 303.06C174.83 303.06 175.837 302.713 176.61 302.02C177.383 301.327 177.857 300.387 178.03 299.2H172.81V297.38H180.47V299.16C180.323 300.24 179.937 301.233 179.31 302.14C178.697 303.047 177.89 303.773 176.89 304.32C175.903 304.853 174.803 305.12 173.59 305.12C172.283 305.12 171.09 304.82 170.01 304.22C168.93 303.607 168.07 302.76 167.43 301.68C166.803 300.6 166.49 299.38 166.49 298.02C166.49 296.66 166.803 295.44 167.43 294.36C168.07 293.28 168.93 292.44 170.01 291.84C171.103 291.227 172.297 290.92 173.59 290.92C175.07 290.92 176.383 291.287 177.53 292.02C178.69 292.74 179.53 293.767 180.05 295.1H177.31ZM184.999 291.1V305H182.719V291.1H184.999ZM190.272 292.94V297.02H195.072V298.88H190.272V303.14H195.672V305H187.992V291.08H195.672V292.94H190.272ZM203.06 305.14C202.127 305.14 201.287 304.98 200.54 304.66C199.794 304.327 199.207 303.86 198.78 303.26C198.354 302.66 198.14 301.96 198.14 301.16H200.58C200.634 301.76 200.867 302.253 201.28 302.64C201.707 303.027 202.3 303.22 203.06 303.22C203.847 303.22 204.46 303.033 204.9 302.66C205.34 302.273 205.56 301.78 205.56 301.18C205.56 300.713 205.42 300.333 205.14 300.04C204.874 299.747 204.534 299.52 204.12 299.36C203.72 299.2 203.16 299.027 202.44 298.84C201.534 298.6 200.794 298.36 200.22 298.12C199.66 297.867 199.18 297.48 198.78 296.96C198.38 296.44 198.18 295.747 198.18 294.88C198.18 294.08 198.38 293.38 198.78 292.78C199.18 292.18 199.74 291.72 200.46 291.4C201.18 291.08 202.014 290.92 202.96 290.92C204.307 290.92 205.407 291.26 206.26 291.94C207.127 292.607 207.607 293.527 207.7 294.7H205.18C205.14 294.193 204.9 293.76 204.46 293.4C204.02 293.04 203.44 292.86 202.72 292.86C202.067 292.86 201.534 293.027 201.12 293.36C200.707 293.693 200.5 294.173 200.5 294.8C200.5 295.227 200.627 295.58 200.88 295.86C201.147 296.127 201.48 296.34 201.88 296.5C202.28 296.66 202.827 296.833 203.52 297.02C204.44 297.273 205.187 297.527 205.76 297.78C206.347 298.033 206.84 298.427 207.24 298.96C207.654 299.48 207.86 300.18 207.86 301.06C207.86 301.767 207.667 302.433 207.28 303.06C206.907 303.687 206.354 304.193 205.62 304.58C204.9 304.953 204.047 305.14 203.06 305.14ZM224.726 291.1V292.96H221.026V305H218.746V292.96H215.026V291.1H224.726ZM238.135 291.1V305H235.855V298.92H229.315V305H227.035V291.1H229.315V297.06H235.855V291.1H238.135ZM249.517 302.16H243.697L242.697 305H240.317L245.297 291.08H247.937L252.917 305H250.517L249.517 302.16ZM248.877 300.3L246.617 293.84L244.337 300.3H248.877ZM264.062 291.1V292.96H260.362V305H258.082V292.96H254.362V291.1H264.062ZM281.866 291.1L277.266 299.96V305H274.986V299.96L270.366 291.1H272.906L276.126 297.92L279.346 291.1H281.866ZM290.016 305.14C288.722 305.14 287.529 304.84 286.436 304.24C285.356 303.627 284.496 302.78 283.856 301.7C283.229 300.607 282.916 299.38 282.916 298.02C282.916 296.66 283.229 295.44 283.856 294.36C284.496 293.28 285.356 292.44 286.436 291.84C287.529 291.227 288.722 290.92 290.016 290.92C291.322 290.92 292.516 291.227 293.596 291.84C294.689 292.44 295.549 293.28 296.176 294.36C296.802 295.44 297.116 296.66 297.116 298.02C297.116 299.38 296.802 300.607 296.176 301.7C295.549 302.78 294.689 303.627 293.596 304.24C292.516 304.84 291.322 305.14 290.016 305.14ZM290.016 303.16C290.936 303.16 291.756 302.953 292.476 302.54C293.196 302.113 293.756 301.513 294.156 300.74C294.569 299.953 294.776 299.047 294.776 298.02C294.776 296.993 294.569 296.093 294.156 295.32C293.756 294.547 293.196 293.953 292.476 293.54C291.756 293.127 290.936 292.92 290.016 292.92C289.096 292.92 288.276 293.127 287.556 293.54C286.836 293.953 286.269 294.547 285.856 295.32C285.456 296.093 285.256 296.993 285.256 298.02C285.256 299.047 285.456 299.953 285.856 300.74C286.269 301.513 286.836 302.113 287.556 302.54C288.276 302.953 289.096 303.16 290.016 303.16ZM301.619 291.1V299.96C301.619 301.013 301.893 301.807 302.439 302.34C302.999 302.873 303.773 303.14 304.759 303.14C305.759 303.14 306.533 302.873 307.079 302.34C307.639 301.807 307.919 301.013 307.919 299.96V291.1H310.199V299.92C310.199 301.053 309.953 302.013 309.459 302.8C308.966 303.587 308.306 304.173 307.479 304.56C306.653 304.947 305.739 305.14 304.739 305.14C303.739 305.14 302.826 304.947 301.999 304.56C301.186 304.173 300.539 303.587 300.059 302.8C299.579 302.013 299.339 301.053 299.339 299.92V291.1H301.619ZM329.783 305H327.503L320.643 294.62V305H318.363V291.08H320.643L327.503 301.44V291.08H329.783V305ZM335.057 292.94V297.02H339.857V298.88H335.057V303.14H340.457V305H332.777V291.08H340.457V292.94H335.057ZM345.546 292.94V297.02H350.346V298.88H345.546V303.14H350.946V305H343.266V291.08H350.946V292.94H345.546ZM358.294 291.1C359.774 291.1 361.067 291.387 362.174 291.96C363.294 292.52 364.154 293.333 364.754 294.4C365.367 295.453 365.674 296.687 365.674 298.1C365.674 299.513 365.367 300.74 364.754 301.78C364.154 302.82 363.294 303.62 362.174 304.18C361.067 304.727 359.774 305 358.294 305H353.754V291.1H358.294ZM358.294 303.14C359.921 303.14 361.167 302.7 362.034 301.82C362.901 300.94 363.334 299.7 363.334 298.1C363.334 296.487 362.901 295.227 362.034 294.32C361.167 293.413 359.921 292.96 358.294 292.96H356.034V303.14H358.294ZM382.109 291.1V292.96H378.409V305H376.129V292.96H372.409V291.1H382.109ZM390.758 305.14C389.465 305.14 388.271 304.84 387.178 304.24C386.098 303.627 385.238 302.78 384.598 301.7C383.971 300.607 383.658 299.38 383.658 298.02C383.658 296.66 383.971 295.44 384.598 294.36C385.238 293.28 386.098 292.44 387.178 291.84C388.271 291.227 389.465 290.92 390.758 290.92C392.065 290.92 393.258 291.227 394.338 291.84C395.431 292.44 396.291 293.28 396.918 294.36C397.545 295.44 397.858 296.66 397.858 298.02C397.858 299.38 397.545 300.607 396.918 301.7C396.291 302.78 395.431 303.627 394.338 304.24C393.258 304.84 392.065 305.14 390.758 305.14ZM390.758 303.16C391.678 303.16 392.498 302.953 393.218 302.54C393.938 302.113 394.498 301.513 394.898 300.74C395.311 299.953 395.518 299.047 395.518 298.02C395.518 296.993 395.311 296.093 394.898 295.32C394.498 294.547 393.938 293.953 393.218 293.54C392.498 293.127 391.678 292.92 390.758 292.92C389.838 292.92 389.018 293.127 388.298 293.54C387.578 293.953 387.011 294.547 386.598 295.32C386.198 296.093 385.998 296.993 385.998 298.02C385.998 299.047 386.198 299.953 386.598 300.74C387.011 301.513 387.578 302.113 388.298 302.54C389.018 302.953 389.838 303.16 390.758 303.16ZM415.357 295.1C414.997 294.407 414.497 293.887 413.857 293.54C413.217 293.18 412.477 293 411.637 293C410.717 293 409.897 293.207 409.177 293.62C408.457 294.033 407.89 294.62 407.477 295.38C407.077 296.14 406.877 297.02 406.877 298.02C406.877 299.02 407.077 299.907 407.477 300.68C407.89 301.44 408.457 302.027 409.177 302.44C409.897 302.853 410.717 303.06 411.637 303.06C412.877 303.06 413.884 302.713 414.657 302.02C415.43 301.327 415.904 300.387 416.077 299.2H410.857V297.38H418.517V299.16C418.37 300.24 417.984 301.233 417.357 302.14C416.744 303.047 415.937 303.773 414.937 304.32C413.95 304.853 412.85 305.12 411.637 305.12C410.33 305.12 409.137 304.82 408.057 304.22C406.977 303.607 406.117 302.76 405.477 301.68C404.85 300.6 404.537 299.38 404.537 298.02C404.537 296.66 404.85 295.44 405.477 294.36C406.117 293.28 406.977 292.44 408.057 291.84C409.15 291.227 410.344 290.92 411.637 290.92C413.117 290.92 414.43 291.287 415.577 292.02C416.737 292.74 417.577 293.767 418.097 295.1H415.357ZM427.986 305L424.786 299.44H423.046V305H420.766V291.1H425.566C426.632 291.1 427.532 291.287 428.266 291.66C429.012 292.033 429.566 292.533 429.926 293.16C430.299 293.787 430.486 294.487 430.486 295.26C430.486 296.167 430.219 296.993 429.686 297.74C429.166 298.473 428.359 298.973 427.266 299.24L430.706 305H427.986ZM423.046 297.62H425.566C426.419 297.62 427.059 297.407 427.486 296.98C427.926 296.553 428.146 295.98 428.146 295.26C428.146 294.54 427.932 293.98 427.506 293.58C427.079 293.167 426.432 292.96 425.566 292.96H423.046V297.62ZM439.742 305.14C438.449 305.14 437.256 304.84 436.162 304.24C435.082 303.627 434.222 302.78 433.582 301.7C432.956 300.607 432.642 299.38 432.642 298.02C432.642 296.66 432.956 295.44 433.582 294.36C434.222 293.28 435.082 292.44 436.162 291.84C437.256 291.227 438.449 290.92 439.742 290.92C441.049 290.92 442.242 291.227 443.322 291.84C444.416 292.44 445.276 293.28 445.902 294.36C446.529 295.44 446.842 296.66 446.842 298.02C446.842 299.38 446.529 300.607 445.902 301.7C445.276 302.78 444.416 303.627 443.322 304.24C442.242 304.84 441.049 305.14 439.742 305.14ZM439.742 303.16C440.662 303.16 441.482 302.953 442.202 302.54C442.922 302.113 443.482 301.513 443.882 300.74C444.296 299.953 444.502 299.047 444.502 298.02C444.502 296.993 444.296 296.093 443.882 295.32C443.482 294.547 442.922 293.953 442.202 293.54C441.482 293.127 440.662 292.92 439.742 292.92C438.822 292.92 438.002 293.127 437.282 293.54C436.562 293.953 435.996 294.547 435.582 295.32C435.182 296.093 434.982 296.993 434.982 298.02C434.982 299.047 435.182 299.953 435.582 300.74C435.996 301.513 436.562 302.113 437.282 302.54C438.002 302.953 438.822 303.16 439.742 303.16ZM467.186 291.1L463.066 305H460.486L457.566 294.48L454.466 305L451.906 305.02L447.966 291.1H450.386L453.266 302.42L456.386 291.1H458.946L461.846 302.36L464.746 291.1H467.186ZM484.562 291.1L479.962 299.96V305H477.682V299.96L473.062 291.1H475.602L478.822 297.92L482.042 291.1H484.562ZM492.711 305.14C491.418 305.14 490.224 304.84 489.131 304.24C488.051 303.627 487.191 302.78 486.551 301.7C485.924 300.607 485.611 299.38 485.611 298.02C485.611 296.66 485.924 295.44 486.551 294.36C487.191 293.28 488.051 292.44 489.131 291.84C490.224 291.227 491.418 290.92 492.711 290.92C494.018 290.92 495.211 291.227 496.291 291.84C497.384 292.44 498.244 293.28 498.871 294.36C499.498 295.44 499.811 296.66 499.811 298.02C499.811 299.38 499.498 300.607 498.871 301.7C498.244 302.78 497.384 303.627 496.291 304.24C495.211 304.84 494.018 305.14 492.711 305.14ZM492.711 303.16C493.631 303.16 494.451 302.953 495.171 302.54C495.891 302.113 496.451 301.513 496.851 300.74C497.264 299.953 497.471 299.047 497.471 298.02C497.471 296.993 497.264 296.093 496.851 295.32C496.451 294.547 495.891 293.953 495.171 293.54C494.451 293.127 493.631 292.92 492.711 292.92C491.791 292.92 490.971 293.127 490.251 293.54C489.531 293.953 488.964 294.547 488.551 295.32C488.151 296.093 487.951 296.993 487.951 298.02C487.951 299.047 488.151 299.953 488.551 300.74C488.964 301.513 489.531 302.113 490.251 302.54C490.971 302.953 491.791 303.16 492.711 303.16ZM504.315 291.1V299.96C504.315 301.013 504.588 301.807 505.135 302.34C505.695 302.873 506.468 303.14 507.455 303.14C508.455 303.14 509.228 302.873 509.775 302.34C510.335 301.807 510.615 301.013 510.615 299.96V291.1H512.895V299.92C512.895 301.053 512.648 302.013 512.155 302.8C511.661 303.587 511.001 304.173 510.175 304.56C509.348 304.947 508.435 305.14 507.435 305.14C506.435 305.14 505.521 304.947 504.695 304.56C503.881 304.173 503.235 303.587 502.755 302.8C502.275 302.013 502.035 301.053 502.035 299.92V291.1H504.315ZM523.083 305L519.883 299.44H518.143V305H515.863V291.1H520.663C521.73 291.1 522.63 291.287 523.363 291.66C524.11 292.033 524.663 292.533 525.023 293.16C525.397 293.787 525.583 294.487 525.583 295.26C525.583 296.167 525.317 296.993 524.783 297.74C524.263 298.473 523.457 298.973 522.363 299.24L525.803 305H523.083ZM518.143 297.62H520.663C521.517 297.62 522.157 297.407 522.583 296.98C523.023 296.553 523.243 295.98 523.243 295.26C523.243 294.54 523.03 293.98 522.603 293.58C522.177 293.167 521.53 292.96 520.663 292.96H518.143V297.62ZM20.94 327.86C21.6867 327.993 22.32 328.387 22.84 329.04C23.36 329.693 23.62 330.433 23.62 331.26C23.62 331.967 23.4333 332.607 23.06 333.18C22.7 333.74 22.1733 334.187 21.48 334.52C20.7867 334.84 19.98 335 19.06 335H13.5V321.1H18.8C19.7467 321.1 20.56 321.26 21.24 321.58C21.92 321.9 22.4333 322.333 22.78 322.88C23.1267 323.413 23.3 324.013 23.3 324.68C23.3 325.48 23.0867 326.147 22.66 326.68C22.2333 327.213 21.66 327.607 20.94 327.86ZM15.78 326.94H18.6C19.3467 326.94 19.9267 326.773 20.34 326.44C20.7667 326.093 20.98 325.6 20.98 324.96C20.98 324.333 20.7667 323.847 20.34 323.5C19.9267 323.14 19.3467 322.96 18.6 322.96H15.78V326.94ZM18.86 333.14C19.6333 333.14 20.24 332.953 20.68 332.58C21.12 332.207 21.34 331.687 21.34 331.02C21.34 330.34 21.1067 329.8 20.64 329.4C20.1733 329 19.5533 328.8 18.78 328.8H15.78V333.14H18.86ZM28.3577 321.1V329.96C28.3577 331.013 28.631 331.807 29.1777 332.34C29.7377 332.873 30.511 333.14 31.4977 333.14C32.4977 333.14 33.271 332.873 33.8177 332.34C34.3777 331.807 34.6577 331.013 34.6577 329.96V321.1H36.9377V329.92C36.9377 331.053 36.691 332.013 36.1977 332.8C35.7043 333.587 35.0443 334.173 34.2177 334.56C33.391 334.947 32.4777 335.14 31.4777 335.14C30.4777 335.14 29.5643 334.947 28.7377 334.56C27.9243 334.173 27.2777 333.587 26.7977 332.8C26.3177 332.013 26.0777 331.053 26.0777 329.92V321.1H28.3577ZM44.4863 335.14C43.5529 335.14 42.7129 334.98 41.9663 334.66C41.2196 334.327 40.6329 333.86 40.2063 333.26C39.7796 332.66 39.5663 331.96 39.5663 331.16H42.0063C42.0596 331.76 42.2929 332.253 42.7063 332.64C43.1329 333.027 43.7263 333.22 44.4863 333.22C45.2729 333.22 45.8863 333.033 46.3263 332.66C46.7663 332.273 46.9863 331.78 46.9863 331.18C46.9863 330.713 46.8463 330.333 46.5663 330.04C46.2996 329.747 45.9596 329.52 45.5463 329.36C45.1463 329.2 44.5863 329.027 43.8663 328.84C42.9596 328.6 42.2196 328.36 41.6463 328.12C41.0863 327.867 40.6063 327.48 40.2063 326.96C39.8063 326.44 39.6063 325.747 39.6063 324.88C39.6063 324.08 39.8063 323.38 40.2063 322.78C40.6063 322.18 41.1663 321.72 41.8863 321.4C42.6063 321.08 43.4396 320.92 44.3863 320.92C45.7329 320.92 46.8329 321.26 47.6863 321.94C48.5529 322.607 49.0329 323.527 49.1263 324.7H46.6063C46.5663 324.193 46.3263 323.76 45.8863 323.4C45.4463 323.04 44.8663 322.86 44.1463 322.86C43.4929 322.86 42.9596 323.027 42.5463 323.36C42.1329 323.693 41.9263 324.173 41.9263 324.8C41.9263 325.227 42.0529 325.58 42.3063 325.86C42.5729 326.127 42.9063 326.34 43.3063 326.5C43.7063 326.66 44.2529 326.833 44.9463 327.02C45.8663 327.273 46.6129 327.527 47.1863 327.78C47.7729 328.033 48.2663 328.427 48.6663 328.96C49.0796 329.48 49.2863 330.18 49.2863 331.06C49.2863 331.767 49.0929 332.433 48.7063 333.06C48.3329 333.687 47.7796 334.193 47.0463 334.58C46.3263 334.953 45.4729 335.14 44.4863 335.14ZM54.2566 321.1V335H51.9766V321.1H54.2566ZM68.67 335H66.39L59.53 324.62V335H57.25V321.08H59.53L66.39 331.44V321.08H68.67V335ZM73.9441 322.94V327.02H78.7441V328.88H73.9441V333.14H79.3441V335H71.6641V321.08H79.3441V322.94H73.9441ZM86.7323 335.14C85.799 335.14 84.959 334.98 84.2123 334.66C83.4657 334.327 82.879 333.86 82.4523 333.26C82.0257 332.66 81.8123 331.96 81.8123 331.16H84.2523C84.3057 331.76 84.539 332.253 84.9523 332.64C85.379 333.027 85.9723 333.22 86.7323 333.22C87.519 333.22 88.1323 333.033 88.5723 332.66C89.0123 332.273 89.2323 331.78 89.2323 331.18C89.2323 330.713 89.0923 330.333 88.8123 330.04C88.5457 329.747 88.2057 329.52 87.7923 329.36C87.3923 329.2 86.8323 329.027 86.1123 328.84C85.2057 328.6 84.4657 328.36 83.8923 328.12C83.3323 327.867 82.8523 327.48 82.4523 326.96C82.0523 326.44 81.8523 325.747 81.8523 324.88C81.8523 324.08 82.0523 323.38 82.4523 322.78C82.8523 322.18 83.4123 321.72 84.1323 321.4C84.8523 321.08 85.6857 320.92 86.6323 320.92C87.979 320.92 89.079 321.26 89.9323 321.94C90.799 322.607 91.279 323.527 91.3723 324.7H88.8523C88.8123 324.193 88.5723 323.76 88.1323 323.4C87.6923 323.04 87.1123 322.86 86.3923 322.86C85.739 322.86 85.2057 323.027 84.7923 323.36C84.379 323.693 84.1723 324.173 84.1723 324.8C84.1723 325.227 84.299 325.58 84.5523 325.86C84.819 326.127 85.1523 326.34 85.5523 326.5C85.9523 326.66 86.499 326.833 87.1923 327.02C88.1123 327.273 88.859 327.527 89.4323 327.78C90.019 328.033 90.5123 328.427 90.9123 328.96C91.3257 329.48 91.5323 330.18 91.5323 331.06C91.5323 331.767 91.339 332.433 90.9523 333.06C90.579 333.687 90.0257 334.193 89.2923 334.58C88.5723 334.953 87.719 335.14 86.7323 335.14ZM98.8027 335.14C97.8693 335.14 97.0293 334.98 96.2827 334.66C95.536 334.327 94.9493 333.86 94.5227 333.26C94.096 332.66 93.8827 331.96 93.8827 331.16H96.3227C96.376 331.76 96.6093 332.253 97.0227 332.64C97.4493 333.027 98.0427 333.22 98.8027 333.22C99.5893 333.22 100.203 333.033 100.643 332.66C101.083 332.273 101.303 331.78 101.303 331.18C101.303 330.713 101.163 330.333 100.883 330.04C100.616 329.747 100.276 329.52 99.8627 329.36C99.4627 329.2 98.9027 329.027 98.1827 328.84C97.276 328.6 96.536 328.36 95.9627 328.12C95.4027 327.867 94.9227 327.48 94.5227 326.96C94.1227 326.44 93.9227 325.747 93.9227 324.88C93.9227 324.08 94.1227 323.38 94.5227 322.78C94.9227 322.18 95.4827 321.72 96.2027 321.4C96.9227 321.08 97.756 320.92 98.7027 320.92C100.049 320.92 101.149 321.26 102.003 321.94C102.869 322.607 103.349 323.527 103.443 324.7H100.923C100.883 324.193 100.643 323.76 100.203 323.4C99.7627 323.04 99.1827 322.86 98.4627 322.86C97.8093 322.86 97.276 323.027 96.8627 323.36C96.4493 323.693 96.2427 324.173 96.2427 324.8C96.2427 325.227 96.3693 325.58 96.6227 325.86C96.8893 326.127 97.2227 326.34 97.6227 326.5C98.0227 326.66 98.5693 326.833 99.2627 327.02C100.183 327.273 100.929 327.527 101.503 327.78C102.089 328.033 102.583 328.427 102.983 328.96C103.396 329.48 103.603 330.18 103.603 331.06C103.603 331.767 103.409 332.433 103.023 333.06C102.649 333.687 102.096 334.193 101.363 334.58C100.643 334.953 99.7893 335.14 98.8027 335.14Z" fill="#565656"/>
<defs>
<clipPath id="clip0">
<rect width="562.13" height="311.248" fill="white" transform="translate(587.87 166)"/>
</clipPath>
</defs>
</svg>
