<svg width="100" height="100" viewBox="0 0 100 100" fill="none" xmlns="http://www.w3.org/2000/svg">
<path d="M56.0156 68.1562L54.6875 71.875H50H45.3125L44.0781 68.4219L40.625 73.2031L35.9375 79.6875L31.25 75.2344L21.875 66.3281L12.5 57.4219L4.6875 50H3.125V96.875H12.5H21.875H31.25H40.625H50H59.375V67.2969C58.2812 67.6406 57.1562 67.9375 56.0156 68.1562Z" fill="#CCD1D9"/>
<path d="M96.875 78.125V96.875H78.125V90.625H90.625V78.125H96.875Z" fill="#FF826E"/>
<path d="M84.375 32.8125V42.1875L80.6562 43.5156C79.8438 47.6719 78.2187 51.5469 75.9375 54.9375L77.625 58.4844L71 65.125L67.4375 63.4375C64.9844 65.0937 62.2656 66.4062 59.375 67.2969C58.2812 67.6406 57.1562 67.9375 56.0156 68.1562L54.6875 71.875H50H45.3125L44.0781 68.4219L43.9844 68.1562C39.8281 67.3438 35.9531 65.7187 32.5625 63.4375L29 65.125L22.375 58.4844L24.0625 54.9375C21.7812 51.5469 20.1562 47.6719 19.3438 43.5156L15.625 42.1875V32.8125L19.3438 31.4844C20.1562 27.3281 21.7812 23.4531 24.0625 20.0625L22.375 16.5L29 9.875L32.5625 11.5625C35.9531 9.28125 39.8281 7.65625 43.9844 6.84375L45.3125 3.125H54.6875L56.0156 6.84375C60.1719 7.65625 64.0469 9.28125 67.4375 11.5625L71 9.875L77.625 16.5L75.9375 20.0625C78.2187 23.4531 79.8438 27.3281 80.6562 31.4844L84.375 32.8125Z" fill="#4370FF"/>
<path d="M50 12.5C63.8125 12.5 75 23.6875 75 37.5C75 51.3125 63.8125 62.5 50 62.5C36.1875 62.5 25 51.3125 25 37.5C25 23.6875 36.1875 12.5 50 12.5Z" fill="#5A9CFF"/>
<path d="M50 56.25C60.3553 56.25 68.75 47.8553 68.75 37.5C68.75 27.1447 60.3553 18.75 50 18.75C39.6447 18.75 31.25 27.1447 31.25 37.5C31.25 47.8553 39.6447 56.25 50 56.25Z" fill="#E6E6E6"/>
<path d="M70.3125 37.5C70.3125 26.3 61.2 17.1875 50 17.1875C38.8 17.1875 29.6875 26.3 29.6875 37.5C29.6875 48.7 38.8 57.8125 50 57.8125C61.2 57.8125 70.3125 48.7 70.3125 37.5ZM32.8125 37.5C32.8125 28.0234 40.5234 20.3125 50 20.3125C59.4766 20.3125 67.1875 28.0234 67.1875 37.5C67.1875 46.9766 59.4766 54.6875 50 54.6875C40.5234 54.6875 32.8125 46.9766 32.8125 37.5Z" fill="black"/>
<path d="M76.5625 37.5C76.5625 22.8531 64.6469 10.9375 50 10.9375C35.3531 10.9375 23.4375 22.8531 23.4375 37.5C23.4375 52.1469 35.3531 64.0625 50 64.0625C64.6469 64.0625 76.5625 52.1469 76.5625 37.5ZM26.5625 37.5C26.5625 24.5766 37.0766 14.0625 50 14.0625C62.9234 14.0625 73.4375 24.5766 73.4375 37.5C73.4375 50.4234 62.9234 60.9375 50 60.9375C37.0766 60.9375 26.5625 50.4234 26.5625 37.5Z" fill="black"/>
<path d="M51.5625 51.6109L51.6688 48.2219C54.2953 47.5422 56.25 45.1719 56.25 42.3359C56.25 39.7047 54.5734 37.3781 52.0781 36.5469L48.9125 35.4906C47.6922 35.0844 46.875 33.9484 46.875 32.6641C46.875 31.0219 48.2109 29.6875 49.8531 29.6875H50.1469C51.7891 29.6875 53.125 31.0219 53.125 32.6641V32.8125L56.25 32.6641C56.25 29.7891 54.2437 27.3859 51.5625 26.7437V23.4375H48.4375V26.7453C45.7563 27.3875 43.75 29.7891 43.75 32.6656C43.75 35.2969 45.4266 37.6234 47.9219 38.4547L51.0875 39.5109C52.3062 39.9172 53.1234 41.0531 53.1234 42.3375C53.125 43.9781 51.7891 45.3125 50.1469 45.3125H49.8531C48.2109 45.3125 46.875 43.9781 46.875 42.3359V40.625H43.75V42.3359C43.75 45.2484 45.8047 47.6844 48.5391 48.2875L48.4375 51.5141L51.5625 51.6109Z" fill="black"/>
<path d="M89.0625 76.5625V86.8531L67.4766 65.2672C67.5031 65.2516 67.5297 65.2375 67.5563 65.2219L71.3172 67.0047L79.5047 58.8188L77.7219 55.0578C79.7438 51.8719 81.1828 48.3922 82.0094 44.6922L85.9375 43.2891V31.7109L82.0094 30.3094C81.1828 26.6094 79.7453 23.1297 77.7219 19.9438L79.5047 16.1812L71.3172 7.99687L67.5563 9.77969C64.3719 7.75781 60.8938 6.31875 57.1906 5.49375L55.7891 1.5625H44.2109L42.8094 5.49219C39.1063 6.31719 35.6281 7.75625 32.4438 9.77812L28.6828 7.99531L20.4953 16.1797L22.2781 19.9422C20.2563 23.1281 18.8172 26.6078 17.9906 30.3078L14.0625 31.7109V43.2891L17.9906 44.6906C18.8172 48.3906 20.2547 51.8703 22.2781 55.0563L20.4953 58.8172L28.6828 67.0031L32.4438 65.2203C35.275 67.0188 38.3516 68.3281 41.6 69.1828L35.7188 77.3234L5.31094 48.4375H1.5625V98.4375H67.1875V95.3125H60.9375V68.4062C62.2031 67.9609 63.4406 67.4469 64.6406 66.8484L86.8531 89.0625H76.5625V98.4375H98.4375V76.5625H89.0625ZM32.7 61.6422L29.3328 63.2375L24.2609 58.1641L25.8563 54.8L25.3609 54.0625C23.1469 50.7766 21.6391 47.1281 20.875 43.2172L20.7047 42.3438L17.1875 41.0859V33.9141L20.7047 32.6562L20.875 31.7828C21.6391 27.8719 23.1484 24.2219 25.3609 20.9375L25.8578 20.1984L24.2625 16.8328L29.3344 11.7609L32.7016 13.3563L33.4375 12.8594C36.7203 10.6469 40.3703 9.13906 44.2844 8.375L45.1578 8.20469L46.4141 4.6875H53.5859L54.8422 8.20469L55.7156 8.375C59.6297 9.13906 63.2797 10.6469 66.5625 12.8594L67.3 13.3563L70.6672 11.7609L75.7391 16.8328L74.1438 20.1984L74.6406 20.9375C76.8547 24.2234 78.3625 27.8719 79.1266 31.7828L79.2969 32.6562L82.8125 33.9141V41.0859L79.2953 42.3438L79.125 43.2172C78.3609 47.1281 76.8516 50.7781 74.6391 54.0625L74.1422 54.8016L75.7375 58.1656L70.6656 63.2391L67.2984 61.6437L66.5625 62.1406C63.2797 64.3531 59.6297 65.8609 55.7156 66.625L54.8422 66.7953L53.5859 70.3125H46.4141L45.1578 66.7953L44.2844 66.625C40.3703 65.8609 36.7203 64.3531 33.4375 62.1406L32.7 61.6422ZM43.6063 71.7438L44.2109 73.4375H48.4375V95.3125H42.1875V73.7063L43.6063 71.7438ZM36.1578 82.0516L39.0625 78.0312V95.3125H32.8125V78.8734L36.1578 82.0516ZM23.4375 69.9672L29.6875 75.9047V95.3125H23.4375V69.9672ZM20.3125 95.3125H14.0625V61.0609L20.3125 66.9984V95.3125ZM4.6875 52.1547L10.9375 58.0922V95.3125H4.6875V52.1547ZM57.8125 95.3125H51.5625V73.4375H55.7891L57.1906 69.5078C57.4016 69.4609 57.6031 69.3922 57.8109 69.3406V95.3125H57.8125ZM95.3125 95.3125H79.6875V92.1875H92.1875V79.6875H95.3125V95.3125Z" fill="black"/>
</svg>
