<svg width="66" height="68" viewBox="0 0 66 68" fill="none" xmlns="http://www.w3.org/2000/svg">
<path d="M57.5285 48.3945H3.1424C1.93747 48.3945 0.9608 47.3773 0.9608 46.1226V14.8084C0.9608 13.5536 1.9376 12.5365 3.1424 12.5365H57.5285C58.7334 12.5365 59.7101 13.5537 59.7101 14.8084V46.1226C59.7101 47.3773 58.7334 48.3945 57.5285 48.3945Z" fill="#8AC9FE"/>
<path d="M7.00709 48.3945H3.14267C1.93697 48.3945 0.960556 47.3777 0.960556 46.1221V14.8082C0.960556 13.5539 1.93697 12.537 3.14267 12.537H7.00709C5.80139 12.537 4.82498 13.5539 4.82498 14.8082V46.1221C4.82498 47.3775 5.80139 48.3945 7.00709 48.3945Z" fill="#60B7FF"/>
<path d="M59.1927 44.7036C59.5492 44.7036 59.8383 45.0036 59.8383 45.3737V49.2028C59.8383 51.6819 57.9464 53.7035 55.5855 53.7826C55.5377 53.7839 55.4899 53.7853 55.4407 53.7853H5.24027C5.20279 53.7853 5.16402 53.7853 5.12653 53.7839C2.75004 53.7209 0.8414 51.6939 0.8414 49.2028V45.3737C0.8414 45.0036 1.13046 44.7036 1.48702 44.7036H59.1927Z" fill="#F9F3F1"/>
<path d="M44.8144 67.0002H15.7286C14.8287 67.0002 14.0992 66.2405 14.0992 65.3034V63.6672C14.0992 62.73 14.8287 61.9703 15.7286 61.9703H44.8144C45.7143 61.9703 46.4438 62.73 46.4438 63.6672V65.3034C46.4438 66.2404 45.7142 67.0002 44.8144 67.0002Z" fill="#F9F3F1"/>
<path d="M34.9207 61.8885V53.8536H25.8322V54.2197V61.8885H34.9207Z" fill="#F9F3F1"/>
<path d="M8.65758 44.7033V39.2179C8.65758 37.1544 10.2575 35.4818 12.2315 35.4818H14.7068C16.6809 35.4818 18.2808 37.1542 18.2808 39.2179V44.7033H8.65758Z" fill="#FE646F"/>
<path d="M25.565 44.7033V34.4675C25.565 32.4039 27.1648 30.7314 29.1389 30.7314H31.6142C33.5883 30.7314 35.1881 32.4038 35.1881 34.4675V44.7033H25.565Z" fill="#FFE177"/>
<path d="M42.4723 44.7033V33.0704C42.4723 31.0068 44.0722 29.3342 46.0463 29.3342H48.5216C50.4956 29.3342 52.0955 31.0066 52.0955 33.0704V44.7033H42.4723Z" fill="#6CF5C2"/>
<path d="M54.3008 11.5603L50.182 21.1137C46.5941 19.4233 44.2768 15.6742 44.2768 11.5603C44.2768 8.02579 45.9874 4.72135 48.8178 2.78802L54.3008 11.5603Z" fill="#6CF5C2"/>
<path d="M54.3008 11.5603L64.3124 11.0346C64.3207 11.2097 64.325 11.385 64.325 11.5603C64.325 17.3089 59.7999 22.0392 54.3008 22.0392C52.7048 22.0392 51.1317 21.6408 49.7127 20.8772L54.3008 11.5603Z" fill="#FE646F"/>
<path d="M54.3008 11.5603L48.7721 2.81929C50.4119 1.68589 52.335 1.08142 54.3008 1.08142C59.7999 1.08142 64.325 5.81171 64.325 11.5603H54.3008Z" fill="#FFE177"/>
<path d="M9.10483 53.7858H5.2404C5.20305 53.7858 5.1644 53.7858 5.12705 53.7845C2.75043 53.7214 0.8414 51.6945 0.8414 49.2034V45.3735C0.8414 45.0033 1.12994 44.7041 1.48676 44.7041H5.35118C4.99437 44.7041 4.70583 45.0033 4.70583 45.3735V49.2034C4.70583 51.6945 6.61485 53.7214 8.99147 53.7845C9.02883 53.7858 9.06747 53.7858 9.10483 53.7858Z" fill="#E1D3CE"/>
<path d="M25.8326 53.8542H29.697V61.8883H25.8326V53.8542Z" fill="#E1D3CE"/>
<path d="M19.5929 67.0007H15.7285C14.828 67.0007 14.099 66.2401 14.099 65.3038V63.6672C14.099 62.7295 14.828 61.9702 15.7285 61.9702H19.5929C18.6925 61.9702 17.9634 62.7295 17.9634 63.6672V65.3038C17.9634 66.2401 18.6925 67.0007 19.5929 67.0007Z" fill="#E1D3CE"/>
<path d="M15.4013 35.5525C13.7602 35.8906 12.5223 37.4024 12.5223 39.2174V44.7027H8.65784V39.2174C8.65784 37.1543 10.2577 35.4814 12.2311 35.4814H14.707C14.9453 35.4814 15.1771 35.5055 15.4013 35.5525Z" fill="#FD4755"/>
<path d="M32.3094 30.8025C30.667 31.1405 29.4291 32.6524 29.4291 34.4674V44.7028H25.5647V34.4674C25.5647 32.4042 27.1646 30.7314 29.1393 30.7314H31.6138C31.8521 30.7314 32.084 30.7555 32.3094 30.8025Z" fill="#FFD064"/>
<path d="M49.2163 29.406C47.5752 29.7427 46.3373 31.2545 46.3373 33.0709V44.7028H42.4728V33.0709C42.4728 31.0064 44.0727 29.3349 46.0461 29.3349H48.522C48.7603 29.3348 48.9921 29.359 49.2163 29.406Z" fill="#00E499"/>
<path d="M59.7865 28.1646C59.2528 28.1646 58.8204 28.615 58.8204 29.1707V43.6973H53.0673V33.0704C53.0673 30.4556 51.0306 28.3282 48.5272 28.3282H46.0519C43.5484 28.3282 41.5119 30.4555 41.5119 33.0704V43.6973H36.1599V34.4676C36.1599 31.8528 34.1232 29.7253 31.6198 29.7253H29.1445C26.641 29.7253 24.6045 31.8526 24.6045 34.4676V43.6973H19.2524V39.218C19.2524 36.6032 17.2157 34.4758 14.7125 34.4758H12.237C9.73367 34.4758 7.69712 36.6031 7.69712 39.218V43.6973H1.94376V38.9634C1.94376 38.4077 1.51133 37.9573 0.977657 37.9573C0.44398 37.9573 0.0115509 38.4077 0.0115509 38.9634V44.7035C0.0115509 44.7062 0.0119373 44.7086 0.0119373 44.7113V49.2025C0.0119373 52.2842 2.41187 54.7911 5.36159 54.7911H24.8718V60.8826H15.8392C14.4081 60.8826 13.2439 62.0951 13.2439 63.5855V65.2217C13.2439 66.7121 14.4081 67.9246 15.8392 67.9246H44.9251C46.3562 67.9246 47.5205 66.7121 47.5205 65.2217V63.5855C47.5205 62.0951 46.3562 60.8826 44.9251 60.8826H35.8926V54.7911H55.4027C58.3525 54.7911 60.7524 52.2842 60.7524 49.2025V44.7061C60.7524 44.7053 60.7526 44.7043 60.7526 44.7035V29.1707C60.7526 28.615 60.32 28.1646 59.7865 28.1646ZM43.4441 33.0704C43.4441 31.5652 44.614 30.3404 46.0519 30.3404H48.5272C49.9652 30.3404 51.1351 31.565 51.1351 33.0704V43.6973H43.4441V33.0704ZM26.5367 34.4676C26.5367 32.9623 27.7066 31.7376 29.1445 31.7376H31.6198C33.0578 31.7376 34.2277 32.9622 34.2277 34.4676V43.6973H26.5367V34.4676ZM9.62933 39.218C9.62933 37.7127 10.7991 36.488 12.237 36.488H14.7125C16.1504 36.488 17.3202 37.7126 17.3202 39.218V43.6973H9.62933V39.218ZM45.5883 63.5855V65.2217C45.5883 65.6025 45.2908 65.9124 44.9251 65.9124H15.8392C15.4735 65.9124 15.1761 65.6025 15.1761 65.2217V63.5855C15.1761 63.2047 15.4736 62.8948 15.8392 62.8948H44.9251C45.2909 62.8948 45.5883 63.2047 45.5883 63.5855ZM33.9604 60.8826H26.804V54.7911H33.9604V60.8826ZM58.8202 49.2025C58.8202 51.1746 57.2871 52.7789 55.4027 52.7789H5.36159C3.47717 52.7789 1.94415 51.1746 1.94415 49.2025V45.7094H58.8202V49.2025Z" fill="black"/>
<path d="M9.12403 30.4411C9.15289 30.4438 9.18161 30.4451 9.21034 30.4451C9.47853 30.4451 9.73641 30.3287 9.9201 30.1214L13.0116 26.6336C13.3736 26.2254 13.3491 25.5888 12.957 25.2119C12.5648 24.835 11.9538 24.8605 11.5919 25.2688L9.35139 27.7963L6.41829 22.9964C6.13168 22.5274 5.53462 22.3896 5.08455 22.6877C4.63434 22.986 4.50166 23.6079 4.78815 24.0766L8.39494 29.9791C8.55609 30.2426 8.82544 30.4132 9.12403 30.4411Z" fill="black"/>
<path d="M14.7486 22.7987C15.0295 22.7987 15.3081 22.6718 15.499 22.4269L18.154 19.0239L19.7157 20.7406C20.0825 21.1438 20.694 21.161 21.0815 20.7791C21.4688 20.3969 21.4853 19.7601 21.1183 19.3567L18.7997 16.8079C18.6085 16.5979 18.3407 16.4841 18.0617 16.4946C17.7838 16.5056 17.5239 16.6408 17.3486 16.8655L13.9994 21.1582C13.6631 21.5895 13.7259 22.223 14.1401 22.5734C14.3191 22.725 14.5345 22.7987 14.7486 22.7987Z" fill="black"/>
<path d="M24.1424 23.4555C23.8149 23.0169 23.2078 22.9379 22.7867 23.279C22.3655 23.6202 22.2897 24.2523 22.6173 24.6908L24.4207 27.1055C24.6007 27.3465 24.8762 27.4894 25.1695 27.4938C25.174 27.4938 25.1787 27.4939 25.1832 27.4939C25.4713 27.4939 25.7448 27.3598 25.9285 27.1279L31.9828 19.4815C31.9963 19.4644 32.0081 19.4465 32.0204 19.4286L32.5141 20.9143C32.6525 21.3306 33.0267 21.5916 33.4271 21.5916C33.5319 21.5916 33.6387 21.5738 33.7431 21.5359C34.2473 21.3542 34.5146 20.7812 34.3402 20.256L33.1809 16.7682C33.0274 16.3064 32.5776 16.0257 32.114 16.1041L28.1208 16.7748C27.5941 16.8633 27.236 17.3797 27.3208 17.9283C27.4059 18.4769 27.9015 18.8506 28.4285 18.7614L30.297 18.4475L25.2051 24.8783L24.1424 23.4555Z" fill="black"/>
<path d="M65.2968 11.5604C65.2968 5.22756 60.3667 0.0753784 54.3066 0.0753784C48.4254 0.0753784 43.6089 4.92828 43.3299 11.0033H5.20293C2.34042 11.0033 0.0117223 13.4285 0.0117223 16.4086L2.58885e-07 34.1334C-0.000386184 34.6892 0.431914 35.1398 0.965462 35.1402H0.966106C1.4994 35.1402 1.93183 34.6901 1.93221 34.1347L1.94393 16.4092C1.94393 14.5379 3.40598 13.0153 5.20293 13.0153H43.4077C44.0945 18.6632 48.7185 23.0452 54.3068 23.0452C55.9217 23.0452 57.455 22.6763 58.8375 22.0197L58.8624 24.486C58.8681 25.038 59.2995 25.4815 59.8283 25.4815H59.8386C60.3722 25.4757 60.8002 25.0205 60.7946 24.4649L60.7583 20.8499C63.5059 18.7602 65.2968 15.3756 65.2968 11.5604ZM63.3131 10.5543H54.8238L50.1011 3.17444C51.3589 2.48184 52.7892 2.08758 54.3066 2.08758C58.9761 2.08758 62.831 5.80224 63.3131 10.5543ZM45.2486 11.5604C45.2486 8.64696 46.5136 6.03754 48.4984 4.29846L53.2022 11.6488L49.6295 19.6697C47.006 18.0085 45.2486 14.9952 45.2486 11.5604ZM51.3796 20.5227L54.9235 12.5665H63.3131C62.831 17.3185 58.9763 21.0331 54.3066 21.0331C53.2824 21.0331 52.2984 20.8518 51.3796 20.5227Z" fill="black"/>
</svg>
