<svg width="100" height="100" viewBox="0 0 100 100" fill="none" xmlns="http://www.w3.org/2000/svg">
<g clip-path="url(#clip0)">
<path d="M36.4306 73.6706L75.6236 34.4776C82.0318 36.9883 89.5958 35.6584 94.7733 30.4807C99.9494 25.3046 101.279 17.7404 98.7701 11.3311L89.7284 20.3728L81.7611 18.239L79.6273 10.2717L88.669 1.22997C82.2595 -1.27938 74.6955 0.0504906 69.5194 5.22682C64.3419 10.4043 63.0118 17.9685 65.5225 24.3765L26.3295 63.5695C19.4352 60.6637 11.1696 62.0186 5.55289 67.6353C-1.85096 75.0392 -1.85096 87.0434 5.55289 94.4472C12.9567 101.851 24.9609 101.851 32.3648 94.4472C37.9815 88.8305 39.3364 80.5647 36.4306 73.6706ZM13.9083 86.0918C11.1185 83.302 11.1198 78.7792 13.9083 75.9907C16.6981 73.2009 21.2196 73.2011 24.0094 75.9907C26.7992 78.7804 26.7992 83.302 24.0094 86.0918C21.2209 88.8801 16.6981 88.8815 13.9083 86.0918Z" fill="#60E2F4"/>
<path d="M32.3648 94.4472C24.961 101.851 12.9568 101.851 5.55293 94.4472L13.9083 86.0918C16.6982 88.8816 21.221 88.8803 24.0094 86.0918C26.7993 83.302 26.7991 78.7805 24.0094 75.9907L81.7609 18.239L89.7282 20.3728L98.77 11.3311C101.279 17.7406 99.9495 25.3046 94.7731 30.4807C89.5956 35.6582 82.0314 36.9883 75.6235 34.4776L36.4304 73.6706C39.3365 80.5647 37.9816 88.8305 32.3648 94.4472Z" fill="#29C5EC"/>
<path d="M72.711 68.5677L18.7848 14.6415L22.4985 10.9279L8.63551 0.0010376L0.00100708 8.63535L10.9281 22.4985L14.6417 18.7847L68.5679 72.7108L72.711 68.5677Z" fill="#CDDBF9"/>
<path d="M70.6385 70.6385L4.31734 4.31738L0.000183105 8.63454L10.9272 22.4977L14.6409 18.7839L68.567 72.71L70.6385 70.6385Z" fill="#F3F6FF"/>
<path d="M59.4603 73.6245L69.5615 83.7255L73.9492 83.6661L83.7339 73.8814L83.7257 69.5612L73.6245 59.4603L59.4603 73.6245Z" fill="#3C4A83"/>
<path d="M59.4603 73.6245L69.5615 83.7255L73.9492 83.6661L78.8077 78.8075L66.5425 66.5423L59.4603 73.6245Z" fill="#48588B"/>
<path d="M69.5614 83.7254L82.9009 97.0649C84.8579 99.0219 87.4212 99.9996 89.9845 99.9996C92.5477 99.9996 95.111 99.0219 97.0664 97.0663C100.978 93.1552 100.978 86.8132 97.0651 82.9008L83.7255 69.5612L69.5614 83.7254Z" fill="#EA0016"/>
<path d="M69.5614 83.7253L82.9009 97.0648C84.8579 99.0218 87.4212 99.9996 89.9845 99.9996C92.5477 99.9996 95.111 99.0218 97.0664 97.0662L76.6433 76.6433L69.5614 83.7253Z" fill="#FF641A"/>
</g>
<defs>
<clipPath id="clip0">
<rect width="100" height="100" fill="white"/>
</clipPath>
</defs>
</svg>
