<svg width="100" height="100" viewBox="0 0 100 100" fill="none" xmlns="http://www.w3.org/2000/svg">
<path d="M87.5 23.4375H84.375V25C84.375 25.8288 84.0458 26.6237 83.4597 27.2097C82.8737 27.7958 82.0788 28.125 81.25 28.125H60.9375C60.1087 28.125 59.3138 27.7958 58.7278 27.2097C58.1417 26.6237 57.8125 25.8288 57.8125 25V23.4375H42.1875V25C42.1875 25.8288 41.8583 26.6237 41.2722 27.2097C40.6862 27.7958 39.8913 28.125 39.0625 28.125H18.75C17.9212 28.125 17.1263 27.7958 16.5403 27.2097C15.9542 26.6237 15.625 25.8288 15.625 25V23.4375H12.5C11.6712 23.4375 10.8763 23.7667 10.2903 24.3528C9.70424 24.9388 9.375 25.7337 9.375 26.5625V70.3125H20.3125C20.3125 62.4389 23.4403 54.8878 29.0078 49.3203C34.5753 43.7528 42.1264 40.625 50 40.625C57.8736 40.625 65.4247 43.7528 70.9922 49.3203C76.5597 54.8878 79.6875 62.4389 79.6875 70.3125H90.625V26.5625C90.625 25.7337 90.2958 24.9388 89.7097 24.3528C89.1237 23.7667 88.3288 23.4375 87.5 23.4375Z" fill="#4370FF"/>
<path d="M56.25 70.3125H43.75C43.75 68.6549 44.4085 67.0652 45.5806 65.8931C46.7527 64.721 48.3424 64.0625 50 64.0625C51.6576 64.0625 53.2473 64.721 54.4194 65.8931C55.5915 67.0652 56.25 68.6549 56.25 70.3125Z" fill="#4370FF"/>
<path d="M31.25 15.625V7.8125H26.5625V15.625H21.875V17.1875L28.9062 23.4375L35.9375 17.1875V15.625H31.25Z" fill="#4370FF"/>
<path d="M68.75 15.625V23.4375H73.4375V15.625H78.125V14.0625L71.0938 7.8125L64.0625 14.0625V15.625H68.75Z" fill="#4370FF"/>
<path d="M48.4375 75H51.5625V78.125H48.4375V75Z" fill="black"/>
<path d="M95.3125 95.3125H98.4375V98.4375H95.3125V95.3125Z" fill="black"/>
<path d="M87.5 21.875H85.9375V9.375H82.8125V25C82.8122 25.4143 82.6476 25.8116 82.3546 26.1046C82.0616 26.3976 81.6643 26.5623 81.25 26.5625H60.9375C60.5232 26.5623 60.1259 26.3976 59.8329 26.1046C59.5399 25.8116 59.3752 25.4143 59.375 25V6.25C59.3752 5.83568 59.5399 5.43839 59.8329 5.14542C60.1259 4.85245 60.5232 4.68775 60.9375 4.6875H81.25C81.6643 4.68775 82.0616 4.85245 82.3546 5.14542C82.6476 5.43839 82.8122 5.83568 82.8125 6.25H85.9375C85.9361 5.00722 85.4418 3.81573 84.5631 2.93694C83.6843 2.05816 82.4928 1.56386 81.25 1.5625H60.9375C59.6947 1.56386 58.5032 2.05816 57.6244 2.93694C56.7457 3.81573 56.2514 5.00722 56.25 6.25V21.875H43.75V6.25C43.7486 5.00722 43.2543 3.81573 42.3756 2.93694C41.4968 2.05816 40.3053 1.56386 39.0625 1.5625H18.75C17.5072 1.56386 16.3157 2.05816 15.4369 2.93694C14.5582 3.81573 14.0639 5.00722 14.0625 6.25V18.75H17.1875V6.25C17.1879 5.83571 17.3526 5.4385 17.6456 5.14556C17.9385 4.85261 18.3357 4.68787 18.75 4.6875H39.0625C39.4768 4.68787 39.874 4.85261 40.1669 5.14556C40.4599 5.4385 40.6246 5.83571 40.625 6.25V25C40.6246 25.4143 40.4599 25.8115 40.1669 26.1044C39.874 26.3974 39.4768 26.5621 39.0625 26.5625H18.75C18.3357 26.5621 17.9385 26.3974 17.6456 26.1044C17.3526 25.8115 17.1879 25.4143 17.1875 25V21.875H12.5C11.2572 21.8764 10.0657 22.3707 9.18694 23.2494C8.30816 24.1282 7.81386 25.3197 7.8125 26.5625V79.6875C7.81386 80.9303 8.30816 82.1218 9.18694 83.0006C10.0657 83.8793 11.2572 84.3736 12.5 84.375H37.1562L36.2188 89.0625H35.9375C34.1374 89.065 32.3932 89.6879 30.9989 90.8264C29.6046 91.9649 28.6454 93.5493 28.283 95.3125H1.5625V98.4375H92.1875V95.3125H71.717C71.3546 93.5493 70.3954 91.9649 69.0011 90.8264C67.6068 89.6879 65.8626 89.065 64.0625 89.0625H63.7812L62.8438 84.375H87.5C88.7428 84.3736 89.9343 83.8793 90.8131 83.0006C91.6918 82.1218 92.1861 80.9303 92.1875 79.6875V75H89.0625V79.6875C89.0622 80.1018 88.8976 80.4991 88.6046 80.7921C88.3116 81.0851 87.9143 81.2497 87.5 81.25H12.5C12.0857 81.2496 11.6885 81.0849 11.3956 80.7919C11.1026 80.499 10.9379 80.1018 10.9375 79.6875V71.875H92.1875V26.5625C92.1861 25.3197 91.6918 24.1282 90.8131 23.2494C89.9343 22.3707 88.7428 21.8764 87.5 21.875ZM40.3438 84.375H59.6573L60.5948 89.0625H39.4062L40.3438 84.375ZM64.0625 92.1875C65.0317 92.1887 65.9768 92.4897 66.7682 93.0491C67.5596 93.6086 68.1586 94.3992 68.483 95.3125H31.5178C31.8419 94.3992 32.4407 93.6085 33.232 93.049C34.0233 92.4895 34.9684 92.1886 35.9375 92.1875H64.0625ZM45.5803 68.75C45.9036 67.8361 46.5022 67.0448 47.2938 66.4852C48.0854 65.9255 49.031 65.625 50.0004 65.625C50.9698 65.625 51.9154 65.9255 52.707 66.4852C53.4986 67.0448 54.0972 67.8361 54.4205 68.75H45.5803ZM71.8156 68.75C71.5818 65.4429 70.5986 62.2323 68.9406 59.3612L66.2367 60.9269C67.6079 63.3246 68.4312 65.9963 68.6473 68.75H57.6545C57.391 67.5137 56.829 66.3607 56.0175 65.3916L68.1488 55.9189L66.2269 53.4561L53.5213 63.378C52.4341 62.8094 51.2269 62.5084 50 62.5C48.1999 62.5025 46.4557 63.1254 45.0614 64.2639C43.6671 65.4024 42.7079 66.9868 42.3455 68.75H21.9548C22.1363 65.3359 22.9438 61.9843 24.337 58.8622L26.9241 60.3561L28.4866 57.6492L25.7806 56.0867C27.8426 52.5822 30.6353 49.5629 33.9688 47.2344L35.4756 49.8438L38.1825 48.2812L36.6219 45.5781C40.2662 43.6121 44.3022 42.481 48.4375 42.2667V45.3125H51.5625V42.2667C55.6977 42.4814 59.7334 43.6128 63.3775 45.5792L61.8164 48.2823L64.5233 49.8448L66.0306 47.2355C69.3646 49.564 72.1579 52.5833 74.2203 56.0881L71.5148 57.6506L73.0773 60.3575L75.6639 58.8644C77.0568 61.9858 77.8642 65.3367 78.0458 68.75H71.8156ZM89.0625 68.75H87.4344C87.1045 60.7591 84.2288 53.083 79.2272 46.8422C74.2256 40.6015 67.36 36.123 59.6328 34.0606L58.8333 37.0819C65.8985 38.9645 72.1801 43.0494 76.7666 48.7438C81.3531 54.4382 84.0058 61.4459 84.3398 68.75H81.2119C80.8138 60.7404 77.3518 53.1903 71.5421 47.6622C65.7325 42.1341 58.0199 39.051 50.0004 39.051C41.9809 39.051 34.2683 42.1341 28.4587 47.6622C22.649 53.1903 19.1869 60.7404 18.7889 68.75H15.6602C15.8863 63.8675 17.1502 59.0893 19.3677 54.7335C21.5851 50.3778 24.7052 46.5445 28.5201 43.4889C32.335 40.4334 36.7571 38.2258 41.492 37.0132C46.2269 35.8005 51.1658 35.6107 55.9798 36.4563L56.5202 33.377C54.367 33.0018 52.1856 32.813 50 32.8125C40.3292 32.8246 31.0361 36.5682 24.0574 43.2632C17.0788 49.9582 12.9529 59.088 12.5397 68.75H10.9375V26.5625C10.9379 26.1482 11.1026 25.751 11.3956 25.4581C11.6885 25.1651 12.0857 25.0004 12.5 25H14.0625C14.0639 26.2428 14.5582 27.4343 15.4369 28.3131C16.3157 29.1918 17.5072 29.6861 18.75 29.6875H39.0625C40.3053 29.6861 41.4968 29.1918 42.3756 28.3131C43.2543 27.4343 43.7486 26.2428 43.75 25H56.25C56.2514 26.2428 56.7457 27.4343 57.6244 28.3131C58.5032 29.1918 59.6947 29.6861 60.9375 29.6875H81.25C82.4928 29.6861 83.6843 29.1918 84.5631 28.3131C85.4418 27.4343 85.9361 26.2428 85.9375 25H87.5C87.9143 25.0002 88.3116 25.1649 88.6046 25.4579C88.8976 25.7509 89.0622 26.1482 89.0625 26.5625V68.75Z" fill="black"/>
<path d="M50 51.5624C53.8346 51.5544 57.5784 52.7293 60.7208 54.927L62.5092 52.3665C58.8437 49.7995 54.4749 48.4273 50 48.4374V51.5624Z" fill="black"/>
<path d="M31.25 6.25H26.5625C26.1481 6.25 25.7507 6.41462 25.4576 6.70765C25.1646 7.00067 25 7.3981 25 7.8125V14.0625H21.875C21.4606 14.0625 21.0632 14.2271 20.7701 14.5201C20.4771 14.8132 20.3125 15.2106 20.3125 15.625V17.1875C20.3125 17.408 20.3592 17.6261 20.4496 17.8273C20.5399 18.0285 20.6718 18.2083 20.8366 18.3548L27.8678 24.6048C28.1539 24.8593 28.5234 24.9998 28.9062 24.9998C29.2891 24.9998 29.6586 24.8593 29.9447 24.6048L36.9759 18.3548C37.1407 18.2083 37.2726 18.0285 37.3629 17.8273C37.4533 17.6261 37.5 17.408 37.5 17.1875V15.625C37.5 15.2106 37.3354 14.8132 37.0424 14.5201C36.7493 14.2271 36.3519 14.0625 35.9375 14.0625H32.8125V7.8125C32.8125 7.3981 32.6479 7.00067 32.3549 6.70765C32.0618 6.41462 31.6644 6.25 31.25 6.25ZM33.5853 17.1875L28.9062 21.347L24.2272 17.1875H26.5625C26.9769 17.1875 27.3743 17.0229 27.6674 16.7299C27.9604 16.4368 28.125 16.0394 28.125 15.625V9.375H29.6875V15.625C29.6875 16.0394 29.8521 16.4368 30.1451 16.7299C30.4382 17.0229 30.8356 17.1875 31.25 17.1875H33.5853Z" fill="black"/>
<path d="M68.75 25H73.4375C73.8519 25 74.2493 24.8354 74.5424 24.5423C74.8354 24.2493 75 23.8519 75 23.4375V17.1875H78.125C78.5394 17.1875 78.9368 17.0229 79.2299 16.7298C79.5229 16.4368 79.6875 16.0394 79.6875 15.625V14.0625C79.6875 13.8419 79.6407 13.6238 79.5503 13.4225C79.4598 13.2213 79.3277 13.0416 79.1627 12.8951L72.1314 6.64515C71.8459 6.39012 71.4765 6.24915 71.0938 6.24915C70.711 6.24915 70.3416 6.39012 70.0561 6.64515L63.0248 12.8951C62.8598 13.0416 62.7277 13.2213 62.6372 13.4225C62.5468 13.6238 62.5 13.8419 62.5 14.0625V15.625C62.5 16.0394 62.6646 16.4368 62.9576 16.7298C63.2507 17.0229 63.6481 17.1875 64.0625 17.1875H67.1875V23.4375C67.1875 23.8519 67.3521 24.2493 67.6451 24.5423C67.9382 24.8354 68.3356 25 68.75 25ZM66.4139 14.0625L71.0938 9.90296L75.7736 14.0625H73.4375C73.0231 14.0625 72.6257 14.2271 72.3326 14.5201C72.0396 14.8132 71.875 15.2106 71.875 15.625V21.875H70.3125V15.625C70.3125 15.2106 70.1479 14.8132 69.8549 14.5201C69.5618 14.2271 69.1644 14.0625 68.75 14.0625H66.4139Z" fill="black"/>
<path d="M15.625 32.8125H25V35.9375H15.625V32.8125Z" fill="black"/>
<path d="M75 32.8125H84.375V35.9375H75V32.8125Z" fill="black"/>
<path d="M15.625 39.0625H20.3125V42.1875H15.625V39.0625Z" fill="black"/>
<path d="M79.6875 39.0625H84.375V42.1875H79.6875V39.0625Z" fill="black"/>
<path d="M95.3125 64.0625H98.4375V67.1875H95.3125V64.0625Z" fill="black"/>
<path d="M95.3125 70.3125H98.4375V73.4375H95.3125V70.3125Z" fill="black"/>
<path d="M95.3125 76.5625H98.4375V79.6875H95.3125V76.5625Z" fill="black"/>
<path d="M1.5625 14.0625H4.6875V17.1875H1.5625V14.0625Z" fill="black"/>
<path d="M1.5625 20.3125H4.6875V23.4375H1.5625V20.3125Z" fill="black"/>
<path d="M1.5625 26.5625H4.6875V29.6875H1.5625V26.5625Z" fill="black"/>
</svg>
