<svg width="70" height="73" viewBox="0 0 70 73" fill="none" xmlns="http://www.w3.org/2000/svg">
<g clip-path="url(#clip0)">
<path d="M25.7719 11.5294H59.6087V48.8515H25.7719V11.5294Z" fill="#52B8D9"/>
<path d="M59.6087 49.4772H25.7719C25.4491 49.4772 25.1868 49.1967 25.1868 48.8515V11.5294C25.1868 11.1836 25.4491 10.9037 25.7719 10.9037H59.6087C59.9321 10.9037 60.1938 11.1836 60.1938 11.5294V48.8515C60.1938 49.1967 59.9332 49.4772 59.6087 49.4772ZM26.357 48.2258H59.0236V12.1551H26.357V48.2258Z" fill="#63312D"/>
<path d="M18.9451 11.5294H52.7819V48.8515H18.9451V11.5294Z" fill="#82D9FF"/>
<path d="M21.2855 14.0321H52.7819V11.5294H18.9451V48.8527H21.2855V14.0321Z" fill="#CAF4FF"/>
<path d="M52.7807 49.4772H18.9451C18.6223 49.4772 18.36 49.1967 18.36 48.8515V11.5294C18.36 11.1836 18.6223 10.9037 18.9451 10.9037H52.7819C53.1053 10.9037 53.367 11.1836 53.367 11.5294V48.8515C53.3658 49.1967 53.1053 49.4772 52.7807 49.4772ZM19.5302 48.2258H52.1968V12.1551H19.5302V48.2258Z" fill="#63312D"/>
<path d="M40.266 23.4892L38.7952 24.7021L37.3251 23.4892L35.8567 24.7021L34.3928 23.4892L32.9267 24.7021L31.4617 23.4892V11.5294H40.266V23.4892Z" fill="#F8F3F3"/>
<path d="M35.8567 25.3278C35.7304 25.3278 35.6041 25.2838 35.4984 25.1976L34.3928 24.2817L33.2838 25.1976C33.0729 25.3718 32.7793 25.3718 32.5673 25.1976L31.1034 23.9848C30.9606 23.8663 30.8766 23.6836 30.8766 23.4893V11.5276C30.8766 11.1824 31.1388 10.9019 31.4617 10.9019H40.2648C40.5876 10.9019 40.8499 11.1824 40.8499 11.5276V23.4893C40.8499 23.6836 40.7653 23.8663 40.6231 23.9848L39.1529 25.1976C38.9427 25.3718 38.6501 25.373 38.4381 25.1989L37.324 24.2805L36.2149 25.1964C36.1092 25.2838 35.9829 25.3278 35.8567 25.3278ZM37.324 22.8648C37.4491 22.8648 37.5759 22.9076 37.6822 22.995L38.7952 23.9127L39.6797 23.1831V12.1551H32.0468V23.1831L32.9255 23.9115L34.0346 22.995C34.2454 22.8214 34.5391 22.8214 34.7511 22.995L35.8578 23.9115L36.9674 22.995C37.0726 22.9088 37.1988 22.8648 37.324 22.8648Z" fill="#63312D"/>
<path d="M68.0141 39.654C66.9422 38.0135 64.8573 37.5595 63.2706 38.6208L47.9704 48.8503H43.1657C45.4192 48.8503 47.2459 46.8969 47.2459 44.4871C47.2459 42.0767 45.4192 40.1233 43.1657 40.1233H29.6944C29.6944 40.1233 26.5376 34.992 20.2245 34.992C13.9102 34.992 10.8808 39.8532 10.8808 39.8532V58.6637H50.5821L67.2913 44.7724C68.7678 43.5449 69.086 41.2946 68.0141 39.654Z" fill="#F9DD9D"/>
<path d="M50.581 59.2893H10.8796C10.5562 59.2893 10.2946 59.0089 10.2946 58.6636V39.8544C10.2946 39.7304 10.3283 39.6106 10.3928 39.508C10.5237 39.2978 13.6725 34.3688 20.2233 34.3688C25.9816 34.3688 29.2042 38.3764 29.9944 39.5H43.1657C45.7374 39.5 47.8309 41.7375 47.8309 44.4883C47.8309 45.9749 47.2201 47.3111 46.2528 48.2258H47.8018L62.9603 38.0898C64.8104 36.8538 67.2434 37.3829 68.4941 39.2978C69.7437 41.2121 69.3729 43.8351 67.6479 45.2679L50.9404 59.1561C50.8375 59.2429 50.7118 59.2893 50.581 59.2893ZM11.4647 58.038H50.3798L66.932 44.2793C68.1638 43.2559 68.4284 41.3825 67.5359 40.0133C66.6428 38.6446 64.9064 38.2664 63.5814 39.1512L48.2817 49.3825C48.1892 49.4448 48.0818 49.4772 47.9715 49.4772H43.1668C42.844 49.4772 42.5817 49.1967 42.5817 48.8515C42.5817 48.5063 42.844 48.2258 43.1668 48.2258C45.0941 48.2258 46.6619 46.5492 46.6619 44.4883C46.6619 42.4286 45.0941 40.7514 43.1668 40.7514H29.6944C29.499 40.7514 29.3144 40.6451 29.2064 40.4703C29.1762 40.4214 26.1302 35.6201 20.2245 35.6201C14.9198 35.6201 12.0212 39.2813 11.4659 40.0597V58.038H11.4647Z" fill="#63312D"/>
<path d="M30.2327 48.2246H43.1668V49.4759H30.2327V48.2246Z" fill="#63312D"/>
<path d="M10.8802 61.4719H1.55365V34.9927H10.8802V61.4719Z" fill="#F7A085"/>
<path d="M10.8796 62.0981H1.5531C1.23028 62.0981 0.968018 61.8183 0.968018 61.4724V34.9933C0.968018 34.6474 1.23028 34.3676 1.5531 34.3676H10.8796C11.2025 34.3676 11.4647 34.6474 11.4647 34.9933V61.4724C11.4647 61.8183 11.2036 62.0981 10.8796 62.0981ZM2.13819 60.8468H10.2945V35.6189H2.13819V60.8468Z" fill="#63312D"/>
</g>
<defs>
<clipPath id="clip0">
<rect width="68.2648" height="73" fill="white" transform="translate(0.968018)"/>
</clipPath>
</defs>
</svg>