<svg width="66" height="66" viewBox="0 0 66 66" fill="none" xmlns="http://www.w3.org/2000/svg">
<path d="M32.6484 66C50.6796 66 65.2968 51.2254 65.2968 33C65.2968 14.7746 50.6796 0 32.6484 0C14.6172 0 0 14.7746 0 33C0 51.2254 14.6172 66 32.6484 66Z" fill="#5A9CFF"/>
<path d="M65.2968 33C65.2968 30.9696 65.1143 28.9824 64.7669 27.0533H64.7445L64.7608 27.0211C64.7164 26.7756 64.67 26.531 64.6201 26.2875H63.9868L64.3749 25.5216L49.2221 10.2056L12.8815 36.3938L29.3448 52.9038L24.8086 58.8131L31.9097 65.9907C32.1554 65.9961 32.4014 66 32.6484 66C50.6796 66 65.2968 51.2254 65.2968 33Z" fill="#18A0FB"/>
<path d="M49.2221 10.2056H26.2611L12.8815 36.3938H29.5857L24.8085 58.8129L49.2221 28.9207H39.7381L49.2221 10.2056Z" fill="#FFE05F"/>
<path d="M39.7376 28.9218H49.2221L33.357 48.347V10.2063H49.2221L39.7376 28.9218Z" fill="#FFE05F"/>
</svg>
