<svg width="100" height="100" viewBox="0 0 100 100" fill="none" xmlns="http://www.w3.org/2000/svg">
<g clip-path="url(#clip0)">
<path d="M44.642 81.0803C43.8084 81.0803 43.133 80.4047 43.133 79.5713V60.5354C43.133 59.702 43.8086 59.0264 44.642 59.0264C45.4756 59.0264 46.151 59.702 46.151 60.5354V79.5713C46.1512 80.4047 45.4756 81.0803 44.642 81.0803Z" fill="#698ED5"/>
<path d="M76.3783 45.8148C75.5447 45.8148 74.8693 45.1392 74.8693 44.3058V19.4244C74.8693 18.591 75.5449 17.9154 76.3783 17.9154C77.2117 17.9154 77.8873 18.591 77.8873 19.4244V44.3058C77.8875 45.1392 77.2119 45.8148 76.3783 45.8148Z" fill="#CB5769"/>
<path d="M20.3082 45.9056C19.4746 45.9056 18.7992 45.23 18.7992 44.3966V17.2474C18.7992 16.414 19.4748 15.7384 20.3082 15.7384C21.1416 15.7384 21.8172 16.414 21.8172 17.2474V44.3964C21.8172 45.2298 21.1416 45.9056 20.3082 45.9056Z" fill="#FFD064"/>
<path d="M97.9072 39.346C100.698 47.9141 100.698 56.4823 97.9072 65.0503C92.7432 65.1928 87.5793 65.3126 82.4152 65.4092C80.9641 65.4364 79.5131 63.5178 78.0619 63.5415C79.6965 54.6833 79.6965 49.7651 78.0619 40.9071C79.5131 40.9307 80.9641 38.9598 82.4152 38.987C87.5791 39.0837 92.7432 39.2034 97.9072 39.346Z" fill="#95D6A4"/>
<path d="M78.0619 44.7299C79.6965 53.5881 82.0891 51.3683 80.4545 60.2266C77.4686 60.275 72.0899 65.5742 69.1039 65.6072C56.0457 65.7512 42.9875 65.7476 29.9295 65.5963C20.6508 65.4889 18.176 58.5029 8.89708 58.2463C6.10665 49.6781 6.10665 56.5375 8.89708 47.9695C18.1758 47.7129 20.6508 38.9072 29.9295 38.7998C42.9877 38.6486 56.0459 38.6449 69.1039 38.7889C72.0899 38.8219 75.076 44.6816 78.0619 44.7299Z" fill="#18A0FB"/>
<path d="M69.1039 65.6072C71.6246 61.116 74.0389 56.643 76.0889 52.1981C74.0387 47.7533 71.6244 43.2803 69.1039 38.7889C73.541 38.8379 77.9781 38.9039 82.4153 38.9869C85.3236 43.4274 87.9317 47.8344 89.9818 52.1981C87.9317 56.5617 85.3236 60.9688 82.4153 65.4092" fill="#DD636E"/>
<path d="M35.2031 52.198C33.1527 56.684 31.309 61.1537 29.9293 65.5973C20.6506 65.4898 11.3721 65.3078 2.09337 65.0512C-0.697647 56.4824 -0.697647 47.9137 2.09337 39.3449C11.3721 39.0885 20.6506 38.9062 29.9293 38.7988C31.309 43.2426 33.1527 47.7123 35.2031 52.198Z" fill="#F6E266"/>
<path d="M30.9551 22.3611C23.8566 22.8177 16.7584 22.8177 9.66016 22.3611C7.68223 22.234 6.0957 20.6933 5.90234 18.7207C5.4209 13.808 5.4209 8.89548 5.90234 3.98279C6.0957 2.01013 7.68223 0.469702 9.66016 0.342358C16.7584 -0.114282 23.8568 -0.114282 30.9551 0.342358C32.933 0.469507 34.5195 2.01013 34.7129 3.98259C35.1943 8.89529 35.1943 13.8078 34.7129 18.7205C34.5195 20.6933 32.933 22.234 30.9551 22.3611Z" fill="#F6E266"/>
<path d="M28.4125 9.9252H12.2027C11.3691 9.9252 10.6938 9.24961 10.6938 8.41621C10.6938 7.58281 11.3693 6.90723 12.2027 6.90723H28.4125C29.2461 6.90723 29.9215 7.58281 29.9215 8.41621C29.9215 9.24961 29.2459 9.9252 28.4125 9.9252Z" fill="#2B4D66"/>
<path d="M21.6785 15.7967H12.2027C11.3691 15.7967 10.6938 15.1211 10.6938 14.2877C10.6938 13.4543 11.3693 12.7787 12.2027 12.7787H21.6785C22.5121 12.7787 23.1875 13.4543 23.1875 14.2877C23.1875 15.1211 22.5121 15.7967 21.6785 15.7967Z" fill="#2B4D66"/>
<path d="M84.0565 23.7591C78.9381 24.0884 73.8197 24.0884 68.7014 23.7591C67.2752 23.6673 66.1311 22.5566 65.9918 21.1341C65.6447 17.5917 65.6447 14.0495 65.9918 10.5072C66.1313 9.0847 67.2752 7.97396 68.7014 7.88217C73.8197 7.55287 78.9381 7.55287 84.0565 7.88217C85.4826 7.97396 86.6266 9.0847 86.766 10.5072C87.1131 14.0495 87.1131 17.5917 86.766 21.1341C86.6268 22.5566 85.4828 23.6673 84.0565 23.7591Z" fill="#DD636E"/>
<path d="M81.117 14.3941H71.641C70.8074 14.3941 70.132 13.7185 70.132 12.8851C70.132 12.0517 70.8076 11.3762 71.641 11.3762H81.117C81.9506 11.3762 82.626 12.0517 82.626 12.8851C82.626 13.7185 81.9506 14.3941 81.117 14.3941Z" fill="#2B4D66"/>
<path d="M77.1805 20.2656H71.641C70.8074 20.2656 70.132 19.59 70.132 18.7566C70.132 17.9232 70.8076 17.2476 71.641 17.2476H77.1805C78.0141 17.2476 78.6895 17.9232 78.6895 18.7566C78.6895 19.5898 78.0141 20.2656 77.1805 20.2656Z" fill="#2B4D66"/>
<path d="M56.6469 99.6136C48.6438 100.128 40.6408 100.128 32.6377 99.6136C30.4076 99.4703 28.6189 97.7334 28.401 95.5093C27.8582 89.9707 27.8582 84.4318 28.401 78.8931C28.6189 76.6691 30.4076 74.9322 32.6377 74.7888C40.6408 74.274 48.6438 74.274 56.6469 74.7888C58.877 74.9322 60.6656 76.6691 60.8836 78.8931C61.4264 84.4318 61.4264 89.9707 60.8836 95.5093C60.6656 97.7334 58.877 99.4703 56.6469 99.6136Z" fill="#18A0FB"/>
<path d="M52.7473 88.7104H36.5373C35.7037 88.7104 35.0283 88.0348 35.0283 87.2014C35.0283 86.368 35.7039 85.6924 36.5373 85.6924H52.7473C53.5809 85.6924 54.2562 86.368 54.2562 87.2014C54.2564 88.0346 53.5809 88.7104 52.7473 88.7104Z" fill="#2B4D66"/>
<path d="M52.7473 82.6371H36.5373C35.7037 82.6371 35.0283 81.9615 35.0283 81.1281C35.0283 80.2947 35.7039 79.6191 36.5373 79.6191H52.7473C53.5809 79.6191 54.2562 80.2947 54.2562 81.1281C54.2564 81.9613 53.5809 82.6371 52.7473 82.6371Z" fill="#2B4D66"/>
<path d="M46.0133 94.7836H36.5375C35.7039 94.7836 35.0285 94.108 35.0285 93.2746C35.0285 92.4412 35.7041 91.7656 36.5375 91.7656H46.0133C46.8469 91.7656 47.5223 92.4412 47.5223 93.2746C47.5223 94.108 46.8467 94.7836 46.0133 94.7836Z" fill="#2B4D66"/>
</g>
<defs>
<clipPath id="clip0">
<rect width="100" height="100" fill="white"/>
</clipPath>
</defs>
</svg>
